<?xml version="1.0" encoding="UTF-8"?>
<svg version="1.1" xmlns="http://www.w3.org/2000/svg" width="1440" height="436">
<path d="M0 0 C475.2 0 950.4 0 1440 0 C1440 143.88 1440 287.76 1440 436 C964.8 436 489.6 436 0 436 C0 292.12 0 148.24 0 0 Z " fill="#FEFEFE" transform="translate(0,0)"/>
<path d="M0 0 C7 2 7 2 9 4 C11.44901303 4.99655542 13.88743193 5.92355097 16.375 6.8125 C17.8391496 7.348603 19.30268804 7.88637795 20.765625 8.42578125 C21.48814453 8.69213379 22.21066406 8.95848633 22.95507812 9.23291016 C31.21796865 12.3324806 39.28630678 15.96805366 47.3828125 19.47265625 C51.01683574 21.00710883 54.67159543 22.47698513 58.33642578 23.93579102 C62.86009418 25.7431852 67.367081 27.59124926 71.875 29.4375 C73.33160034 30.03389282 73.33160034 30.03389282 74.81762695 30.64233398 C83.05830332 34.01913951 91.28635243 37.42310841 99.484375 40.90234375 C109.87127123 45.31423241 109.87127123 45.31423241 120.375 49.4375 C128.91404777 52.66287656 137.25445781 56.36563963 145.6328125 59.98242188 C150.40326358 62.03308608 155.20143326 64.01631302 160 66 C162.00023383 66.83277192 164.00022851 67.66611845 166 68.5 C168.91751368 69.71594441 171.83517993 70.93150031 174.75390625 72.14453125 C179.24289889 74.01130288 183.72926532 75.88379107 188.20703125 77.77734375 C197.87902148 81.86592968 207.57546731 85.88834347 217.29833984 89.85449219 C222.76524819 92.08458075 228.22187405 94.33668518 233.66796875 96.6171875 C239.49257282 99.03443233 245.33385541 101.41117691 251.17382812 103.79101562 C263.19186051 108.69546461 263.19186051 108.69546461 268.58984375 111.203125 C274.09023438 113.65587823 278.16017611 114.82565368 284 113 C286.35728893 112.02659213 288.64570249 110.99021151 290.921875 109.83984375 C293 109 293 109 297 109 C297 108.34 297 107.68 297 107 C297.54301758 106.81937012 298.08603516 106.63874023 298.64550781 106.45263672 C307.97487542 103.32771312 317.04982686 100.22300273 325.7578125 95.59765625 C330.87603691 93.07554326 336.18663663 91.05744966 341.49365234 88.9699707 C347.60421702 86.56580464 353.64654259 84.05163948 359.6640625 81.421875 C365.65853022 78.86685597 371.72988133 76.50194539 377.7890625 74.10546875 C387.01458171 70.45146176 396.1667247 66.68905578 405.2265625 62.640625 C408.8955869 61.01993347 412.61647491 59.54202888 416.34423828 58.0625 C420.95847278 56.21646686 425.53990506 54.29200782 430.125 52.375 C431.67936768 51.72640015 431.67936768 51.72640015 433.26513672 51.06469727 C437.54181739 49.28011104 441.81781202 47.49388441 446.09375 45.70751953 C457.00809756 41.14874002 467.92773771 36.60427507 478.875 32.125 C479.74785645 31.76784912 480.62071289 31.41069824 481.52001953 31.04272461 C485.74083264 29.31935467 489.9673408 27.61203665 494.203125 25.92578125 C498.11976154 24.3621895 502.00455361 22.73783711 505.875 21.0625 C521.60987754 14.29481074 521.60987754 14.29481074 529.46875 11.2734375 C530.25797852 10.96978271 531.04720703 10.66612793 531.86035156 10.35327148 C533.40767477 9.76029954 534.95642213 9.1710251 536.50683594 8.58618164 C540.78595964 6.94940255 544.84828505 5.14111764 548.87402344 2.94946289 C551.79306662 1.64581579 554.92608315 0.87826196 558 0 C558 22.11 558 44.22 558 67 C548.1 70.96 548.1 70.96 538 75 C535.03 76.32 532.06 77.64 529 79 C527.36481963 79.69087742 525.72631188 80.37403853 524.08203125 81.04296875 C523.2307666 81.39012939 522.37950195 81.73729004 521.50244141 82.0949707 C520.61476074 82.45550537 519.72708008 82.81604004 518.8125 83.1875 C517.87067871 83.57188232 516.92885742 83.95626465 515.95849609 84.35229492 C510.96125073 86.3913532 505.96036875 88.4212535 500.95703125 90.4453125 C499.97951904 90.84210205 499.00200684 91.2388916 497.99487305 91.64770508 C496.13417447 92.40290652 494.27241858 93.15551015 492.40942383 93.9050293 C488.49345859 95.49615558 484.65935851 97.13077724 480.90234375 99.0703125 C476.86999962 101.13567186 472.72655474 102.62246443 468.4375 104.0625 C463.1857163 105.84460842 458.07992587 107.75851197 453 110 C445.47671904 113.23562965 437.94788914 116.45285864 430.3828125 119.58984375 C427.77018506 120.67894133 425.16134238 121.77566788 422.5546875 122.87890625 C413.9897745 126.50282462 405.40904086 130.0630487 396.765625 133.49609375 C392.5406068 135.17777698 388.33109102 136.89658886 384.125 138.625 C383.39740479 138.92398193 382.66980957 139.22296387 381.92016602 139.53100586 C378.35471233 141.00343432 374.81739073 142.51236011 371.3125 144.125 C367.63706036 145.79889209 363.87788801 147.11521424 360.0625 148.4375 C356.01713658 149.85617155 352.16628344 151.31284962 348.375 153.3125 C342.84758556 156.20183027 337.09201108 158.4188539 331.29711914 160.70410156 C324.43596509 163.41365787 317.61809962 166.21644347 310.8125 169.0625 C309.80243896 169.48281494 308.79237793 169.90312988 307.75170898 170.33618164 C303.13640074 172.25875873 298.53003248 174.19689774 293.9453125 176.19140625 C292.79325317 176.6853186 292.79325317 176.6853186 291.61791992 177.18920898 C290.22035211 177.78901611 288.82682285 178.3983763 287.4387207 179.01977539 C280.77242586 181.85820946 276.12074203 181.59781055 269.48828125 178.98828125 C267.42425902 178.10898927 265.36575462 177.21665022 263.3125 176.3125 C261.79366211 175.65991211 261.79366211 175.65991211 260.24414062 174.99414062 C258.18775956 174.11059052 256.13324536 173.22268354 254.08056641 172.33056641 C249.07523755 170.1686515 244.03688678 168.0870691 239 166 C232.88983342 163.46459453 226.78654734 160.91543146 220.703125 158.31640625 C206.45756667 152.20602001 206.45756667 152.20602001 192 146.625 C187.00014468 144.80213608 182.35857977 142.73619405 177.65234375 140.26953125 C174.36383047 138.69550059 170.9832768 137.43699289 167.5625 136.1875 C161.83557513 134.08912575 156.17848733 131.87999111 150.5625 129.5 C149.79744141 129.17580078 149.03238281 128.85160156 148.24414062 128.51757812 C144.28755104 126.83517551 140.33496786 125.14347368 136.3828125 123.45068359 C132.27759669 121.69263783 128.17057708 119.93884863 124.0625 118.1875 C123.00603271 117.73674606 123.00603271 117.73674606 121.92822266 117.27688599 C110.7522263 112.5152572 99.50956146 107.96801895 88.15844727 103.6394043 C82.36366602 101.41111587 76.82082561 98.97866427 71.30249023 96.13598633 C67.87744772 94.4461631 64.34675476 93.14736977 60.75 91.875 C56.00247629 90.17945582 51.51067262 88.25533631 47 86 C44.39718815 84.95887526 41.76230428 84.01222867 39.125 83.0625 C30.64443463 79.95295936 30.64443463 79.95295936 27 78 C22.49386824 75.59068123 17.68755207 73.94015056 12.89648438 72.19335938 C12.23841797 71.95294922 11.58035156 71.71253906 10.90234375 71.46484375 C10.31960693 71.254646 9.73687012 71.04444824 9.13647461 70.82788086 C6.05756703 69.63480857 3.03500149 68.30071492 0 67 C0 44.89 0 22.78 0 0 Z " fill="#D60836" transform="translate(441,79)"/>
<path d="M0 0 C0 21.78 0 43.56 0 66 C-3.3 67.32 -6.6 68.64 -10 70 C-12.3847643 71.10415091 -14.7606319 72.22782368 -17.125 73.375 C-23.09052417 76.22566559 -29.13662291 78.66692203 -35.36962891 80.87060547 C-38.68384302 82.05813418 -41.81203823 83.3702252 -44.94140625 84.98828125 C-49.67666338 87.41825363 -54.60353057 89.03978609 -59.64453125 90.7109375 C-63.97745229 92.18428908 -67.98489579 93.92544758 -72.04882812 96.02734375 C-75.12569215 97.56115585 -78.29282608 98.7602521 -81.5 100 C-87.3195004 102.27450204 -87.3195004 102.27450204 -92.9375 105 C-98.72889679 108.04143376 -105.0222375 110.0566665 -111.15087891 112.3125 C-114.24871744 113.46427097 -117.31234718 114.69588399 -120.375 115.9375 C-123.10346103 117.04187708 -125.83963544 118.12614536 -128.57592773 119.2109375 C-133.95559546 121.34773068 -139.29215378 123.54188808 -144.5625 125.9375 C-147.84461899 127.36816725 -151.17167976 128.68164733 -154.5 130 C-159.31488772 131.90807612 -164.08266988 133.88286344 -168.80078125 136.01953125 C-172.32019705 137.58857808 -175.8845671 139.04721286 -179.4453125 140.51953125 C-182.11227091 141.63027547 -184.77263078 142.75274712 -187.4296875 143.88671875 C-194.96469423 147.09611644 -202.49621216 150.24487119 -210.1875 153.0625 C-218.27858043 156.03802595 -226.1337562 159.48129939 -234 163 C-238.3930894 164.96455482 -242.78959503 166.92125274 -247.1875 168.875 C-248.81933228 169.60819458 -248.81933228 169.60819458 -250.48413086 170.35620117 C-251.51417236 170.81357666 -252.54421387 171.27095215 -253.60546875 171.7421875 C-254.52481201 172.1532373 -255.44415527 172.56428711 -256.39135742 172.98779297 C-259 174 -259 174 -264 175 C-264 153.22 -264 131.44 -264 109 C-257.4096349 105.70481745 -250.89705659 102.54717454 -244.125 99.6875 C-243.29742188 99.32849609 -242.46984375 98.96949219 -241.6171875 98.59960938 C-240.41835938 98.09204102 -240.41835938 98.09204102 -239.1953125 97.57421875 C-238.48391113 97.27088623 -237.77250977 96.96755371 -237.03955078 96.6550293 C-235 96 -235 96 -231 96 C-231 95.34 -231 94.68 -231 94 C-229.25203125 93.30777344 -229.25203125 93.30777344 -227.46875 92.6015625 C-216.73592684 88.33683517 -206.05076996 83.96923707 -195.40039062 79.50244141 C-190.04010438 77.25625221 -184.66445174 75.05925594 -179.26416016 72.91113281 C-176.1523674 71.65889963 -173.07710222 70.33534625 -170 69 C-164.37421468 66.55862147 -158.70067324 64.26074273 -153 62 C-140.93329673 57.21016359 -128.92051911 52.31956941 -116.96679688 47.25439453 C-111.31982706 44.86679324 -105.66668548 42.49387811 -100.01333618 40.12142944 C-97.9873315 39.27091911 -95.96179382 38.41930382 -93.9362793 37.56762695 C-86.98270527 34.64699582 -80.01376401 31.77358792 -73 29 C-71.35658516 28.34551811 -69.71335836 27.6905639 -68.0703125 27.03515625 C-66.85686157 26.55139526 -66.85686157 26.55139526 -65.61889648 26.05786133 C-50.38941203 20.00205328 -50.38941203 20.00205328 -35.375 13.4375 C-30.31013272 11.11700052 -25.1899966 9.02242448 -20 7 C-18.48035028 6.39873683 -16.96083081 5.79714442 -15.44140625 5.1953125 C-13.7943901 4.54657214 -12.14725368 3.89813701 -10.5 3.25 C-9.29621704 2.77264404 -9.29621704 2.77264404 -8.06811523 2.28564453 C-7.31344971 1.99028809 -6.55878418 1.69493164 -5.78125 1.390625 C-5.10126953 1.12282227 -4.42128906 0.85501953 -3.72070312 0.57910156 C-2 0 -2 0 0 0 Z " fill="#D60836" transform="translate(999,183)"/>
<path d="M0 0 C10.12244898 3.37414966 10.12244898 3.37414966 13.55078125 4.76171875 C14.32196289 5.07206055 15.09314453 5.38240234 15.88769531 5.70214844 C17.08797363 6.18989746 17.08797363 6.18989746 18.3125 6.6875 C20.06371943 7.39473595 21.81502413 8.10176079 23.56640625 8.80859375 C24.45859863 9.16937012 25.35079102 9.53014648 26.27001953 9.90185547 C28.99739632 10.99895266 31.73000257 12.08181382 34.46484375 13.16015625 C35.35067139 13.51053955 36.23649902 13.86092285 37.14916992 14.22192383 C38.83191283 14.88709142 40.5156101 15.54985188 42.20043945 16.2097168 C45.90552432 17.6796459 49.50447437 19.21663467 53.046875 21.046875 C57.0759834 23.11046703 61.20947534 24.57764028 65.5 26 C70.46133823 27.64474236 75.09203334 29.47991803 79.73583984 31.87988281 C84.57334191 34.27307448 89.58754241 36.28755487 94.5625 38.375 C95.71548584 38.86033203 96.86847168 39.34566406 98.05639648 39.84570312 C114.83152858 46.94351386 114.83152858 46.94351386 132 53 C132 53.66 132 54.32 132 55 C132.65484375 55.10054687 133.3096875 55.20109375 133.984375 55.3046875 C137.90553447 56.20878904 141.51606669 57.64064626 145.25 59.125 C146.03850342 59.4355835 146.82700684 59.74616699 147.6394043 60.06616211 C150.09564939 61.03745201 152.54845111 62.01692152 155 63 C155.75555176 63.30276855 156.51110352 63.60553711 157.28955078 63.91748047 C164.40165634 66.77957367 171.4523952 69.70060428 178.375 73 C184.51223301 75.89448316 190.80637015 78.21733027 197.20263672 80.46484375 C201.71357818 82.06957909 205.96111248 83.8920911 210.21508789 86.08935547 C212.53254218 87.27169776 214.90312805 88.27016436 217.3125 89.25 C221.11231691 90.806668 224.90323875 92.37978825 228.6796875 93.9921875 C229.50557373 94.3437793 230.33145996 94.69537109 231.18237305 95.05761719 C232.80990741 95.75107594 234.43643385 96.44690678 236.06176758 97.14550781 C239.78154463 98.72513381 243.48316322 100.19437672 247.33203125 101.4296875 C252.99239891 103.33384465 258.48732337 105.7030514 264 108 C264 129.78 264 151.56 264 174 C256.13439378 172.87634197 256.13439378 172.87634197 252.50390625 171.14453125 C251.7056543 170.77223389 250.90740234 170.39993652 250.08496094 170.01635742 C249.25254883 169.61908447 248.42013672 169.22181152 247.5625 168.8125 C241.20076439 165.85430469 234.84845484 163.07467853 228.25 160.6875 C223.74469653 159.05571372 219.45608258 157.30918939 215.2265625 155.0546875 C212.02180948 153.53664659 208.70091955 152.34605982 205.375 151.125 C199.14638398 148.83601585 193.04579997 146.35177321 186.9609375 143.69921875 C182.00643647 141.55417155 177.00067884 139.53440356 172 137.5 C164.72103628 134.53655421 157.47035915 131.52700209 150.265625 128.38671875 C144.19974465 125.81089635 138.06020538 123.41697566 131.9296875 121 C129.40234375 120 129.40234375 120 126.875 119 C126.03324219 118.67 125.19148437 118.34 124.32421875 118 C119.72621004 116.17505391 115.30803493 114.18556762 110.90771484 111.92871094 C107.8158808 110.42354883 104.60987568 109.28129945 101.375 108.125 C94.87189034 105.74566464 88.52177513 103.13660456 82.171875 100.37109375 C78.63475766 98.84211815 75.06743816 97.40901967 71.484375 95.9921875 C66.63184259 94.05422644 61.81987231 92.01747836 57 90 C55.00015371 89.16629785 53.00015447 88.3329625 51 87.5 C48.05813145 86.27453858 45.11645313 85.04864294 42.17578125 83.8203125 C36.29066292 81.36349639 30.397854 78.92603523 24.5 76.5 C21.66650323 75.33372995 18.83319202 74.16701016 16 73 C14.80761719 72.50886719 13.61523438 72.01773438 12.38671875 71.51171875 C11.33097656 71.07472656 10.27523438 70.63773437 9.1875 70.1875 C8.27355469 69.80980469 7.35960937 69.43210937 6.41796875 69.04296875 C4.24398223 68.10523951 2.11765031 67.05882515 0 66 C0 44.22 0 22.44 0 0 Z " fill="#D60836" transform="translate(441,183)"/>
<path d="M0 0 C7 2 7 2 9 4 C11.65752929 5.05384782 14.30631044 6.04873201 17 7 C24.72972973 9.72972973 24.72972973 9.72972973 27 12 C23.37 12.33 19.74 12.66 16 13 C16 11.35 16 9.7 16 8 C11.71 7.34 7.42 6.68 3 6 C3.33 26.46 3.66 46.92 4 68 C2.68 67.67 1.36 67.34 0 67 C0 44.89 0 22.78 0 0 Z " fill="#B01B40" transform="translate(441,79)"/>
<path d="M0 0 C3.96 1.32 7.92 2.64 12 4 C12 25.78 12 47.56 12 70 C4.13467948 68.87638278 4.13467948 68.87638278 0.43359375 67.109375 C-0.37561523 66.73159912 -1.18482422 66.35382324 -2.01855469 65.96459961 C-2.85805664 65.56378174 -3.69755859 65.16296387 -4.5625 64.75 C-12.5852423 61.01964727 -20.596424 57.76872785 -29 55 C-24.3407246 53.53806031 -20.56173904 54.52072639 -16 56 C-14.7687346 56.66767588 -13.5577681 57.37475658 -12.375 58.125 C-8.51892175 60.26726569 -6.33051444 60.16341564 -2 60 C0.4375 61 0.4375 61 2 62 C2 63.32 2 64.64 2 66 C4.31 66 6.62 66 9 66 C9.33 46.2 9.66 26.4 10 6 C8.02 5.67 6.04 5.34 4 5 C3.505 4.01 3.505 4.01 3 3 C2.01 2.67 1.02 2.34 0 2 C0 1.34 0 0.68 0 0 Z " fill="#B83858" transform="translate(693,287)"/>
<path d="M0 0 C0.99 0.33 1.98 0.66 3 1 C1.9375 2.4375 1.9375 2.4375 0 4 C-2.31 4.33 -4.62 4.66 -7 5 C-7.33 25.79 -7.66 46.58 -8 68 C-4.04 66.35 -0.08 64.7 4 63 C4 62.34 4 61.68 4 61 C8.29 60.34 12.58 59.68 17 59 C14.08571009 61.18571744 12.04813739 62.57908536 8.84765625 64.0078125 C8.07099609 64.35457031 7.29433594 64.70132813 6.49414062 65.05859375 C5.29047852 65.58646484 5.29047852 65.58646484 4.0625 66.125 C2.86463867 66.66447266 2.86463867 66.66447266 1.64257812 67.21484375 C0.4756543 67.73111328 0.4756543 67.73111328 -0.71484375 68.2578125 C-1.41730225 68.5686377 -2.11976074 68.87946289 -2.84350586 69.19970703 C-5 70 -5 70 -10 71 C-10 49.22 -10 27.44 -10 5 C-6.7 3.35 -3.4 1.7 0 0 Z " fill="#BB405E" transform="translate(745,287)"/>
<path d="M0 0 C1.32 0.33 2.64 0.66 4 1 C0.34848539 4.18189725 -3.71485278 5.59063125 -8.1875 7.25 C-9.80522849 7.864463 -11.42240298 8.48038625 -13.0390625 9.09765625 C-13.86180664 9.41105957 -14.68455078 9.72446289 -15.53222656 10.04736328 C-19.39813847 11.53972461 -23.23237947 13.10590368 -27.0625 14.6875 C-27.77728516 14.98221191 -28.49207031 15.27692383 -29.22851562 15.58056641 C-32.74337276 17.03792603 -36.22948564 18.53635503 -39.6875 20.125 C-43.36293964 21.79889209 -47.12211199 23.11521424 -50.9375 24.4375 C-56.05688581 26.23010985 -60.80942264 28.28564165 -65.609375 30.796875 C-75.94805195 36 -75.94805195 36 -80 36 C-80 35.34 -80 34.68 -80 34 C-78.02 33.505 -78.02 33.505 -76 33 C-76 32.34 -76 31.68 -76 31 C-72.91190305 29.23537317 -71.76687864 29 -68 29 C-68 28.34 -68 27.68 -68 27 C-66.35 27 -64.7 27 -63 27 C-63 26.34 -63 25.68 -63 25 C-64.32 25.33 -65.64 25.66 -67 26 C-66.67 25.34 -66.34 24.68 -66 24 C-63.65886528 23.60144617 -61.29971122 23.30686668 -58.9375 23.0625 C-49.48978942 22.31813111 -49.48978942 22.31813111 -41.796875 17.52734375 C-39.49605292 15.57164499 -37.19105342 15.22337753 -34.29199219 14.58105469 C-30.08547009 13.51463771 -26.13051054 11.77504952 -22.125 10.125 C-20.44010417 9.44010417 -18.75520833 8.75520833 -17.0703125 8.0703125 C-14.4485523 7.00097751 -11.82795221 5.92912137 -9.20996094 4.85058594 C-8.3130957 4.48481445 -7.41623047 4.11904297 -6.4921875 3.7421875 C-5.67862793 3.40815918 -4.86506836 3.07413086 -4.02685547 2.72998047 C-2 2 -2 2 0 2 C0 1.34 0 0.68 0 0 Z " fill="#B92146" transform="translate(852,203)"/>
<path d="M0 0 C0 22.11 0 44.22 0 67 C-3.465 67.99 -3.465 67.99 -7 69 C-7 68.34 -7 67.68 -7 67 C-4.525 66.01 -4.525 66.01 -2 65 C-2 44.87 -2 24.74 -2 4 C-4.31 4.33 -6.62 4.66 -9 5 C-9 5.66 -9 6.32 -9 7 C-10.98 7 -12.96 7 -15 7 C-12.61666905 4.25484323 -10.31090681 3.10919982 -6.9375 1.8125 C-6.05964844 1.46832031 -5.18179688 1.12414062 -4.27734375 0.76953125 C-2 0 -2 0 0 0 Z " fill="#A32040" transform="translate(999,79)"/>
<path d="M0 0 C0 21.78 0 43.56 0 66 C-3.465 66.99 -3.465 66.99 -7 68 C-7 67.01 -7 66.02 -7 65 C-5.35 65 -3.7 65 -2 65 C-2 44.54 -2 24.08 -2 3 C-4.31 3.33 -6.62 3.66 -9 4 C-6.10130984 1.70103884 -3.84906588 0 0 0 Z " fill="#A52142" transform="translate(999,183)"/>
<path d="M0 0 C0.66 0.33 1.32 0.66 2 1 C2.02314216 9.57078647 2.04092467 18.14155995 2.05181217 26.71236992 C2.05703689 30.69188412 2.0641271 34.67137699 2.07543945 38.65087891 C2.08628291 42.48933243 2.09227994 46.3277654 2.09487724 50.16623306 C2.09672885 51.63269499 2.10034444 53.09915577 2.10573006 54.56560898 C2.11295983 56.61521612 2.11399012 58.66473768 2.11352539 60.71435547 C2.115746 61.88239716 2.11796661 63.05043884 2.12025452 64.25387573 C2 67 2 67 1 69 C0.34 69 -0.32 69 -1 69 C-1 69.66 -1 70.32 -1 71 C-3.64 71 -6.28 71 -9 71 C-6.16928008 67.38296899 -5.21282508 67.86880418 0 67 C0 44.89 0 22.78 0 0 Z " fill="#FEE4EE" transform="translate(999,79)"/>
<path d="M0 0 C2.31 0.66 4.62 1.32 7 2 C6.01 2.33 5.02 2.66 4 3 C3.34 2.67 2.68 2.34 2 2 C2 22.79 2 43.58 2 65 C3.65 65 5.3 65 7 65 C7 65.99 7 66.98 7 68 C1.125 67.125 1.125 67.125 0 66 C-0.09413687 63.94443339 -0.11742998 61.88559819 -0.11352539 59.82788086 C-0.11367142 59.18399918 -0.11381744 58.54011749 -0.1139679 57.87672424 C-0.11326885 55.73939697 -0.10547691 53.60215587 -0.09765625 51.46484375 C-0.09579204 49.98653715 -0.09436815 48.50822993 -0.09336853 47.02992249 C-0.08954359 43.13201198 -0.07971352 39.23413851 -0.06866455 35.33624268 C-0.05844992 31.36153667 -0.0538708 27.38682471 -0.04882812 23.41210938 C-0.03809122 15.608056 -0.02101509 7.80403318 0 0 Z " fill="#B61941" transform="translate(441,183)"/>
<path d="M0 0 C2.64 0 5.28 0 8 0 C8 0.66 8 1.32 8 2 C10.97 2.495 10.97 2.495 14 3 C14 3.33 14 3.66 14 4 C14.56589844 4.13277344 15.13179687 4.26554688 15.71484375 4.40234375 C16.44832031 4.57894531 17.18179688 4.75554687 17.9375 4.9375 C18.66839844 5.11152344 19.39929688 5.28554687 20.15234375 5.46484375 C22 6 22 6 23 7 C25.0742997 6.97428296 25.0742997 6.97428296 27.4375 6.6875 C28.24058594 6.60886719 29.04367187 6.53023438 29.87109375 6.44921875 C32.20482915 6.15909117 32.20482915 6.15909117 34 4 C36 2 36 2 38.3828125 1.8046875 C39.28773438 1.82789063 40.19265625 1.85109375 41.125 1.875 C42.03507813 1.89304688 42.94515625 1.91109375 43.8828125 1.9296875 C44.58148437 1.95289063 45.28015625 1.97609375 46 2 C42.7895585 4.66365098 39.56365452 6.17074388 35.6875 7.6875 C34.05361328 8.34298828 34.05361328 8.34298828 32.38671875 9.01171875 C24.02959912 11.45041687 18.21996625 8.8180693 10.5625 5.5 C9.54478516 5.07074219 8.52707031 4.64148438 7.47851562 4.19921875 C4.98074398 3.14382228 2.48841036 2.07723943 0 1 C0 0.67 0 0.34 0 0 Z " fill="#B41F42" transform="translate(694,250)"/>
<path d="M0 0 C6.19023884 0.64036954 11.41312244 1.56896135 16.9375 4.625 C20.52507863 6.23574959 23.10762743 6.07208097 27 6 C29.4375 7 29.4375 7 31 8 C31 9.32 31 10.64 31 12 C33.31 12 35.62 12 38 12 C38.495 12.99 38.495 12.99 39 14 C38.67 14.66 38.34 15.32 38 16 C32.35476975 14.31633484 27.11695178 12.1768714 21.8125 9.625 C14.70129587 6.20981025 7.48064822 3.50123369 0 1 C0 0.67 0 0.34 0 0 Z " fill="#C42247" transform="translate(664,341)"/>
<path d="M0 0 C-2.83179503 2.83179503 -6.29738505 3.69421498 -10 5 C-11.2753547 5.46315344 -12.55011612 5.92794448 -13.82421875 6.39453125 C-14.45416748 6.62503174 -15.08411621 6.85553223 -15.7331543 7.09301758 C-22.75076112 9.67651381 -29.50781743 12.5128093 -36.23046875 15.80078125 C-38.84883175 16.93454351 -41.18999295 17.56334443 -44 18 C-44 17.34 -44 16.68 -44 16 C-38.375 13 -38.375 13 -35 13 C-35 11.68 -35 10.36 -35 9 C-33.6696875 9.1546875 -33.6696875 9.1546875 -32.3125 9.3125 C-24.76090149 9.32784878 -17.13049278 5.22557502 -10.625 1.6875 C-6.52260715 -0.2222346 -4.41000402 -0.36750033 0 0 Z " fill="#BE123C" transform="translate(900,186)"/>
<path d="M0 0 C0.66 0.33 1.32 0.66 2 1 C-2.625 4 -2.625 4 -6 4 C-6.33 4.99 -6.66 5.98 -7 7 C-11.455 7.495 -11.455 7.495 -16 8 C-16 8.66 -16 9.32 -16 10 C-16.99 10 -17.98 10 -19 10 C-19 10.66 -19 11.32 -19 12 C-25.38639042 16.90118335 -30.26562063 17.13109118 -38 17 C-38.33 17.66 -38.66 18.32 -39 19 C-39.66 18.34 -40.32 17.68 -41 17 C-39.83984375 16.55269531 -38.6796875 16.10539062 -37.484375 15.64453125 C-25.55814111 11.03477758 -13.69614054 6.39494339 -2.1796875 0.8203125 C-1.46039062 0.54960937 -0.74109375 0.27890625 0 0 Z " fill="#C23556" transform="translate(969,194)"/>
<path d="M0 0 C-3.81937705 2.54625136 -7.77390188 4.16763617 -12.02734375 5.81640625 C-16.76644639 7.70332885 -21.42363274 9.77733438 -26.09375 11.828125 C-29 13 -29 13 -31 13 C-31 12.34 -31 11.68 -31 11 C-29.68 10.67 -28.36 10.34 -27 10 C-27 9.34 -27 8.68 -27 8 C-23.91190305 6.23537317 -22.76687864 6 -19 6 C-19 5.34 -19 4.68 -19 4 C-17.35 4 -15.7 4 -14 4 C-14 3.34 -14 2.68 -14 2 C-15.32 2.33 -16.64 2.66 -18 3 C-17.67 2.34 -17.34 1.68 -17 1 C-14.49864104 0.49500309 -12.08892785 0.11343185 -9.5625 -0.1875 C-8.86833984 -0.28224609 -8.17417969 -0.37699219 -7.45898438 -0.47460938 C-2.26625241 -1.13312621 -2.26625241 -1.13312621 0 0 Z " fill="#C2143E" transform="translate(803,226)"/>
<path d="M0 0 C10.53357722 3.35853187 20.62412315 7.68178875 30.7956543 11.98901367 C37.47731432 14.80677273 44.20614095 17.46297544 51 20 C46.47907032 21.45606519 43.48351204 20.27032841 39 19 C39 18.34 39 17.68 39 17 C38.07316406 16.80664062 37.14632812 16.61328125 36.19140625 16.4140625 C34.39509766 16.02347656 34.39509766 16.02347656 32.5625 15.625 C31.36753906 15.36976563 30.17257812 15.11453125 28.94140625 14.8515625 C27.97074219 14.57054687 27.00007812 14.28953125 26 14 C25.67 13.34 25.34 12.68 25 12 C22.96397386 11.00496906 22.96397386 11.00496906 20.5 10.125 C17.033611 8.79786821 13.6275882 7.41444496 10.25 5.875 C6.89074675 4.35945768 3.52698895 3.08522737 0 2 C0 1.34 0 0.68 0 0 Z " fill="#B72044" transform="translate(611,150)"/>
<path d="M0 0 C0 0.66 0 1.32 0 2 C2.31 2 4.62 2 7 2 C8.09658936 5.28976808 7.79953138 6.71303767 7 10 C1.27789404 8.13236819 -4.37661751 6.14710968 -10 4 C-10 3.34 -10 2.68 -10 2 C-8.7090864 1.66376204 -7.41723903 1.33110751 -6.125 1 C-5.40570312 0.814375 -4.68640625 0.62875 -3.9453125 0.4375 C-2 0 -2 0 0 0 Z " fill="#D10736" transform="translate(592,304)"/>
<path d="M0 0 C5.26285525 0.58567825 9.39383124 2.34633195 14.125 4.5625 C21.85998002 8.10715842 29.68455851 11.33018119 37.62548828 14.38500977 C38.42970215 14.69881592 39.23391602 15.01262207 40.0625 15.3359375 C40.77535156 15.60970215 41.48820313 15.8834668 42.22265625 16.16552734 C44 17 44 17 46 19 C36.13848978 17.62536524 27.01988504 13.67934345 18.265625 9.0703125 C14.91942058 7.48951938 11.61822254 6.73704533 8 6 C8 5.34 8 4.68 8 4 C5.03 3.505 5.03 3.505 2 3 C2 2.34 2 1.68 2 1 C1.34 0.67 0.68 0.34 0 0 Z " fill="#B42348" transform="translate(480,96)"/>
<path d="M0 0 C10.58505792 3.34264987 20.81068029 7.61550485 31 12 C32.6642135 12.67276716 34.32986582 13.34206835 36 14 C31.99799622 15.60080151 28.95443764 14.29279692 25 13 C24.67 13.66 24.34 14.32 24 15 C24 14.01 24 13.02 24 12 C22.02463255 12.34786708 22.02463255 12.34786708 20 13 C19.67 13.66 19.34 14.32 19 15 C18.34 15 17.68 15 17 15 C17.33 13.35 17.66 11.7 18 10 C13.8576492 7.28158229 9.6269064 5.66046238 5 4 C3.33094605 3.33933281 1.6630584 2.67561748 0 2 C0 1.34 0 0.68 0 0 Z " fill="#BC193E" transform="translate(676,177)"/>
<path d="M0 0 C0.66 0.33 1.32 0.66 2 1 C0.21118264 2.00508801 -1.58114696 3.00392736 -3.375 4 C-4.37273438 4.556875 -5.37046875 5.11375 -6.3984375 5.6875 C-9 7 -9 7 -11 7 C-11 7.66 -11 8.32 -11 9 C-13.31 9.66 -15.62 10.32 -18 11 C-18 11.33 -18 11.66 -18 12 C-18.66386719 12.19335938 -19.32773437 12.38671875 -20.01171875 12.5859375 C-25.52266994 14.19357981 -25.52266994 14.19357981 -30.875 16.25 C-33.39247878 17.13852192 -34.49424299 16.73390373 -37 16 C-33.87663481 14.57970992 -30.75100782 13.16446311 -27.625 11.75 C-26.31982422 11.15638672 -26.31982422 11.15638672 -24.98828125 10.55078125 C-19.77494199 8.19512425 -14.53261693 5.9689162 -9.20458984 3.88500977 C-7.10614017 3.04260887 -5.05697488 2.12563483 -3 1.1875 C-2.01 0.795625 -1.02 0.40375 0 0 Z " fill="#BA274B" transform="translate(867,133)"/>
<path d="M0 0 C0.66 0.33 1.32 0.66 2 1 C1.505 1.45375 1.01 1.9075 0.5 2.375 C-1.22609337 3.87635519 -1.22609337 3.87635519 -1 6 C-1.825 5.9175 -2.65 5.835 -3.5 5.75 C-7.45698513 6.0326418 -9.69284189 7.17176399 -13.0703125 9.125 C-15 10 -15 10 -19 10 C-19 10.66 -19 11.32 -19 12 C-20.32 12 -21.64 12 -23 12 C-23 12.66 -23 13.32 -23 14 C-26.63 14.33 -30.26 14.66 -34 15 C-33.34 14.34 -32.68 13.68 -32 13 C-30.68 13 -29.36 13 -28 13 C-28 12.34 -28 11.68 -28 11 C-27.43603516 10.80889648 -26.87207031 10.61779297 -26.29101562 10.42089844 C-23.69197476 9.53645824 -21.09601166 8.64329053 -18.5 7.75 C-17.613125 7.44964844 -16.72625 7.14929688 -15.8125 6.83984375 C-11.53652191 5.36211603 -7.4778766 3.80918518 -3.46875 1.703125 C-2.3240625 1.14109375 -1.179375 0.5790625 0 0 Z " fill="#C02A4D" transform="translate(766,175)"/>
<path d="M0 0 C0.66 0.33 1.32 0.66 2 1 C-4.82481512 6.87484086 -13.33846549 9.83461637 -22 12 C-21.67 12.66 -21.34 13.32 -21 14 C-24.3 14 -27.6 14 -31 14 C-29.59640268 11.19280537 -28.02516235 11.04721612 -25.1171875 9.94140625 C-24.11429688 9.55533203 -23.11140625 9.16925781 -22.078125 8.77148438 C-21.02109375 8.37251953 -19.9640625 7.97355469 -18.875 7.5625 C-16.80951391 6.77313406 -14.74440062 5.98279183 -12.6796875 5.19140625 C-11.69967773 4.81902832 -10.71966797 4.44665039 -9.70996094 4.06298828 C-7.39727842 3.15583336 -5.14225886 2.18250605 -2.8828125 1.15234375 C-1.93148437 0.77207031 -0.98015625 0.39179688 0 0 Z " fill="#C02C4E" transform="translate(900,223)"/>
<path d="M0 0 C0 0.66 0 1.32 0 2 C-4.2784346 5.44361809 -7.58327986 6.48898867 -13 7 C-13.99 7.33 -14.98 7.66 -16 8 C-16 8.66 -16 9.32 -16 10 C-19.52155964 12.34770643 -21.50771843 12.37669614 -25.6875 12.625 C-27.45673828 12.73714844 -27.45673828 12.73714844 -29.26171875 12.8515625 C-30.61716797 12.92503906 -30.61716797 12.92503906 -32 13 C-28.88852339 10.92568226 -25.8789312 9.58316953 -22.4375 8.125 C-21.8177832 7.86178955 -21.19806641 7.5985791 -20.55957031 7.32739258 C-16.02737624 5.41051081 -11.471371 3.55913068 -6.890625 1.76171875 C-2.51794872 0 -2.51794872 0 0 0 Z " fill="#BE2749" transform="translate(827,254)"/>
<path d="M0 0 C0.66 0.33 1.32 0.66 2 1 C-1.84884674 5.27649638 -5.20407221 6.51296873 -10.6875 8 C-14.04350571 8.72845517 -14.04350571 8.72845517 -16 11 C-16.99 11 -17.98 11 -19 11 C-19.33 11.66 -19.66 12.32 -20 13 C-22.97 13 -25.94 13 -29 13 C-28 11 -28 11 -26.17749023 10.19384766 C-25.39575439 9.93651855 -24.61401855 9.67918945 -23.80859375 9.4140625 C-22.94556641 9.12273437 -22.08253906 8.83140625 -21.19335938 8.53125 C-19.82920898 8.08265625 -19.82920898 8.08265625 -18.4375 7.625 C-13.27854359 5.92167765 -8.29125338 4.24383172 -3.47265625 1.7109375 C-2.32667969 1.14632812 -1.18070313 0.58171875 0 0 Z " fill="#F7CAD5" transform="translate(822,218)"/>
<path d="M0 0 C1.94620748 0.23488711 3.8921497 0.4724277 5.8359375 0.7265625 C7.63684403 0.95411387 9.44310806 1.13876039 11.25 1.3125 C14.6143657 2.15359142 15.61329265 3.54096819 18 6 C22.79013724 8.57248111 25.70735175 9.4199788 31 8 C30.67 8.99 30.34 9.98 30 11 C30.66 11.66 31.32 12.32 32 13 C27.37839367 12.41357261 23.62279562 11.1444192 19.375 9.25 C18.15130585 8.71033806 16.92734192 8.17128749 15.703125 7.6328125 C15.09017578 7.36114258 14.47722656 7.08947266 13.84570312 6.80957031 C10.95525168 5.54174796 8.04043891 4.33400903 5.125 3.125 C4.13757813 2.71507812 3.15015625 2.30515625 2.1328125 1.8828125 C1.42898438 1.59148437 0.72515625 1.30015625 0 1 C0 0.67 0 0.34 0 0 Z " fill="#BD294A" transform="translate(600,314)"/>
<path d="M0 0 C2.31 0.66 4.62 1.32 7 2 C4 3 4 3 2 3 C1.67 23.79 1.34 44.58 1 66 C0.67 66 0.34 66 0 66 C0 44.22 0 22.44 0 0 Z " fill="#942944" transform="translate(441,183)"/>
<path d="M0 0 C0.80824219 0.11085937 1.61648438 0.22171875 2.44921875 0.3359375 C3.37154297 0.47902344 3.37154297 0.47902344 4.3125 0.625 C-3.11330012 5.57553341 -14.51024922 12.625 -23.6875 12.625 C-23.6875 11.965 -23.6875 11.305 -23.6875 10.625 C-22.6975 10.625 -21.7075 10.625 -20.6875 10.625 C-21.0175 9.635 -21.3475 8.645 -21.6875 7.625 C-15.0625 6.5 -15.0625 6.5 -11.6875 7.625 C-11.6875 6.965 -11.6875 6.305 -11.6875 5.625 C-10.6975 5.295 -9.7075 4.965 -8.6875 4.625 C-8.3575 3.635 -8.0275 2.645 -7.6875 1.625 C-4.33422361 -0.61051759 -3.78006343 -0.54783528 0 0 Z " fill="#C40C35" transform="translate(928.6875,171.375)"/>
<path d="M0 0 C27.05561227 9.9913492 27.05561227 9.9913492 32 14 C24.43665768 14.37196765 24.43665768 14.37196765 22.3125 12.5625 C21.879375 12.046875 21.44625 11.53125 21 11 C19.33805547 10.64386903 17.671549 10.30791692 16 10 C15.67 9.34 15.34 8.68 15 8 C12.88345871 7.07563299 10.73073926 6.23307519 8.5625 5.4375 C2.07594937 3.03797468 2.07594937 3.03797468 0 2 C0 1.34 0 0.68 0 0 Z " fill="#B52345" transform="translate(618,256)"/>
<path d="M0 0 C0.66 0.33 1.32 0.66 2 1 C2 2.32 2 3.64 2 5 C7.45769811 5.11138159 12.61509359 4.91657981 18 4 C18.33 3.01 18.66 2.02 19 1 C21.64 1 24.28 1 27 1 C10.86535955 9.20209646 10.86535955 9.20209646 4 7 C0.94602149 5.76855705 -2.04030242 4.44293646 -5 3 C-2 1 -2 1 0 0 Z " fill="#F9CFDA" transform="translate(711,186)"/>
<path d="M0 0 C-2.99886555 1.27352186 -5.9992972 2.54331385 -9 3.8125 C-9.83917969 4.16892578 -10.67835938 4.52535156 -11.54296875 4.89257812 C-25.99906823 11 -25.99906823 11 -30 11 C-30 10.34 -30 9.68 -30 9 C-26.535 8.505 -26.535 8.505 -23 8 C-22.67 6.35 -22.34 4.7 -22 3 C-18.37 3 -14.74 3 -11 3 C-11 2.34 -11 1.68 -11 1 C-4.03571429 -1.27678571 -4.03571429 -1.27678571 0 0 Z " fill="#BB1E44" transform="translate(864,305)"/>
<path d="M0 0 C-0.33 0.99 -0.66 1.98 -1 3 C-2.65 3 -4.3 3 -6 3 C-6 3.66 -6 4.32 -6 5 C-7.65 5.33 -9.3 5.66 -11 6 C-11.33 6.99 -11.66 7.98 -12 9 C-16.39365476 11.19682738 -19.2319721 10.80966512 -24 10 C-24.33 10.66 -24.66 11.32 -25 12 C-25.66 11.34 -26.32 10.68 -27 10 C-20.45409007 7.17035594 -13.90664145 4.34080937 -7.3125 1.625 C-6.54550781 1.30789062 -5.77851562 0.99078125 -4.98828125 0.6640625 C-3 0 -3 0 0 0 Z " fill="#C2294D" transform="translate(795,164)"/>
<path d="M0 0 C4.57888152 1.45115322 8.97649435 3.20581904 13.375 5.125 C14.01566406 5.40214844 14.65632812 5.67929688 15.31640625 5.96484375 C16.87856925 6.64100385 18.43942315 7.32018707 20 8 C20 8.33 20 8.66 20 9 C16.7 8.67 13.4 8.34 10 8 C10 7.34 10 6.68 10 6 C4.67829506 5.70437633 4.67829506 5.70437633 0 8 C-0.99 7.01 -1.98 6.02 -3 5 C-1.68 4.34 -0.36 3.68 1 3 C0.67 2.01 0.34 1.02 0 0 Z " fill="#CD1B41" transform="translate(530,116)"/>
<path d="M0 0 C5.77411669 0.60780176 10.70278804 2.77533888 16 5 C17.66554602 5.66946148 19.33190174 6.33692351 21 7 C20.01 7.66 19.02 8.32 18 9 C18 8.34 18 7.68 18 7 C16.55367187 7.08701172 16.55367187 7.08701172 15.078125 7.17578125 C13.81484375 7.22089844 12.5515625 7.26601563 11.25 7.3125 C9.99703125 7.37050781 8.7440625 7.42851562 7.453125 7.48828125 C4 7 4 7 1.546875 4.60546875 C0 2 0 2 0 0 Z " fill="#CA1E48" transform="translate(672,279)"/>
<path d="M0 0 C0 0.66 0 1.32 0 2 C-0.99 2 -1.98 2 -3 2 C-3.309375 2.639375 -3.61875 3.27875 -3.9375 3.9375 C-5 6 -5 6 -6 7 C-7.60048202 7.12535652 -9.20715928 7.17574787 -10.8125 7.1875 C-11.68519531 7.20167969 -12.55789063 7.21585938 -13.45703125 7.23046875 C-16.10919085 6.99010406 -17.72464999 6.34187309 -20 5 C-19.67 4.01 -19.34 3.02 -19 2 C-18.443125 2.10699219 -17.88625 2.21398437 -17.3125 2.32421875 C-10.41220197 3.40821827 -6.3294023 0 0 0 Z " fill="#BD1E47" transform="translate(732,190)"/>
<path d="M0 0 C0.99 0 1.98 0 3 0 C3 0.99 3 1.98 3 3 C3.639375 3.103125 4.27875 3.20625 4.9375 3.3125 C5.618125 3.539375 6.29875 3.76625 7 4 C7.33 4.99 7.66 5.98 8 7 C10.31 7 12.62 7 15 7 C15.66 8.32 16.32 9.64 17 11 C9.14820601 10.17349537 1.91942657 6.64180346 -5 3 C-5 2.67 -5 2.34 -5 2 C-3.35 1.67 -1.7 1.34 0 1 C0 0.67 0 0.34 0 0 Z " fill="#C12046" transform="translate(509,272)"/>
<path d="M0 0 C1.45792884 -0.05399736 2.91642712 -0.09279177 4.375 -0.125 C5.18710937 -0.14820313 5.99921875 -0.17140625 6.8359375 -0.1953125 C9 0 9 0 11 2 C13.58354218 2.16687448 13.58354218 2.16687448 16 2 C16.66 3.65 17.32 5.3 18 7 C19.32 7 20.64 7 22 7 C22 7.66 22 8.32 22 9 C14.21898625 7.44379725 7.20559099 4.21822743 0 1 C0 0.67 0 0.34 0 0 Z " fill="#C12D53" transform="translate(622,220)"/>
<path d="M0 0 C-0.33 0.66 -0.66 1.32 -1 2 C-2.32 2 -3.64 2 -5 2 C-5.33 2.99 -5.66 3.98 -6 5 C-2.535 4.505 -2.535 4.505 1 4 C-2.90869534 7.15702316 -6.8614939 10 -12 10 C-12 9.34 -12 8.68 -12 8 C-11.01 8 -10.02 8 -9 8 C-9 7.01 -9 6.02 -9 5 C-9.99 4.67 -10.98 4.34 -12 4 C-11.67 3.01 -11.34 2.02 -11 1 C-9.2578125 0.234375 -9.2578125 0.234375 -7.125 -0.25 C-6.07699219 -0.50523437 -6.07699219 -0.50523437 -5.0078125 -0.765625 C-3 -1 -3 -1 0 0 Z " fill="#D00832" transform="translate(889,289)"/>
<path d="M0 0 C0 0.66 0 1.32 0 2 C-1.98 2.99 -1.98 2.99 -4 4 C-4 5.32 -4 6.64 -4 8 C-8.29 7.67 -12.58 7.34 -17 7 C-17 7.66 -17 8.32 -17 9 C-18.65 9 -20.3 9 -22 9 C-18.36719452 5.83318266 -14.33689782 4.42884044 -9.875 2.8125 C-9.14667969 2.53986328 -8.41835938 2.26722656 -7.66796875 1.98632812 C-2.28148496 0 -2.28148496 0 0 0 Z " fill="#C22348" transform="translate(964,94)"/>
<path d="M0 0 C-0.5625 1.8125 -0.5625 1.8125 -2 4 C-5.28443398 5.6123585 -8.53291282 6.84430427 -12 8 C-12 8.66 -12 9.32 -12 10 C-14.97 9.67 -17.94 9.34 -21 9 C-17.46508194 6.64338796 -13.82228242 5.06493187 -9.9375 3.375 C-8.83825195 2.88773437 -8.83825195 2.88773437 -7.71679688 2.390625 C-2.24748884 0 -2.24748884 0 0 0 Z " fill="#FBE5EA" transform="translate(818,324)"/>
<path d="M0 0 C0 0.66 0 1.32 0 2 C-1.32 2 -2.64 2 -4 2 C-4 2.66 -4 3.32 -4 4 C-4.66 4 -5.32 4 -6 4 C-6 4.66 -6 5.32 -6 6 C-9.3 6.66 -12.6 7.32 -16 8 C-16 8.66 -16 9.32 -16 10 C-19.3 10.33 -22.6 10.66 -26 11 C-23.927059 8.927059 -22.70135268 8.35662264 -20.0078125 7.34375 C-19.22019531 7.04339844 -18.43257812 6.74304688 -17.62109375 6.43359375 C-16.79738281 6.12550781 -15.97367188 5.81742188 -15.125 5.5 C-13.50193569 4.88718425 -11.8795166 4.27265629 -10.2578125 3.65625 C-9.17717529 3.25116211 -9.17717529 3.25116211 -8.07470703 2.83789062 C-5.95923452 2.02050796 -5.95923452 2.02050796 -3.85888672 0.89648438 C-2 0 -2 0 0 0 Z " fill="#BB2A4C" transform="translate(928,212)"/>
<path d="M0 0 C4.66658239 -0.42423476 7.80525342 1.05243909 12 3 C13.6642135 3.67276716 15.32986582 4.34206835 17 5 C17 5.66 17 6.32 17 7 C18.32 6.34 19.64 5.68 21 5 C20.67 4.34 20.34 3.68 20 3 C20.99 3 21.98 3 23 3 C23.33 4.98 23.66 6.96 24 9 C20.21263148 10.26245617 19.44176707 9.53185982 15.9375 7.8125 C10.7019337 5.31338968 5.40660483 3.09931077 0 1 C0 0.67 0 0.34 0 0 Z " fill="#C1254B" transform="translate(456,151)"/>
<path d="M0 0 C4.24249519 1.36944838 8.36708799 2.91223603 12.4921875 4.6015625 C14.29042969 5.33632812 14.29042969 5.33632812 16.125 6.0859375 C17.37501726 6.59891628 18.62501704 7.11193764 19.875 7.625 C21.14836505 8.14601043 22.4218019 8.66684543 23.6953125 9.1875 C26.79758479 10.45661139 29.89911627 11.72750049 33 13 C29.02392985 14.18625428 27.12348218 13.57298769 23.25 12 C21.55037109 11.31357422 21.55037109 11.31357422 19.81640625 10.61328125 C13.17409822 7.82677772 6.57965164 4.93085894 0 2 C0 1.34 0 0.68 0 0 Z " fill="#B32146" transform="translate(566,131)"/>
<path d="M0 0 C0.66 0.33 1.32 0.66 2 1 C-0.47136952 4.0892119 -2.3327345 5.2415469 -6.125 6 C-9.38824151 6.59090992 -9.38824151 6.59090992 -11.5 9.125 C-11.665 9.74375 -11.83 10.3625 -12 11 C-12.66 11 -13.32 11 -14 11 C-14 10.34 -14 9.68 -14 9 C-14.9075 9.350625 -15.815 9.70125 -16.75 10.0625 C-20.00591313 11.00170571 -20.92749994 10.95514676 -24 10 C-23.41508789 9.76812988 -22.83017578 9.53625977 -22.22753906 9.29736328 C-19.56763039 8.24173511 -16.9088084 7.18339618 -14.25 6.125 C-13.32960938 5.76019531 -12.40921875 5.39539063 -11.4609375 5.01953125 C-10.57148437 4.66503906 -9.68203125 4.31054688 -8.765625 3.9453125 C-7.94868164 3.62062988 -7.13173828 3.29594727 -6.29003906 2.96142578 C-3.98320889 2.038427 -3.98320889 2.038427 -1.82714844 0.81591797 C-0.92270996 0.41203857 -0.92270996 0.41203857 0 0 Z " fill="#FBD6E0" transform="translate(974,155)"/>
<path d="M0 0 C6.26521225 0.36557577 11.41928833 1.03153635 17 4 C17.33 4.66 17.66 5.32 18 6 C20.32156597 6.40729228 22.6568787 6.74438677 25 7 C25.33 8.32 25.66 9.64 26 11 C17.09945121 8.24892128 8.58356509 4.59701637 0 1 C0 0.67 0 0.34 0 0 Z " fill="#F8C8D8" transform="translate(572,133)"/>
<path d="M0 0 C8.05406676 3.20097525 16.04348043 6.56423019 24 10 C24 10.33 24 10.66 24 11 C20.37 11.33 16.74 11.66 13 12 C13 10.35 13 8.7 13 7 C12.36191406 6.89042969 11.72382813 6.78085938 11.06640625 6.66796875 C10.24011719 6.50941406 9.41382813 6.35085937 8.5625 6.1875 C7.73878906 6.03667969 6.91507812 5.88585937 6.06640625 5.73046875 C5.38449219 5.48941406 4.70257813 5.24835938 4 5 C3.67 4.01 3.34 3.02 3 2 C2.01 1.67 1.02 1.34 0 1 C0 0.67 0 0.34 0 0 Z " fill="#BD163E" transform="translate(444,80)"/>
<path d="M0 0 C6.86036401 0.65965039 13.34443923 2.2362764 20 4 C19.67 4.99 19.34 5.98 19 7 C20.32 7 21.64 7 23 7 C23.33 7.99 23.66 8.98 24 10 C18.7899075 8.33074706 13.71535903 6.37217436 8.625 4.375 C7.79355469 4.05015625 6.96210938 3.7253125 6.10546875 3.390625 C4.06979076 2.59507268 2.03465416 1.79816631 0 1 C0 0.67 0 0.34 0 0 Z " fill="#F9D3DC" transform="translate(456,85)"/>
<path d="M0 0 C0.5775 0.4125 1.155 0.825 1.75 1.25 C3.0742287 1.61784131 4.40613912 1.96202981 5.75 2.25 C5.42 3.24 5.09 4.23 4.75 5.25 C4.75 4.59 4.75 3.93 4.75 3.25 C3.76 3.25 2.77 3.25 1.75 3.25 C1.75 3.91 1.75 4.57 1.75 5.25 C-0.2414056 5.63133299 -2.24279077 5.96325582 -4.25 6.25 C-4.58 5.92 -4.91 5.59 -5.25 5.25 C-7.57817964 4.88239269 -9.9118385 4.54758419 -12.25 4.25 C-9.13553122 1.13553122 -4.37788786 -1.45929595 0 0 Z " fill="#CC1F47" transform="translate(898.25,121.75)"/>
<path d="M0 0 C0.66 0.33 1.32 0.66 2 1 C1.67 1.66 1.34 2.32 1 3 C0.34 3 -0.32 3 -1 3 C-1 3.66 -1 4.32 -1 5 C-6 7.5 -6 7.5 -11 10 C-11 9.34 -11 8.68 -11 8 C-12.65 8 -14.3 8 -16 8 C-13.40604829 5.40604829 -10.87398799 4.70119207 -7.4375 3.4375 C-3.4292967 2.2183153 -3.4292967 2.2183153 0 0 Z " fill="#C12346" transform="translate(811,156)"/>
<path d="M0 0 C1.66611905 -0.042721 3.33382885 -0.04063832 5 0 C5.33 0.33 5.66 0.66 6 1 C7.68183948 1.23287008 9.3712416 1.41264166 11.0625 1.5625 C11.98160156 1.64628906 12.90070312 1.73007813 13.84765625 1.81640625 C14.91306641 1.90728516 14.91306641 1.90728516 16 2 C16.33 2.99 16.66 3.98 17 5 C19.475 5.495 19.475 5.495 22 6 C21.67 6.99 21.34 7.98 21 9 C13.81783567 6.72564796 6.9241798 3.96415819 0 1 C0 0.67 0 0.34 0 0 Z " fill="#C02C4F" transform="translate(656,234)"/>
<path d="M0 0 C1.17949219 0.01804687 2.35898437 0.03609375 3.57421875 0.0546875 C4.92966797 0.08949219 4.92966797 0.08949219 6.3125 0.125 C2.00772898 4.42977102 -3.68875305 6.52512531 -9.6875 7.125 C-9.6875 6.465 -9.6875 5.805 -9.6875 5.125 C-9.0275 5.125 -8.3675 5.125 -7.6875 5.125 C-7.6875 4.465 -7.6875 3.805 -7.6875 3.125 C-8.3475 2.795 -9.0075 2.465 -9.6875 2.125 C-6.05554504 -0.29630331 -4.30400652 -0.08522785 0 0 Z " fill="#C51D45" transform="translate(953.6875,263.875)"/>
<path d="M0 0 C2.18359375 0.75 2.18359375 0.75 5 2 C6.68802734 2.7115625 6.68802734 2.7115625 8.41015625 3.4375 C9.61542969 3.953125 10.82070313 4.46875 12.0625 5 C13.27035156 5.515625 14.47820313 6.03125 15.72265625 6.5625 C18.19270958 7.64590837 20.60725924 8.75887761 23 10 C20.36 10 17.72 10 15 10 C14.67 9.01 14.34 8.02 14 7 C13.31292969 6.86722656 12.62585938 6.73445312 11.91796875 6.59765625 C11.01691406 6.42105469 10.11585938 6.24445313 9.1875 6.0625 C8.29417969 5.88847656 7.40085937 5.71445313 6.48046875 5.53515625 C4 5 4 5 1 4 C1 3.34 1 2.68 1 2 C0.01 1.67 -0.98 1.34 -2 1 C-1.34 0.67 -0.68 0.34 0 0 Z " fill="#FCDCE6" transform="translate(619,219)"/>
<path d="M0 0 C5.95703125 -0.29296875 5.95703125 -0.29296875 8 0 C9.00814071 0.99179248 10.00750907 1.9925469 11 3 C13.55009356 3.85554192 16.10434394 4.44726973 18.72265625 5.05859375 C21 6 21 6 22.30859375 8.09765625 C22.65083984 9.03931641 22.65083984 9.03931641 23 10 C22.36707031 9.74476563 21.73414063 9.48953125 21.08203125 9.2265625 C16.95957973 7.58594174 12.82350494 5.98108874 8.6875 4.375 C7.85154297 4.05015625 7.01558594 3.7253125 6.15429688 3.390625 C4.10294987 2.59353017 2.05151525 1.79666167 0 1 C0 0.67 0 0.34 0 0 Z " fill="#F6C7D1" transform="translate(646,267)"/>
<path d="M0 0 C0.48984375 0.38929688 0.9796875 0.77859375 1.484375 1.1796875 C-3.77165594 5.65704719 -8.92239512 5.29143716 -15.515625 5.1796875 C-15.845625 5.8396875 -16.175625 6.4996875 -16.515625 7.1796875 C-17.175625 6.5196875 -17.835625 5.8596875 -18.515625 5.1796875 C-15.93870143 4.11895385 -13.35620176 3.08105788 -10.765625 2.0546875 C-10.03601563 1.75175781 -9.30640625 1.44882813 -8.5546875 1.13671875 C-3.07865904 -1.00391056 -3.07865904 -1.00391056 0 0 Z " fill="#C02348" transform="translate(946.515625,205.8203125)"/>
<path d="M0 0 C1.6045556 0.14148989 3.20863767 0.28835686 4.8125 0.4375 C5.70582031 0.51871094 6.59914063 0.59992188 7.51953125 0.68359375 C10 1 10 1 13 2 C13 2.66 13 3.32 13 4 C13.598125 4.103125 14.19625 4.20625 14.8125 4.3125 C17.28243264 5.08876455 18.32251235 6.07088921 20 8 C19.01 8.495 19.01 8.495 18 9 C15.86099 8.14497963 13.76131525 7.1903529 11.6875 6.1875 C7.82741798 4.33448457 3.99743921 2.53747662 0 1 C0 0.67 0 0.34 0 0 Z " fill="#BD1C41" transform="translate(448,251)"/>
<path d="M0 0 C0.66 0.33 1.32 0.66 2 1 C1.01 2.485 1.01 2.485 0 4 C0.99 4.66 1.98 5.32 3 6 C3 6.66 3 7.32 3 8 C-2.42142857 8.36964286 -2.42142857 8.36964286 -5.25 6.5625 C-5.8275 6.046875 -6.405 5.53125 -7 5 C-7.66 4.67 -8.32 4.34 -9 4 C-7.54618103 3.30300448 -6.08677047 2.61766134 -4.625 1.9375 C-3.40683594 1.36322266 -3.40683594 1.36322266 -2.1640625 0.77734375 C-1.44992187 0.52082031 -0.73578125 0.26429688 0 0 Z " fill="#F3FDFB" transform="translate(845,312)"/>
<path d="M0 0 C8.64426599 0.89423441 15.67928646 3.19144711 23 8 C23.33 8.66 23.66 9.32 24 10 C18.7899075 8.33074706 13.71535903 6.37217436 8.625 4.375 C7.79355469 4.05015625 6.96210937 3.7253125 6.10546875 3.390625 C4.06979076 2.59507268 2.03465416 1.79816631 0 1 C0 0.67 0 0.34 0 0 Z " fill="#BB2F50" transform="translate(664,341)"/>
<path d="M0 0 C5.28 0.66 10.56 1.32 16 2 C16 3.65 16 5.3 16 7 C12.83272725 6.28552219 9.8930968 5.25622485 6.875 4.0625 C6.00617188 3.72347656 5.13734375 3.38445312 4.2421875 3.03515625 C2 2 2 2 0 0 Z " fill="#C21C44" transform="translate(480,264)"/>
<path d="M0 0 C-0.33 4.29 -0.66 8.58 -1 13 C-1.33 13 -1.66 13 -2 13 C-2 9.7 -2 6.4 -2 3 C-4.31 3.33 -6.62 3.66 -9 4 C-9 4.66 -9 5.32 -9 6 C-10.98 6 -12.96 6 -15 6 C-12.61827612 3.26455475 -10.29334709 2.07454642 -6.9375 0.75 C-6.05964844 0.39421875 -5.18179688 0.0384375 -4.27734375 -0.328125 C-2 -1 -2 -1 0 0 Z " fill="#B02E4B" transform="translate(999,80)"/>
<path d="M0 0 C-3.26669046 1.5091441 -6.53898816 3.00571701 -9.8125 4.5 C-10.74126953 4.92925781 -11.67003906 5.35851562 -12.62695312 5.80078125 C-13.9659668 6.40986328 -13.9659668 6.40986328 -15.33203125 7.03125 C-16.56530151 7.59682617 -16.56530151 7.59682617 -17.82348633 8.17382812 C-20 9 -20 9 -23 9 C-23 8.34 -23 7.68 -23 7 C-19.7 5.68 -16.4 4.36 -13 3 C-13 2.34 -13 1.68 -13 1 C-11.39796533 0.63631108 -9.79325797 0.28438048 -8.1875 -0.0625 C-7.29417969 -0.25972656 -6.40085937 -0.45695312 -5.48046875 -0.66015625 C-3 -1 -3 -1 0 0 Z " fill="#B8284B" transform="translate(762,347)"/>
<path d="M0 0 C-1.76755526 0.84026396 -3.53917263 1.67198722 -5.3125 2.5 C-6.79169922 3.19609375 -6.79169922 3.19609375 -8.30078125 3.90625 C-11 5 -11 5 -14 5 C-14 3.35 -14 1.7 -14 0 C-9.30204596 -3.07173918 -5.07712783 -1.28022404 0 0 Z " fill="#FAE2E7" transform="translate(875,234)"/>
<path d="M0 0 C0.66 0.33 1.32 0.66 2 1 C1.38511719 1.33773437 0.77023437 1.67546875 0.13671875 2.0234375 C-0.67152344 2.46945313 -1.47976563 2.91546875 -2.3125 3.375 C-3.11300781 3.81585938 -3.91351562 4.25671875 -4.73828125 4.7109375 C-6.53527943 5.73513335 -8.27900708 6.85267138 -10 8 C-12.5625 8.75 -12.5625 8.75 -15 9 C-15.66 8.34 -16.32 7.68 -17 7 C-14.72979898 6.01934513 -12.45887746 5.0404231 -10.1875 4.0625 C-9.54490234 3.78470703 -8.90230469 3.50691406 -8.24023438 3.22070312 C-5.51362285 2.0481189 -2.81731354 0.93910451 0 0 Z " fill="#F5C0CE" transform="translate(755,246)"/>
<path d="M0 0 C-0.33 0.99 -0.66 1.98 -1 3 C-1.99 3.33 -2.98 3.66 -4 4 C-4.99 5.485 -4.99 5.485 -6 7 C-8.3828125 7.29296875 -8.3828125 7.29296875 -11.125 7.1875 C-12.03507813 7.16042969 -12.94515625 7.13335937 -13.8828125 7.10546875 C-14.58148437 7.07066406 -15.28015625 7.03585938 -16 7 C-13.10357159 4.64917788 -10.34643669 3.16480594 -6.875 1.8125 C-5.57175781 1.29623047 -5.57175781 1.29623047 -4.2421875 0.76953125 C-2 0 -2 0 0 0 Z " fill="#F8CCD5" transform="translate(848,208)"/>
<path d="M0 0 C1.66870487 0.32297514 3.33465333 0.66013333 5 1 C5.71285156 1.1340625 6.42570312 1.268125 7.16015625 1.40625 C11.60430498 2.2965636 15.34893506 3.14760552 19 6 C19.33 6.99 19.66 7.98 20 9 C13.06001352 6.83836487 6.56882431 4.1063786 0 1 C0 0.67 0 0.34 0 0 Z " fill="#BB2B4E" transform="translate(488,164)"/>
<path d="M0 0 C-1.8125 2 -1.8125 2 -4 4 C-4.99 4 -5.98 4 -7 4 C-7 4.66 -7 5.32 -7 6 C-10.47823115 7.15941038 -12.45895578 6.70820884 -16 6 C-13.10600531 3.65788337 -10.32844572 2.13137829 -6.875 0.75 C-6.00617187 0.39421875 -5.13734375 0.0384375 -4.2421875 -0.328125 C-2 -1 -2 -1 0 0 Z " fill="#FAD5DE" transform="translate(866,305)"/>
<path d="M0 0 C0 0.99 0 1.98 0 3 C-5.625 5 -5.625 5 -9 5 C-9.99 6.485 -9.99 6.485 -11 8 C-12.9453125 8.29296875 -12.9453125 8.29296875 -15.125 8.1875 C-17.043125 8.0946875 -17.043125 8.0946875 -19 8 C-16.27227952 5.27227952 -13.02994255 4.2539869 -9.5 2.875 C-8.81035156 2.59785156 -8.12070312 2.32070313 -7.41015625 2.03515625 C-2.26712592 0 -2.26712592 0 0 0 Z " fill="#F9D7DE" transform="translate(886,296)"/>
<path d="M0 0 C5.79762553 -0.44597119 12.20610274 0.66250097 16.76953125 4.48046875 C18 6 18 6 18 8 C13.78224268 6.64474464 9.70578678 5.09799886 5.625 3.375 C4.56539062 2.92898438 3.50578125 2.48296875 2.4140625 2.0234375 C1.61742187 1.68570312 0.82078125 1.34796875 0 1 C0 0.67 0 0.34 0 0 Z " fill="#BC294D" transform="translate(544,291)"/>
<path d="M0 0 C5.57082917 0.57136709 9.99780115 2.66333271 15 5 C16.35163553 5.58917446 17.70555431 6.17316074 19.0625 6.75 C20.5165625 7.36875 20.5165625 7.36875 22 8 C18.21180727 9.43410153 15.93478721 8.51009497 12.25 7.0625 C11.26515625 6.68222656 10.2803125 6.30195313 9.265625 5.91015625 C8.51796875 5.60980469 7.7703125 5.30945313 7 5 C7 4.34 7 3.68 7 3 C5.02 3 3.04 3 1 3 C0.67 2.01 0.34 1.02 0 0 Z " fill="#B61E41" transform="translate(650,270)"/>
<path d="M0 0 C1.4540625 0.0309375 1.4540625 0.0309375 2.9375 0.0625 C-0.40056264 2.2878751 -3.88248871 3.98106131 -7.5 5.6875 C-8.16837891 6.01234375 -8.83675781 6.3371875 -9.52539062 6.671875 C-13.01479326 8.31801539 -15.13655132 9.0625 -19.0625 9.0625 C-19.0625 8.4025 -19.0625 7.7425 -19.0625 7.0625 C-17.99128906 6.64097656 -16.92007813 6.21945312 -15.81640625 5.78515625 C-14.41921698 5.23190681 -13.02208449 4.67851398 -11.625 4.125 C-10.56442383 3.70831055 -10.56442383 3.70831055 -9.48242188 3.28320312 C-1.28090372 0.02614089 -1.28090372 0.02614089 0 0 Z " fill="#B52649" transform="translate(989.0625,250.9375)"/>
<path d="M0 0 C5.61 1.98 11.22 3.96 17 6 C17 6.33 17 6.66 17 7 C13.7 7 10.4 7 7 7 C6.67 6.34 6.34 5.68 6 5 C3.97536745 4.34786708 3.97536745 4.34786708 2 4 C2 3.34 2 2.68 2 2 C1.34 2 0.68 2 0 2 C0 1.34 0 0.68 0 0 Z " fill="#C1284E" transform="translate(577,239)"/>
<path d="M0 0 C0.66 0.33 1.32 0.66 2 1 C1.01 1.33 0.02 1.66 -1 2 C-1 3.32 -1 4.64 -1 6 C-2.98 6.99 -2.98 6.99 -5 8 C-5.33 7.01 -5.66 6.02 -6 5 C-6.7425 5.350625 -7.485 5.70125 -8.25 6.0625 C-11.21122875 7.0720098 -12.12062561 6.87980884 -15 6 C-12.54524486 4.96971956 -10.08685649 3.95054496 -7.625 2.9375 C-6.57699219 2.49567383 -6.57699219 2.49567383 -5.5078125 2.04492188 C-3.69495092 1.30408902 -1.84876857 0.64603036 0 0 Z " fill="#F7D4DB" transform="translate(791,231)"/>
<path d="M0 0 C-0.66 1.32 -1.32 2.64 -2 4 C-4.475 3.505 -4.475 3.505 -7 3 C-7.33 3.99 -7.66 4.98 -8 6 C-8.78375 5.95875 -9.5675 5.9175 -10.375 5.875 C-13.16116119 5.71271266 -13.16116119 5.71271266 -15 8 C-17.625 8.125 -17.625 8.125 -20 8 C-17.28500494 5.28500494 -14.0732495 4.2555205 -10.5625 2.875 C-9.88123047 2.59785156 -9.19996094 2.32070312 -8.49804688 2.03515625 C-5.52159169 0.85157074 -3.23200972 0 0 0 Z " fill="#F7C2D3" transform="translate(888,192)"/>
<path d="M0 0 C1.65 0 3.3 0 5 0 C5 0.66 5 1.32 5 2 C6.08667969 2.16435547 6.08667969 2.16435547 7.1953125 2.33203125 C12.66287223 3.22871105 17.22286803 4.15954315 22 7 C22 7.66 22 8.32 22 9 C14.39162534 6.92957946 7.2271408 4.14169523 0 1 C0 0.67 0 0.34 0 0 Z " fill="#BC3656" transform="translate(518,177)"/>
<path d="M0 0 C8.14385151 -0.62645012 8.14385151 -0.62645012 11.5625 1.875 C13 4 13 4 13 6 C7.71862571 5.48474397 4.42778844 3.74522883 0 1 C0 0.67 0 0.34 0 0 Z " fill="#BF1339" transform="translate(507,171)"/>
<path d="M0 0 C0.66 0.33 1.32 0.66 2 1 C1.67 1.99 1.34 2.98 1 4 C-1.9375 5 -1.9375 5 -3.8125 5.4609375 C-6.38380408 6.09458029 -8.90388933 6.85483994 -11.4375 7.625 C-12.30246094 7.88539062 -13.16742187 8.14578125 -14.05859375 8.4140625 C-15.01958984 8.70410156 -15.01958984 8.70410156 -16 9 C-16.66 8.34 -17.32 7.68 -18 7 C-16.55367187 6.49339844 -16.55367187 6.49339844 -15.078125 5.9765625 C-13.80203525 5.52617788 -12.52599624 5.07564947 -11.25 4.625 C-10.29867187 4.29242188 -10.29867187 4.29242188 -9.328125 3.953125 C-6.68855839 3.01827849 -4.15220186 2.08018689 -1.671875 0.7734375 C-1.12015625 0.51820312 -0.5684375 0.26296875 0 0 Z " fill="#B62C4E" transform="translate(940,103)"/>
<path d="M0 0 C1.98 0 3.96 0 6 0 C2.6122194 2.91725552 -1.07337555 4.28255824 -5.25 5.6875 C-6.22453125 6.02491211 -6.22453125 6.02491211 -7.21875 6.36914062 C-8.81030199 6.91916227 -10.40486156 7.46046788 -12 8 C-11.67 6.68 -11.34 5.36 -11 4 C-4.375 2 -4.375 2 -1 2 C-0.67 1.34 -0.34 0.68 0 0 Z " fill="#FDDAE4" transform="translate(816,255)"/>
<path d="M0 0 C0.268125 0.804375 0.53625 1.60875 0.8125 2.4375 C1.204375 3.283125 1.59625 4.12875 2 5 C2.99 5.33 3.98 5.66 5 6 C5 6.66 5 7.32 5 8 C3.41375765 7.57316761 1.8310902 7.13303842 0.25 6.6875 C-0.63171875 6.44386719 -1.5134375 6.20023437 -2.421875 5.94921875 C-5.05772505 4.97874669 -6.85407326 3.78994356 -9 2 C-3.375 0 -3.375 0 0 0 Z " fill="#F9E3E9" transform="translate(619,250)"/>
<path d="M0 0 C-4.10168099 3.70474412 -8.70739435 6.38446682 -14 8 C-14.99 7.67 -15.98 7.34 -17 7 C-16.34 7 -15.68 7 -15 7 C-14.67 6.01 -14.34 5.02 -14 4 C-11.34765625 2.578125 -11.34765625 2.578125 -8.0625 1.25 C-6.98097656 0.80140625 -5.89945313 0.3528125 -4.78515625 -0.109375 C-2 -1 -2 -1 0 0 Z " fill="#BF2146" transform="translate(902,224)"/>
<path d="M0 0 C5.41798672 0.69165788 10.6822785 1.75799248 16 3 C16 4.32 16 5.64 16 7 C10.53262809 5.25192871 5.24175152 3.34205919 0 1 C0 0.67 0 0.34 0 0 Z " fill="#C52A51" transform="translate(598,210)"/>
<path d="M0 0 C0.66 0.33 1.32 0.66 2 1 C1.38125 1.0825 0.7625 1.165 0.125 1.25 C-0.57625 1.4975 -1.2775 1.745 -2 2 C-2.433125 2.9590625 -2.433125 2.9590625 -2.875 3.9375 C-4 6 -4 6 -6.75 7.25 C-9.9622645 7.99129181 -12.71712109 8.15632757 -16 8 C-13.7277937 5.39385923 -11.86062009 4.41080694 -8.5625 3.4375 C-6.16151547 2.71842341 -4.0553958 2.0295511 -1.83984375 0.84765625 C-1.23269531 0.56792969 -0.62554688 0.28820312 0 0 Z " fill="#F7CAD7" transform="translate(904,184)"/>
<path d="M0 0 C0.99 0.33 1.98 0.66 3 1 C3 1.66 3 2.32 3 3 C4.98 3 6.96 3 9 3 C9.33 3.99 9.66 4.98 10 6 C10.99 6 11.98 6 13 6 C13 6.66 13 7.32 13 8 C7.14340094 6.33846988 1.5409866 4.52958084 -4 2 C-3.34 1.67 -2.68 1.34 -2 1 C-1.34 1.33 -0.68 1.66 0 2 C0 1.34 0 0.68 0 0 Z " fill="#F6C6D1" transform="translate(605,144)"/>
<path d="M0 0 C-0.99 1.485 -0.99 1.485 -2 3 C-2.99 3 -3.98 3 -5 3 C-5 3.66 -5 4.32 -5 5 C-6.60875 4.938125 -6.60875 4.938125 -8.25 4.875 C-11.82321958 4.99410732 -12.99141147 5.44383352 -16 7 C-18.11328125 6.55859375 -18.11328125 6.55859375 -20 6 C-17.04657157 4.80003066 -14.08658106 3.61718896 -11.125 2.4375 C-10.28324219 2.09525391 -9.44148437 1.75300781 -8.57421875 1.40039062 C-7.76855469 1.08134766 -6.96289062 0.76230469 -6.1328125 0.43359375 C-5.38918457 0.13509521 -4.64555664 -0.16340332 -3.87939453 -0.47094727 C-2 -1 -2 -1 0 0 Z " fill="#F9D0DA" transform="translate(930,279)"/>
<path d="M0 0 C0.66 0.33 1.32 0.66 2 1 C-4.75 5 -4.75 5 -7 5 C-7 5.66 -7 6.32 -7 7 C-6.34 7.33 -5.68 7.66 -5 8 C-5.66 8 -6.32 8 -7 8 C-7 8.66 -7 9.32 -7 10 C-9.46800047 8.84826645 -11.04783565 7.95216435 -13 6 C-10.87959258 4.96966118 -8.75352092 3.95097146 -6.625 2.9375 C-5.44164062 2.36902344 -4.25828125 1.80054688 -3.0390625 1.21484375 C-2.03617188 0.81394531 -1.03328125 0.41304687 0 0 Z " fill="#FAD5E1" transform="translate(933,172)"/>
<path d="M0 0 C0.66 0 1.32 0 2 0 C2.66666667 1.33333333 3.33333333 2.66666667 4 4 C4.66 4 5.32 4 6 4 C6 3.34 6 2.68 6 2 C9.52948291 0.33329974 11.28272326 -0.13583456 15 1 C13.25197854 1.81674796 11.50149811 2.62823451 9.75 3.4375 C8.28820312 4.11619141 8.28820312 4.11619141 6.796875 4.80859375 C4.50748305 5.78382356 2.42621254 6.4974274 0 7 C-1.125 2.25 -1.125 2.25 0 0 Z " fill="#BF1E45" transform="translate(961,154)"/>
<path d="M0 0 C3.37462715 0.54723683 5.08235 1.0549 8 3 C5.90049414 3.86555948 3.7952093 4.71711277 1.6875 5.5625 C-0.07013672 6.27599609 -0.07013672 6.27599609 -1.86328125 7.00390625 C-5 8 -5 8 -8 7 C-5.4345406 4.4345406 -3.52313332 4.45953913 0 4 C0 2.68 0 1.36 0 0 Z " fill="#C12247" transform="translate(984,146)"/>
<path d="M0 0 C0.66 0.33 1.32 0.66 2 1 C1.505 1.45375 1.01 1.9075 0.5 2.375 C-1.22609337 3.87635519 -1.22609337 3.87635519 -1 6 C-2.36125 5.938125 -2.36125 5.938125 -3.75 5.875 C-6.91083821 5.77279857 -6.91083821 5.77279857 -9.125 7.0625 C-11.51724125 8.25862062 -12.50688533 7.7396585 -15 7 C-12.54595776 5.80283341 -10.08748321 4.6170654 -7.625 3.4375 C-6.57699219 2.92413086 -6.57699219 2.92413086 -5.5078125 2.40039062 C-3.69947784 1.53969288 -1.85148044 0.76347564 0 0 Z " fill="#B52044" transform="translate(766,175)"/>
<path d="M0 0 C3.0645083 0.51075138 6.12796299 1.0225817 9.1875 1.5625 C12.01967084 2.0768535 12.01967084 2.0768535 15 2 C15.66 3.65 16.32 5.3 17 7 C11.14340094 5.33846988 5.5409866 3.52958084 0 1 C0 0.67 0 0.34 0 0 Z " fill="#F3C4CE" transform="translate(678,177)"/>
<path d="M0 0 C-3.72965139 2.03435531 -5.66905042 3 -10 3 C-10.33 3.99 -10.66 4.98 -11 6 C-15.455 6.495 -15.455 6.495 -20 7 C-18.37023436 3.74046872 -14.92336759 3.09897682 -11.6875 1.8125 C-11.01009766 1.52697266 -10.33269531 1.24144531 -9.63476562 0.94726562 C-3.45378521 -1.53600216 -3.45378521 -1.53600216 0 0 Z " fill="#F9C4D4" transform="translate(974,261)"/>
<path d="M0 0 C2.64 0 5.28 0 8 0 C8 0.66 8 1.32 8 2 C8.9075 2.103125 9.815 2.20625 10.75 2.3125 C14.01961575 3.00414949 15.53717737 3.82134921 18 6 C13.82356045 7.39214652 11.16562207 5.70664266 7.3125 4.0625 C6.61060547 3.77181641 5.90871094 3.48113281 5.18554688 3.18164062 C3.45349225 2.46289687 1.72626219 1.73254669 0 1 C0 0.67 0 0.34 0 0 Z " fill="#BF3655" transform="translate(694,250)"/>
<path d="M0 0 C0.66 0.33 1.32 0.66 2 1 C-4.21423903 5.90834822 -9.04675198 7.96679228 -17 8 C-13.78379515 5.85586343 -10.46863154 4.33918454 -6.9375 2.8125 C-6.30005859 2.52697266 -5.66261719 2.24144531 -5.00585938 1.94726562 C-3.36290102 1.23572097 -1.68293027 0.61102673 0 0 Z " fill="#F8C9D5" transform="translate(774,238)"/>
<path d="M0 0 C1.65 1.65 3.3 3.3 5 5 C4.67 5.66 4.34 6.32 4 7 C2.53932801 6.54917531 1.08151968 6.08906463 -0.375 5.625 C-1.18710937 5.36976563 -1.99921875 5.11453125 -2.8359375 4.8515625 C-5 4 -5 4 -7 2 C-4.69 1.34 -2.38 0.68 0 0 Z " fill="#C51941" transform="translate(567,192)"/>
<path d="M0 0 C-4.56648865 4.56648865 -12.91230172 6.01304292 -19 8 C-19 7.34 -19 6.68 -19 6 C-12.99076366 1.81174437 -7.36115732 -0.4506831 0 0 Z " fill="#B72649" transform="translate(900,186)"/>
<path d="M0 0 C3.78716158 1.50362259 7.55245187 3.05487001 11.3125 4.625 C12.38113281 5.07101563 13.44976563 5.51703125 14.55078125 5.9765625 C15.76314453 6.48316406 15.76314453 6.48316406 17 7 C16.67 7.66 16.34 8.32 16 9 C9.79522136 7.06375702 3.89174281 4.74390859 -2 2 C-1.34 1.34 -0.68 0.68 0 0 Z " fill="#B7284B" transform="translate(543,185)"/>
<path d="M0 0 C0.66 0.33 1.32 0.66 2 1 C0.39967863 1.84069415 -1.20541171 2.67231505 -2.8125 3.5 C-4.15248047 4.19609375 -4.15248047 4.19609375 -5.51953125 4.90625 C-8 6 -8 6 -11 6 C-11.33 6.99 -11.66 7.98 -12 9 C-13.9375 9.8125 -13.9375 9.8125 -16 10 C-16.66 9.34 -17.32 8.68 -18 8 C-15.56343315 6.85214624 -13.12580719 5.70664598 -10.6875 4.5625 C-9.99720703 4.23701172 -9.30691406 3.91152344 -8.59570312 3.57617188 C-5.75522197 2.24512515 -2.97876197 0.99292066 0 0 Z " fill="#F7C1D1" transform="translate(992,251)"/>
<path d="M0 0 C4.72224516 1.53472968 9.35855331 3.23945126 14 5 C14 5.33 14 5.66 14 6 C10.04 6 6.08 6 2 6 C1.34 4.02 0.68 2.04 0 0 Z " fill="#C52049" transform="translate(464,192)"/>
<path d="M0 0 C-2.43707838 0.9802271 -4.87463945 1.95922171 -7.3125 2.9375 C-8.34793945 3.35418945 -8.34793945 3.35418945 -9.40429688 3.77929688 C-12.25267773 4.92140128 -15.08790694 6.02930231 -18 7 C-18 6.01 -18 5.02 -18 4 C-14.86501708 2.14223235 -12.62528568 1.79859524 -9 2 C-9 1.34 -9 0.68 -9 0 C-3.375 -1.125 -3.375 -1.125 0 0 Z " fill="#FAD3DB" transform="translate(994,185)"/>
<path d="M0 0 C1.65 0 3.3 0 5 0 C1.96205445 2.51242417 -0.91438973 3.88228534 -4.625 5.1875 C-6.06746094 5.70376953 -6.06746094 5.70376953 -7.5390625 6.23046875 C-10 7 -10 7 -12 7 C-12 6.34 -12 5.68 -12 5 C-11.01 5 -10.02 5 -9 5 C-9.33 4.01 -9.66 3.02 -10 2 C-3.375 0.875 -3.375 0.875 0 2 C0 1.34 0 0.68 0 0 Z " fill="#C12D51" transform="translate(917,177)"/>
<path d="M0 0 C2.97 0 5.94 0 9 0 C6.51169497 2.48830503 4.1322066 3.30825691 0.875 4.625 C-0.22070312 5.07101563 -1.31640625 5.51703125 -2.4453125 5.9765625 C-3.28835938 6.31429687 -4.13140625 6.65203125 -5 7 C-5.66 6.34 -6.32 5.68 -7 5 C-5.02 4.67 -3.04 4.34 -1 4 C-0.67 2.68 -0.34 1.36 0 0 Z " fill="#FADBE3" transform="translate(919,211)"/>
<path d="M0 0 C7.36988707 1.966369 14.13045202 4.69582578 21 8 C17.28272326 9.13583456 15.52948291 8.66670026 12 7 C12 6.34 12 5.68 12 5 C10.7625 4.87625 9.525 4.7525 8.25 4.625 C5.1237803 4.24253695 2.71120763 3.69450477 0 2 C0 1.34 0 0.68 0 0 Z " fill="#F9CED8" transform="translate(478,161)"/>
<path d="M0 0 C-0.57344937 2.86724686 -0.8614515 3.8614515 -3 6 C-5.72869407 5.96712417 -8.2966618 5.43602229 -11 5 C-11.33 5.66 -11.66 6.32 -12 7 C-12.66 6.34 -13.32 5.68 -14 5 C-12.04350603 4.16235732 -10.08474444 3.33000941 -8.125 2.5 C-6.48917969 1.80390625 -6.48917969 1.80390625 -4.8203125 1.09375 C-2 0 -2 0 0 0 Z " fill="#C63057" transform="translate(922,111)"/>
<path d="M0 0 C-0.61488281 0.33773438 -1.22976563 0.67546875 -1.86328125 1.0234375 C-2.67152344 1.46945312 -3.47976563 1.91546875 -4.3125 2.375 C-5.11300781 2.81585938 -5.91351562 3.25671875 -6.73828125 3.7109375 C-8.53527943 4.73513335 -10.27900708 5.85267138 -12 7 C-14.6875 6.625 -14.6875 6.625 -17 6 C-14.42166561 3.42166561 -11.89674219 2.6238529 -8.5 1.3125 C-7.3346875 0.85488281 -6.169375 0.39726562 -4.96875 -0.07421875 C-2 -1 -2 -1 0 0 Z " fill="#F2BDCA" transform="translate(789,337)"/>
<path d="M0 0 C-12.48519362 5.37129841 -12.48519362 5.37129841 -19 7 C-19 6.34 -19 5.68 -19 5 C-16.39985473 3.96772138 -13.79573631 2.94894848 -11.1875 1.9375 C-10.44951172 1.64294922 -9.71152344 1.34839844 -8.95117188 1.04492188 C-3.33984375 -1.11328125 -3.33984375 -1.11328125 0 0 Z " fill="#B82A49" transform="translate(828,320)"/>
<path d="M0 0 C0.66 0.33 1.32 0.66 2 1 C1.01 1.33 0.02 1.66 -1 2 C-1 2.66 -1 3.32 -1 4 C-4.28491373 6.18994248 -5.83095639 6.35277339 -9.6875 6.625 C-11.17830078 6.73714844 -11.17830078 6.73714844 -12.69921875 6.8515625 C-13.45847656 6.90054687 -14.21773437 6.94953125 -15 7 C-12.0356239 5.02374927 -9.21212254 3.70113094 -5.9375 2.3125 C-4.87402344 1.85488281 -3.81054688 1.39726562 -2.71484375 0.92578125 C-1.81894531 0.62027344 -0.92304687 0.31476563 0 0 Z " fill="#C23657" transform="translate(793,267)"/>
<path d="M0 0 C2.64 0 5.28 0 8 0 C5.49876879 1.66748747 3.22323643 2.89954361 0.5 4.125 C-0.2734375 4.47820312 -1.046875 4.83140625 -1.84375 5.1953125 C-4 6 -4 6 -7 6 C-6.67 5.01 -6.34 4.02 -6 3 C-5.195625 2.87625 -4.39125 2.7525 -3.5625 2.625 C-2.716875 2.41875 -1.87125 2.2125 -1 2 C-0.67 1.34 -0.34 0.68 0 0 Z " fill="#BD1940" transform="translate(769,340)"/>
<path d="M0 0 C6.19899905 -0.50604074 8.91137051 0.83160805 14 4 C16.26985894 4.76040572 16.26985894 4.76040572 18 5 C18 5.66 18 6.32 18 7 C11.70277443 5.60061654 5.93915684 3.50710309 0 1 C0 0.67 0 0.34 0 0 Z " fill="#BA244A" transform="translate(638,330)"/>
<path d="M0 0 C0.66 0 1.32 0 2 0 C2 0.66 2 1.32 2 2 C2.66 2.33 3.32 2.66 4 3 C2.02 3.33 0.04 3.66 -2 4 C-2.33 4.99 -2.66 5.98 -3 7 C-6.5625 8.1875 -6.5625 8.1875 -10 9 C-10.66 8.34 -11.32 7.68 -12 7 C-11.34 7 -10.68 7 -10 7 C-9.67 6.34 -9.34 5.68 -9 5 C-7.35 5.33 -5.7 5.66 -4 6 C-3.566875 5.071875 -3.566875 5.071875 -3.125 4.125 C-2 2 -2 2 0 0 Z " fill="#C60F3B" transform="translate(923,275)"/>
<path d="M0 0 C10.55808656 1.92710706 10.55808656 1.92710706 15 4 C15 4.33 15 4.66 15 5 C12.03 4.67 9.06 4.34 6 4 C5.67 4.66 5.34 5.32 5 6 C4.34 6 3.68 6 3 6 C3 4.68 3 3.36 3 2 C2.01 1.67 1.02 1.34 0 1 C0 0.67 0 0.34 0 0 Z " fill="#BD173C" transform="translate(443,185)"/>
<path d="M0 0 C2.97 0 5.94 0 9 0 C2.63636364 5 2.63636364 5 -2 5 C-1.34 3.35 -0.68 1.7 0 0 Z " fill="#FAE4E7" transform="translate(839,244)"/>
<path d="M0 0 C0.66 0.33 1.32 0.66 2 1 C0.68 1.33 -0.64 1.66 -2 2 C-1.67 2.99 -1.34 3.98 -1 5 C-2.36125 4.938125 -2.36125 4.938125 -3.75 4.875 C-6.91083821 4.77279857 -6.91083821 4.77279857 -9.125 6.0625 C-11.51724125 7.25862062 -12.50688533 6.7396585 -15 6 C-12.54524486 4.96971956 -10.08685649 3.95054496 -7.625 2.9375 C-6.57699219 2.49567383 -6.57699219 2.49567383 -5.5078125 2.04492188 C-3.69495092 1.30408902 -1.84876857 0.64603036 0 0 Z " fill="#CA4163" transform="translate(861,239)"/>
<path d="M0 0 C1.79408332 0.6180287 3.58520478 1.24466081 5.375 1.875 C6.87160156 2.39707031 6.87160156 2.39707031 8.3984375 2.9296875 C11 4 11 4 13 6 C9.7 5.67 6.4 5.34 3 5 C3 4.34 3 3.68 3 3 C2.01 2.67 1.02 2.34 0 2 C0 1.34 0 0.68 0 0 Z " fill="#BF2046" transform="translate(537,119)"/>
<path d="M0 0 C-1.60032137 0.84069415 -3.20541171 1.67231505 -4.8125 2.5 C-6.15248047 3.19609375 -6.15248047 3.19609375 -7.51953125 3.90625 C-10 5 -10 5 -13 5 C-13 4.34 -13 3.68 -13 3 C-12.01 3 -11.02 3 -10 3 C-10 2.01 -10 1.02 -10 0 C-6.26432828 -0.76411467 -3.65188082 -1.07174763 0 0 Z " fill="#BE284C" transform="translate(890,294)"/>
<path d="M0 0 C0.33 0.66 0.66 1.32 1 2 C1.69867187 1.97679687 2.39734375 1.95359375 3.1171875 1.9296875 C4.02726563 1.91164063 4.93734375 1.89359375 5.875 1.875 C7.23238281 1.84019531 7.23238281 1.84019531 8.6171875 1.8046875 C11 2 11 2 13 4 C12.34 4.66 11.68 5.32 11 6 C6.71 4.68 2.42 3.36 -2 2 C-1.34 1.34 -0.68 0.68 0 0 Z " fill="#FBE6EA" transform="translate(639,262)"/>
<path d="M0 0 C0.66 0.33 1.32 0.66 2 1 C1.67 1.66 1.34 2.32 1 3 C-2.0625 3.625 -2.0625 3.625 -5 4 C-5 4.66 -5 5.32 -5 6 C-9.455 6.495 -9.455 6.495 -14 7 C-11.73725135 4.73725135 -9.97142905 4.07338058 -7 2.9375 C-3.45044525 1.58079164 -3.45044525 1.58079164 0 0 Z " fill="#BE3152" transform="translate(986,187)"/>
<path d="M0 0 C5.34844008 0.53484401 9.35796103 2.46690767 14 5 C13.67 5.66 13.34 6.32 13 7 C11.35 6.67 9.7 6.34 8 6 C8 5.34 8 4.68 8 4 C5.03 3.505 5.03 3.505 2 3 C2 2.34 2 1.68 2 1 C1.34 0.67 0.68 0.34 0 0 Z " fill="#BB1E43" transform="translate(480,96)"/>
<path d="M0 0 C2.64 0 5.28 0 8 0 C8 0.66 8 1.32 8 2 C9.65 2.33 11.3 2.66 13 3 C13 3.66 13 4.32 13 5 C13.99 5.33 14.98 5.66 16 6 C10.23955788 5.39363767 5.27985631 3.24341721 0 1 C0 0.67 0 0.34 0 0 Z " fill="#F7CDD6" transform="translate(480,95)"/>
<path d="M0 0 C-2.03221693 2.03221693 -3.11237641 2.55945205 -5.75 3.5 C-6.80960938 3.88091797 -6.80960938 3.88091797 -7.890625 4.26953125 C-10.58635856 5.2030538 -13.28687829 6.11823544 -16 7 C-16 6.34 -16 5.68 -16 5 C-15.01 5 -14.02 5 -13 5 C-13 4.34 -13 3.68 -13 3 C-8.37802694 0.78145293 -5.23175837 -0.38281159 0 0 Z " fill="#BA2C4F" transform="translate(802,330)"/>
<path d="M0 0 C-1.82748903 2.46313739 -3.22976216 3.83428618 -6.26953125 4.48828125 C-8.51479346 4.72518293 -10.74455578 4.90361349 -13 5 C-10.83470418 2.58355702 -8.97842441 1.36405829 -5.9375 0.25 C-4.89916016 -0.14445312 -4.89916016 -0.14445312 -3.83984375 -0.546875 C-2 -1 -2 -1 0 0 Z " fill="#F2BDC9" transform="translate(943,273)"/>
<path d="M0 0 C-3.20336822 2.83374881 -5.78087253 3.5205537 -10 4 C-10 2.68 -10 1.36 -10 0 C-6.7169902 -1.6415049 -3.57454967 -0.51888624 0 0 Z " fill="#BC1A42" transform="translate(970,260)"/>
<path d="M0 0 C1.98 0 3.96 0 6 0 C2.83724506 2.10850329 -0.13471538 3.28830876 -3.6875 4.625 C-4.86699219 5.07101563 -6.04648437 5.51703125 -7.26171875 5.9765625 C-8.16535156 6.31429687 -9.06898438 6.65203125 -10 7 C-10 6.34 -10 5.68 -10 5 C-9.01 5 -8.02 5 -7 5 C-6.67 4.01 -6.34 3.02 -6 2 C-4.02 2 -2.04 2 0 2 C0 1.34 0 0.68 0 0 Z " fill="#FDD5E1" transform="translate(906,218)"/>
<path d="M0 0 C0.66 0.33 1.32 0.66 2 1 C-1.73572939 5.82029598 -1.73572939 5.82029598 -5.3359375 6.33203125 C-7.5758033 6.31436669 -9.77120799 6.21850902 -12 6 C-9.48617788 4.32411859 -7.17052712 3.05969689 -4.4375 1.8125 C-3.65246094 1.44769531 -2.86742187 1.08289063 -2.05859375 0.70703125 C-1.37925781 0.47371094 -0.69992187 0.24039063 0 0 Z " fill="#FAD2DC" transform="translate(861,202)"/>
<path d="M0 0 C3.3 0.33 6.6 0.66 10 1 C10 1.99 10 2.98 10 4 C11.32 4.33 12.64 4.66 14 5 C13.01 5.495 13.01 5.495 12 6 C9.92803369 5.26821134 7.8891448 4.44100997 5.875 3.5625 C4.77929688 3.08941406 3.68359375 2.61632812 2.5546875 2.12890625 C1.71164062 1.75636719 0.86859375 1.38382813 0 1 C0 0.67 0 0.34 0 0 Z " fill="#F3C5CF" transform="translate(640,161)"/>
<path d="M0 0 C0.56203125 0.22558594 1.1240625 0.45117188 1.703125 0.68359375 C-0.0546875 1.62760417 -1.8125 2.57161458 -3.5703125 3.515625 C-5.60189865 4.73122868 -5.60189865 4.73122868 -7.296875 7.68359375 C-8.616875 7.02359375 -9.936875 6.36359375 -11.296875 5.68359375 C-9.89135201 4.64747104 -8.47195806 3.6301445 -7.046875 2.62109375 C-6.25796875 2.05261719 -5.4690625 1.48414063 -4.65625 0.8984375 C-2.296875 -0.31640625 -2.296875 -0.31640625 0 0 Z " fill="#FBDBE7" transform="translate(795.296875,333.31640625)"/>
<path d="M0 0 C1.98203709 0.61583656 3.9605772 1.24293834 5.9375 1.875 C7.59072266 2.39707031 7.59072266 2.39707031 9.27734375 2.9296875 C12 4 12 4 13 6 C10.36 6 7.72 6 5 6 C5 5.01 5 4.02 5 3 C3.35 2.67 1.7 2.34 0 2 C0 1.34 0 0.68 0 0 Z " fill="#FCD5DC" transform="translate(608,318)"/>
<path d="M0 0 C3.63 1.32 7.26 2.64 11 4 C11 5.65 11 7.3 11 9 C10.67 8.01 10.34 7.02 10 6 C9.030625 5.87625 8.06125 5.7525 7.0625 5.625 C6.051875 5.41875 5.04125 5.2125 4 5 C3.67 4.34 3.34 3.68 3 3 C2.01 2.67 1.02 2.34 0 2 C0 1.34 0 0.68 0 0 Z " fill="#B91E45" transform="translate(693,287)"/>
<path d="M0 0 C-1 3 -1 3 -4.1875 4.6875 C-7.5347925 6.01535157 -10.38491227 6.26451861 -14 6 C-11.74402173 3.74402173 -9.95396133 3.03425808 -7 1.875 C-6.113125 1.52179688 -5.22625 1.16859375 -4.3125 0.8046875 C-2 0 -2 0 0 0 Z " fill="#FCDAE3" transform="translate(910,286)"/>
<path d="M0 0 C1.65 0 3.3 0 5 0 C5.66 1.65 6.32 3.3 7 5 C8.32 5 9.64 5 11 5 C11 5.66 11 6.32 11 7 C8.36 6.34 5.72 5.68 3 5 C3 4.34 3 3.68 3 3 C2.01 2.67 1.02 2.34 0 2 C0 1.34 0 0.68 0 0 Z " fill="#CD214A" transform="translate(633,222)"/>
<path d="M0 0 C4.60853797 0.72008406 8.67237409 2.31295939 13 4 C12.01 4.66 11.02 5.32 10 6 C9.01 5.67 8.02 5.34 7 5 C7 4.34 7 3.68 7 3 C5.35 3.33 3.7 3.66 2 4 C2 3.34 2 2.68 2 2 C1.34 2 0.68 2 0 2 C0 1.34 0 0.68 0 0 Z " fill="#FBD1E1" transform="translate(552,192)"/>
<path d="M0 0 C1.64846769 0.44876616 3.29373455 0.90930488 4.9375 1.375 C5.85402344 1.63023437 6.77054687 1.88546875 7.71484375 2.1484375 C10 3 10 3 11 5 C3.5340751 5.36717663 3.5340751 5.36717663 1 3.625 C0 2 0 2 0 0 Z " fill="#BE2B4E" transform="translate(505,209)"/>
<path d="M0 0 C1.32 0.66 2.64 1.32 4 2 C4 2.66 4 3.32 4 4 C4.66 4.33 5.32 4.66 6 5 C3.125 5.625 3.125 5.625 0 6 C-0.66 5.34 -1.32 4.68 -2 4 C-1.34 2.68 -0.68 1.36 0 0 Z " fill="#CD1743" transform="translate(562,129)"/>
<path d="M0 0 C2.97851562 0.43945312 2.97851562 0.43945312 5.95703125 0.87890625 C8.2025342 1.13904799 8.2025342 1.13904799 11 0 C11 1.65 11 3.3 11 5 C9.53932801 4.54917531 8.08151968 4.08906463 6.625 3.625 C5.81289063 3.36976563 5.00078125 3.11453125 4.1640625 2.8515625 C2 2 2 2 0 0 Z " fill="#BF264B" transform="translate(588,309)"/>
<path d="M0 0 C0.91007813 0.00902344 1.82015625 0.01804688 2.7578125 0.02734375 C3.45648437 0.03894531 4.15515625 0.05054688 4.875 0.0625 C2.26480351 2.20376508 1.20173483 3.02982652 -2.25 3.375 C-5.125 3.0625 -5.125 3.0625 -7.125 1.0625 C-4.60024538 -0.19987731 -2.81299534 -0.03606404 0 0 Z " fill="#C21C40" transform="translate(735.125,251.9375)"/>
<path d="M0 0 C-2.34914492 2.34914492 -3.95679446 2.73140357 -7.125 3.625 C-8.49011719 4.01558594 -8.49011719 4.01558594 -9.8828125 4.4140625 C-10.58148437 4.60742188 -11.28015625 4.80078125 -12 5 C-12 4.01 -12 3.02 -12 2 C-7.82262526 0.40861915 -4.46839215 -0.21278058 0 0 Z " fill="#B91840" transform="translate(752,247)"/>
<path d="M0 0 C-1.76505435 0.86604534 -3.53728074 1.71748642 -5.3125 2.5625 C-6.79169922 3.27599609 -6.79169922 3.27599609 -8.30078125 4.00390625 C-11 5 -11 5 -14 4 C-11 2 -11 2 -9 2 C-9 1.34 -9 0.68 -9 0 C-5.5657338 -0.85856655 -3.38317487 -0.97591583 0 0 Z " fill="#BC1E45" transform="translate(771,240)"/>
<path d="M0 0 C0.66 0.33 1.32 0.66 2 1 C0.13497412 3.62799102 -1.30410791 4.86365751 -4.4921875 5.48828125 C-6.9964272 5.72593573 -9.48653979 5.9040664 -12 6 C-9.48617788 4.32411859 -7.17052712 3.05969689 -4.4375 1.8125 C-3.65246094 1.44769531 -2.86742187 1.08289063 -2.05859375 0.70703125 C-1.37925781 0.47371094 -0.69992187 0.24039063 0 0 Z " fill="#F7CCD7" transform="translate(974,155)"/>
<path d="M0 0 C-0.33 1.32 -0.66 2.64 -1 4 C-3.97 3.01 -6.94 2.02 -10 1 C-10 0.67 -10 0.34 -10 0 C-3.375 -1.125 -3.375 -1.125 0 0 Z " fill="#C6294D" transform="translate(456,147)"/>
<path d="M0 0 C4.46423103 -0.39390274 7.12671656 0.84817586 11 3 C11.66 3.33 12.32 3.66 13 4 C13 4.66 13 5.32 13 6 C8.31479085 4.78184562 4.29456388 3.30440013 0 1 C0 0.67 0 0.34 0 0 Z " fill="#F8CFD9" transform="translate(443,79)"/>
<path d="M0 0 C4.95 1.65 9.9 3.3 15 5 C13.02 5.99 13.02 5.99 11 7 C11 6.34 11 5.68 11 5 C9.68 5.33 8.36 5.66 7 6 C6.67 5.34 6.34 4.68 6 4 C4.02111039 3.27306096 2.02045442 2.60183749 0 2 C0 1.34 0 0.68 0 0 Z " fill="#FAD3DC" transform="translate(665,342)"/>
<path d="M0 0 C3.3 0 6.6 0 10 0 C10.66 1.65 11.32 3.3 12 5 C10.37276701 4.54965877 8.74826336 4.08944646 7.125 3.625 C5.76761719 3.24214844 5.76761719 3.24214844 4.3828125 2.8515625 C2 2 2 2 0 0 Z " fill="#F2B6CB" transform="translate(491,203)"/>
<path d="M0 0 C1.6045556 0.14148989 3.20863767 0.28835686 4.8125 0.4375 C5.70582031 0.51871094 6.59914063 0.59992188 7.51953125 0.68359375 C10 1 10 1 13 2 C12.67 2.99 12.34 3.98 12 5 C10.37276701 4.54965877 8.74826336 4.08944646 7.125 3.625 C5.76761719 3.24214844 5.76761719 3.24214844 4.3828125 2.8515625 C2 2 2 2 0 0 Z " fill="#F6C3D2" transform="translate(625,155)"/>
<path d="M0 0 C-4.97504047 3.24900602 -7.88225104 4.49940808 -14 4 C-4.81927711 -2.12048193 -4.81927711 -2.12048193 0 0 Z " fill="#F9CCD6" transform="translate(990,151)"/>
<path d="M0 0 C-0.99 0.33 -1.98 0.66 -3 1 C-2.67 1.99 -2.34 2.98 -2 4 C-4.35171131 3.40138258 -6.6859378 2.73075648 -9 2 C-9.33 1.34 -9.66 0.68 -10 0 C-6.30458414 -0.95024979 -3.69541586 -0.95024979 0 0 Z " fill="#C4294D" transform="translate(666,337)"/>
<path d="M0 0 C1.32 0.66 2.64 1.32 4 2 C0.04 3.65 -3.92 5.3 -8 7 C-8.33 6.34 -8.66 5.68 -9 5 C-7.88625 4.54625 -6.7725 4.0925 -5.625 3.625 C-2.03800992 2.27534014 -2.03800992 2.27534014 0 0 Z " fill="#FEDEE6" transform="translate(786,267)"/>
<path d="M0 0 C4.75 0.875 4.75 0.875 7 2 C8.54023996 2.06950541 10.08334988 2.08452357 11.625 2.0625 C12.44226563 2.05347656 13.25953125 2.04445313 14.1015625 2.03515625 C14.72804688 2.02355469 15.35453125 2.01195312 16 2 C15.67 2.66 15.34 3.32 15 4 C13.00390625 4.44921875 13.00390625 4.44921875 10.5625 4.6875 C9.75941406 4.77386719 8.95632813 4.86023438 8.12890625 4.94921875 C6 5 6 5 4 4 C4 3.34 4 2.68 4 2 C2.68 1.67 1.36 1.34 0 1 C0 0.67 0 0.34 0 0 Z " fill="#F4BFCE" transform="translate(709,257)"/>
<path d="M0 0 C-2.83430453 3.2542015 -4.68607774 4.5206753 -9 5 C-7.93411431 2.09303901 -7.29651501 1.15567038 -4.5 -0.3125 C-2 -1 -2 -1 0 0 Z " fill="#F9D1DF" transform="translate(824,219)"/>
<path d="M0 0 C-3.64116773 3.33773709 -7.28607242 3.97864902 -12 5 C-12 4.34 -12 3.68 -12 3 C-7.77050005 0.58314288 -4.87664009 -0.34833144 0 0 Z " fill="#BE2349" transform="translate(868,199)"/>
<path d="M0 0 C1.43791516 0.14168137 2.8753237 0.28851043 4.3125 0.4375 C5.11300781 0.51871094 5.91351562 0.59992188 6.73828125 0.68359375 C9 1 9 1 12 2 C12 2.99 12 3.98 12 5 C10.37276701 4.54965877 8.74826336 4.08944646 7.125 3.625 C5.76761719 3.24214844 5.76761719 3.24214844 4.3828125 2.8515625 C2 2 2 2 0 0 Z " fill="#FCD7E1" transform="translate(558,127)"/>
<path d="M0 0 C-1.5625 2 -1.5625 2 -4 4 C-7.75 4.25 -7.75 4.25 -11 4 C-9.71264403 1.42528807 -8.71510189 1.29583343 -6.0625 0.3125 C-5.35222656 0.04050781 -4.64195312 -0.23148437 -3.91015625 -0.51171875 C-2 -1 -2 -1 0 0 Z " fill="#FACCD7" transform="translate(847,313)"/>
<path d="M0 0 C9.59453303 2.89066059 9.59453303 2.89066059 13 6 C6.25 5.25 6.25 5.25 4 3 C1.93125966 2.3574765 1.93125966 2.3574765 0 2 C0 1.34 0 0.68 0 0 Z " fill="#FED3E0" transform="translate(571,303)"/>
<path d="M0 0 C0.33 1.32 0.66 2.64 1 4 C-1.35171131 3.40138258 -3.6859378 2.73075648 -6 2 C-6.33 1.34 -6.66 0.68 -7 0 C-4.3333581 -1.33332095 -2.83319697 -0.67102033 0 0 Z " fill="#BE274E" transform="translate(535,284)"/>
<path d="M0 0 C7.42857143 -0.28571429 7.42857143 -0.28571429 11 2 C11 2.66 11 3.32 11 4 C7.0507432 3.44894091 3.65079826 2.61064629 0 1 C0 0.67 0 0.34 0 0 Z " fill="#B9284D" transform="translate(469,260)"/>
<path d="M0 0 C6.4 -0.49230769 6.4 -0.49230769 9.4375 2 C10.2109375 2.99 10.2109375 2.99 11 4 C10.01 4.495 10.01 4.495 9 5 C6.8359375 4.22265625 6.8359375 4.22265625 4.375 3.0625 C3.55773437 2.68222656 2.74046875 2.30195313 1.8984375 1.91015625 C1.27195312 1.60980469 0.64546875 1.30945313 0 1 C0 0.67 0 0.34 0 0 Z " fill="#BC3657" transform="translate(457,255)"/>
<path d="M0 0 C1.98 0 3.96 0 6 0 C3.14415227 1.90389849 1.0688238 2.69462177 -2.1875 3.625 C-3.08855469 3.88539063 -3.98960937 4.14578125 -4.91796875 4.4140625 C-5.94857422 4.70410156 -5.94857422 4.70410156 -7 5 C-7 4.34 -7 3.68 -7 3 C-6.01 3 -5.02 3 -4 3 C-4 2.34 -4 1.68 -4 1 C-2.68 1.33 -1.36 1.66 0 2 C0 1.34 0 0.68 0 0 Z " fill="#FEE1EB" transform="translate(855,239)"/>
<path d="M0 0 C2.97 0.99 5.94 1.98 9 3 C7.02 3.99 7.02 3.99 5 5 C4.34 4.34 3.68 3.68 3 3 C3 3.66 3 4.32 3 5 C2.34 5 1.68 5 1 5 C1 4.34 1 3.68 1 3 C0.34 3 -0.32 3 -1 3 C-0.67 2.01 -0.34 1.02 0 0 Z " fill="#F7CFDB" transform="translate(539,186)"/>
<path d="M0 0 C0 0.66 0 1.32 0 2 C-6.27692308 6.06153846 -6.27692308 6.06153846 -9.9375 5.75 C-10.618125 5.5025 -11.29875 5.255 -12 5 C-8.45976076 2.63984051 -4.36489861 0 0 0 Z " fill="#BD284C" transform="translate(886,126)"/>
<path d="M0 0 C0 0.99 0 1.98 0 3 C-8.03571429 5.27678571 -8.03571429 5.27678571 -12 4 C-10.3767313 3.3291288 -8.75132422 2.66342971 -7.125 2 C-6.22007812 1.62875 -5.31515625 1.2575 -4.3828125 0.875 C-2 0 -2 0 0 0 Z " fill="#BE3B5B" transform="translate(980,87)"/>
<path d="M0 0 C0 0.66 0 1.32 0 2 C-0.66 2 -1.32 2 -2 2 C-2.33 2.99 -2.66 3.98 -3 5 C-5.31 4.67 -7.62 4.34 -10 4 C-6.86268382 1.90845588 -3.85464592 0 0 0 Z " fill="#C93859" transform="translate(778,274)"/>
<path d="M0 0 C8.57142857 1 8.57142857 1 12 2 C12 2.99 12 3.98 12 5 C10.37276701 4.54965877 8.74826336 4.08944646 7.125 3.625 C5.76761719 3.24214844 5.76761719 3.24214844 4.3828125 2.8515625 C2 2 2 2 0 0 Z " fill="#BB3253" transform="translate(682,245)"/>
<path d="M0 0 C1.32 0.66 2.64 1.32 4 2 C2.5682384 2.69937202 1.12932968 3.38412718 -0.3125 4.0625 C-1.51326172 4.63677734 -1.51326172 4.63677734 -2.73828125 5.22265625 C-5 6 -5 6 -8 5 C-5.35261084 3.5393715 -4.10551666 3 -1 3 C-0.67 2.01 -0.34 1.02 0 0 Z " fill="#FCD2DC" transform="translate(890,224)"/>
<path d="M0 0 C0.66 0.33 1.32 0.66 2 1 C2.625 3.5625 2.625 3.5625 3 6 C1.02 5.34 -0.96 4.68 -3 4 C-3 3.01 -3 2.02 -3 1 C-2.01 0.67 -1.02 0.34 0 0 Z " fill="#F7D6DD" transform="translate(519,210)"/>
<path d="M0 0 C6.625 -0.25 6.625 -0.25 10 2 C10 2.66 10 3.32 10 4 C5.78087253 3.5205537 3.20336822 2.83374881 0 0 Z " fill="#FDDFE5" transform="translate(478,197)"/>
<path d="M0 0 C1.43836751 0.11458693 2.87570966 0.24209116 4.3125 0.375 C5.51326172 0.47941406 5.51326172 0.47941406 6.73828125 0.5859375 C9 1 9 1 12 3 C12 3.66 12 4.32 12 5 C10.37276701 4.54965877 8.74826336 4.08944646 7.125 3.625 C5.76761719 3.24214844 5.76761719 3.24214844 4.3828125 2.8515625 C2 2 2 2 0 0 Z " fill="#F9CDD8" transform="translate(460,190)"/>
<path d="M0 0 C1.4540625 0.0309375 1.4540625 0.0309375 2.9375 0.0625 C2.6075 1.7125 2.2775 3.3625 1.9375 5.0625 C0.6175 4.7325 -0.7025 4.4025 -2.0625 4.0625 C-1.7325 3.4025 -1.4025 2.7425 -1.0625 2.0625 C-2.0525 1.7325 -3.0425 1.4025 -4.0625 1.0625 C-3.0625 0.0625 -3.0625 0.0625 0 0 Z " fill="#C70C33" transform="translate(991.0625,186.9375)"/>
<path d="M0 0 C1.43861294 0.08746284 2.87597508 0.19565348 4.3125 0.3125 C5.11300781 0.37050781 5.91351563 0.42851562 6.73828125 0.48828125 C9.36272334 1.08206694 10.30820672 1.95780294 12 4 C10 5 10 5 7.6171875 4.22265625 C6.71226562 3.83980469 5.80734375 3.45695313 4.875 3.0625 C3.50988281 2.49208984 3.50988281 2.49208984 2.1171875 1.91015625 C1.41851562 1.60980469 0.71984375 1.30945313 0 1 C0 0.67 0 0.34 0 0 Z " fill="#F9C8D3" transform="translate(448,185)"/>
<path d="M0 0 C-0.66 1.32 -1.32 2.64 -2 4 C-4.64 4 -7.28 4 -10 4 C-6.86268382 1.90845588 -3.85464592 0 0 0 Z " fill="#F7CAD4" transform="translate(818,324)"/>
<path d="M0 0 C3.3 0.99 6.6 1.98 10 3 C10 3.33 10 3.66 10 4 C3.375 4.125 3.375 4.125 0 3 C0 2.01 0 1.02 0 0 Z " fill="#FCCEDC" transform="translate(443,250)"/>
<path d="M0 0 C1.45947705 0.06006078 2.91779272 0.1488689 4.375 0.25 C5.59316406 0.31960937 5.59316406 0.31960937 6.8359375 0.390625 C9 1 9 1 10.2890625 3.046875 C10.64097656 4.01367188 10.64097656 4.01367188 11 5 C7.27566618 3.7874262 3.62197194 2.49140021 0 1 C0 0.67 0 0.34 0 0 Z " fill="#FACDD9" transform="translate(557,230)"/>
<path d="M0 0 C2.64 0 5.28 0 8 0 C6.66666667 0.66666667 5.33333333 1.33333333 4 2 C2.453125 2.8353125 2.453125 2.8353125 0.875 3.6875 C-0.07375 4.120625 -1.0225 4.55375 -2 5 C-2.66 4.67 -3.32 4.34 -4 4 C-3.01 3.67 -2.02 3.34 -1 3 C-0.67 2.01 -0.34 1.02 0 0 Z " fill="#FBCAD5" transform="translate(730,187)"/>
<path d="M0 0 C3.82097239 0.53069061 6.06171403 1.49701566 9 4 C7.3125 4.6875 7.3125 4.6875 5 5 C2.25 3.6875 2.25 3.6875 0 2 C0 1.34 0 0.68 0 0 Z " fill="#FBD0DA" transform="translate(629,327)"/>
<path d="M0 0 C2.97 0.495 2.97 0.495 6 1 C4.75 2.5 4.75 2.5 3 4 C1.68 4 0.36 4 -1 4 C-0.67 2.68 -0.34 1.36 0 0 Z " fill="#BB1435" transform="translate(827,315)"/>
<path d="M0 0 C3.3 0 6.6 0 10 0 C9.67 0.66 9.34 1.32 9 2 C6.35139573 2.59355614 3.70802678 2.74209269 1 3 C0.67 2.01 0.34 1.02 0 0 Z " fill="#FDD8EB" transform="translate(716,191)"/>
<path d="M0 0 C3.63 1.32 7.26 2.64 11 4 C9.02 4.99 9.02 4.99 7 6 C7 5.34 7 4.68 7 4 C6.1028125 3.7834375 6.1028125 3.7834375 5.1875 3.5625 C3.43849596 3.1127561 1.71322977 2.57107659 0 2 C0 1.34 0 0.68 0 0 Z " fill="#BC244A" transform="translate(689,182)"/>
<path d="M0 0 C1.46015291 0.28241641 2.91809793 0.57626614 4.375 0.875 C5.18710937 1.03742188 5.99921875 1.19984375 6.8359375 1.3671875 C9 2 9 2 11 4 C8.36 4 5.72 4 3 4 C3 3.34 3 2.68 3 2 C2.01 2 1.02 2 0 2 C0 1.34 0 0.68 0 0 Z " fill="#F8D1DA" transform="translate(541,291)"/>
<path d="M0 0 C2.97 0.495 2.97 0.495 6 1 C6 1.99 6 2.98 6 4 C4.35 4 2.7 4 1 4 C0.67 2.68 0.34 1.36 0 0 Z " fill="#C31540" transform="translate(672,279)"/>
<path d="M0 0 C0 1.65 0 3.3 0 5 C-2.64 4.34 -5.28 3.68 -8 3 C-5.22569089 1.15046059 -3.35957737 0 0 0 Z " fill="#F5DADF" transform="translate(832,215)"/>
<path d="M0 0 C6.625 -0.25 6.625 -0.25 10 2 C6.30458414 2.95024979 3.69541586 2.95024979 0 2 C0 1.34 0 0.68 0 0 Z " fill="#F5FBF8" transform="translate(452,184)"/>
<path d="M0 0 C0.66 0.33 1.32 0.66 2 1 C1.67 1.99 1.34 2.98 1 4 C-1.31 4.33 -3.62 4.66 -6 5 C-6 4.34 -6 3.68 -6 3 C-4.03533587 1.93224776 -2.03144641 0.93446535 0 0 Z " fill="#BB1F45" transform="translate(940,103)"/>
<path d="M0 0 C-0.33 0.66 -0.66 1.32 -1 2 C-1.99 2.33 -2.98 2.66 -4 3 C-4.66 3.66 -5.32 4.32 -6 5 C-7.32 4.34 -8.64 3.68 -10 3 C-9.01 3 -8.02 3 -7 3 C-7 2.34 -7 1.68 -7 1 C-4 0 -4 0 0 0 Z " fill="#CD0E38" transform="translate(997,83)"/>
<path d="M0 0 C4.03520597 1.58962659 8.01811282 3.28232318 12 5 C8.23375329 6.25541557 6.62811066 5.37061958 3 4 C3 3.34 3 2.68 3 2 C2.01 1.67 1.02 1.34 0 1 C0 0.67 0 0.34 0 0 Z " fill="#BE3754" transform="translate(444,80)"/>
<path d="M0 0 C5.75 0.75 5.75 0.75 8 3 C5.36 3 2.72 3 0 3 C0 2.01 0 1.02 0 0 Z " fill="#BB153D" transform="translate(642,267)"/>
<path d="M0 0 C1.32 0 2.64 0 4 0 C4 1.32 4 2.64 4 4 C2.35 4 0.7 4 -1 4 C-0.67 2.68 -0.34 1.36 0 0 Z " fill="#E00338" transform="translate(759,180)"/>
<path d="M0 0 C-3.2678206 2.17854707 -6.38058265 3.49760034 -10 5 C-10 3 -10 3 -8.9375 1.375 C-6.03661182 -0.68369484 -3.45519943 -0.19557733 0 0 Z " fill="#B91E42" transform="translate(933,172)"/>
<path d="M0 0 C0.66 0.33 1.32 0.66 2 1 C-0.97 2.65 -3.94 4.3 -7 6 C-7.66 5.34 -8.32 4.68 -9 4 C-7.54618103 3.30300448 -6.08677047 2.61766134 -4.625 1.9375 C-3.40683594 1.36322266 -3.40683594 1.36322266 -2.1640625 0.77734375 C-1.44992187 0.52082031 -0.73578125 0.26429688 0 0 Z " fill="#F8CBD5" transform="translate(758,348)"/>
<path d="M0 0 C2.64 0 5.28 0 8 0 C6.8125 1.5625 6.8125 1.5625 5 3 C2.3125 2.6875 2.3125 2.6875 0 2 C0 1.34 0 0.68 0 0 Z " fill="#C72F53" transform="translate(582,306)"/>
<path d="M0 0 C5.75 1.75 5.75 1.75 8 4 C4.37673261 5.2077558 3.35853631 4.54311128 0 3 C0 2.01 0 1.02 0 0 Z " fill="#FEE3EB" transform="translate(554,296)"/>
<path d="M0 0 C-1.1875 1.5625 -1.1875 1.5625 -3 3 C-5.6875 2.6875 -5.6875 2.6875 -8 2 C-5.14066998 -0.85933002 -3.8625627 -1.2875209 0 0 Z " fill="#C82A4F" transform="translate(748,288)"/>
<path d="M0 0 C2.475 0.99 2.475 0.99 5 2 C3 4 3 4 0.375 4.125 C-0.40875 4.08375 -1.1925 4.0425 -2 4 C-1.34 2.68 -0.68 1.36 0 0 Z " fill="#F9F1F2" transform="translate(749,281)"/>
<path d="M0 0 C1.75 1.4375 1.75 1.4375 3 3 C1.1875 3.6875 1.1875 3.6875 -1 4 C-2.75 2.5625 -2.75 2.5625 -4 1 C-2.1875 0.3125 -2.1875 0.3125 0 0 Z " fill="#BD1D41" transform="translate(523,279)"/>
<path d="M0 0 C0 0.99 0 1.98 0 3 C-3.3 3.33 -6.6 3.66 -10 4 C-6.86268382 1.90845588 -3.85464592 0 0 0 Z " fill="#B63956" transform="translate(805,263)"/>
<path d="M0 0 C2.97 0 5.94 0 9 0 C8.67 0.99 8.34 1.98 8 3 C4.62537285 2.45276317 2.91765 1.9451 0 0 Z " fill="#FCD2DB" transform="translate(629,260)"/>
<path d="M0 0 C-2.93127462 1.95418308 -4.55834679 2.64700993 -8 3 C-8.66 2.34 -9.32 1.68 -10 1 C-6.78548731 -0.60725635 -3.56387464 -0.05748185 0 0 Z " fill="#F8DFE6" transform="translate(748,252)"/>
<path d="M0 0 C2.31 0 4.62 0 7 0 C7.66 1.32 8.32 2.64 9 4 C6.03 3.01 3.06 2.02 0 1 C0 0.67 0 0.34 0 0 Z " fill="#F6C4D2" transform="translate(610,252)"/>
<path d="M0 0 C-0.33 0.99 -0.66 1.98 -1 3 C-3.31 3 -5.62 3 -8 3 C-4.93882432 0.37613513 -4.26826873 0 0 0 Z " fill="#B91B40" transform="translate(848,246)"/>
<path d="M0 0 C1.65 0.33 3.3 0.66 5 1 C5 1.99 5 2.98 5 4 C3.02 3.34 1.04 2.68 -1 2 C-0.67 1.34 -0.34 0.68 0 0 Z " fill="#BF2148" transform="translate(566,195)"/>
<path d="M0 0 C-0.66 1.32 -1.32 2.64 -2 4 C-3.32 3.67 -4.64 3.34 -6 3 C-6 2.34 -6 1.68 -6 1 C-4 0 -4 0 0 0 Z " fill="#E30539" transform="translate(681,180)"/>
<path d="M0 0 C2.31 0.33 4.62 0.66 7 1 C3.25 4 3.25 4 1 4 C0.67 2.68 0.34 1.36 0 0 Z " fill="#CB0E38" transform="translate(672,178)"/>
<path d="M0 0 C2.64 0 5.28 0 8 0 C7.67 0.99 7.34 1.98 7 3 C2.25 2.25 2.25 2.25 0 0 Z " fill="#BF2D4F" transform="translate(480,161)"/>
<path d="M0 0 C5.625 -0.25 5.625 -0.25 9 2 C9 2.66 9 3.32 9 4 C6.03 3.01 3.06 2.02 0 1 C0 0.67 0 0.34 0 0 Z " fill="#FBD6E3" transform="translate(517,110)"/>
<path d="M0 0 C0.66 0.33 1.32 0.66 2 1 C1.01 2.485 1.01 2.485 0 4 C-3.125 4.1875 -3.125 4.1875 -6 4 C-3.94766315 1.7522025 -2.99332739 0.9977758 0 0 Z " fill="#C1395A" transform="translate(990,82)"/>
</svg>
