<svg xmlns="http://www.w3.org/2000/svg" width="640" height="640" viewBox="0 0 640 640" role="img" aria-label="Yanmar air filter">
  <defs>
    <linearGradient id="paper" x1="180" x2="460" y1="135" y2="520" gradientUnits="userSpaceOnUse">
      <stop stop-color="#f8eedc"/>
      <stop offset=".5" stop-color="#d7c08f"/>
      <stop offset="1" stop-color="#f4ead6"/>
    </linearGradient>
    <filter id="shadow" x="-20%" y="-20%" width="140%" height="140%">
      <feDropShadow dx="0" dy="12" stdDeviation="12" flood-color="#000" flood-opacity=".16"/>
    </filter>
  </defs>
  <rect width="640" height="640" fill="#fff"/>
  <g filter="url(#shadow)">
    <ellipse cx="320" cy="150" rx="170" ry="50" fill="#272727"/>
    <ellipse cx="320" cy="150" rx="128" ry="32" fill="#f2ead9"/>
    <path d="M150 150h340v330c0 44-67 78-170 78s-170-34-170-78V150Z" fill="url(#paper)"/>
    <g stroke="#b79359" stroke-width="4" opacity=".8">
      <path d="M178 175l248 350M213 160l248 380M248 153l228 362M283 150l196 328M318 150l164 292M353 153l128 228M388 160l92 160"/>
      <path d="M462 175L214 525M427 160L179 540M392 153L164 515M357 150L161 478M322 150L158 442M287 153L159 381M252 160l-92 160"/>
    </g>
    <ellipse cx="320" cy="480" rx="170" ry="58" fill="#1f1f1f"/>
    <ellipse cx="320" cy="480" rx="128" ry="34" fill="#f2ead9"/>
  </g>
</svg>
