<?xml version="1.0" encoding="UTF-8"?>
<svg version="1.1" xmlns="http://www.w3.org/2000/svg" width="1254" height="1254">
<path d="M0 0 C413.82 0 827.64 0 1254 0 C1254 413.82 1254 827.64 1254 1254 C840.18 1254 426.36 1254 0 1254 C0 840.18 0 426.36 0 0 Z " fill="#FDFDFD" transform="translate(0,0)"/>
<path d="M0 0 C1.16954727 -0.00637985 2.33909454 -0.0127597 3.54408264 -0.01933289 C4.82302902 -0.02044571 6.1019754 -0.02155853 7.41967773 -0.02270508 C8.73427475 -0.02603348 10.04887177 -0.02936188 11.40330505 -0.03279114 C14.20198381 -0.03879824 17.00063166 -0.04063006 19.79931641 -0.04003906 C22.64183011 -0.03995855 25.48418014 -0.04677325 28.32666016 -0.06054688 C58.47949201 -0.20494107 58.47949201 -0.20494107 71.54077148 2.14526367 C73.14920543 17.13649264 74.05678273 32.07668682 74.54077148 47.14526367 C75.54495117 47.38760742 76.54913086 47.62995117 77.58374023 47.87963867 C81.91166281 48.93390356 86.22821462 50.02992979 90.54077148 51.14526367 C91.5681543 51.41081055 92.59553711 51.67635742 93.65405273 51.94995117 C124.09031725 60.59895733 151.58183111 76.73707274 175.54077148 97.14526367 C176.72653282 98.14578132 177.91275781 99.14574963 179.09936523 100.14526367 C182.25286004 102.80449747 185.3985965 105.47266651 188.54077148 108.14526367 C188.21077148 108.80526367 187.88077148 109.46526367 187.54077148 110.14526367 C186.92073242 109.73276367 186.30069336 109.32026367 185.66186523 108.89526367 C177.86312848 103.80962456 169.82774591 99.36856877 161.54077148 95.14526367 C160.66163086 94.69280273 159.78249023 94.2403418 158.87670898 93.77416992 C150.26670066 89.60583256 141.07894285 86.82011582 131.98217773 83.92358398 C129.95618082 83.27769617 127.93527474 82.61586496 125.91577148 81.94995117 C108.49135791 76.52617538 89.56499144 74.06427155 71.34545898 73.90698242 C69.93243248 73.89222366 69.93243248 73.89222366 68.49085999 73.87716675 C49.10601267 73.71620561 30.48406448 73.63099473 11.54077148 78.14526367 C9.17527619 78.66137787 6.80936362 79.17558199 4.44311523 79.68823242 C-37.64093347 89.06737084 -75.01632396 107.81237668 -107.45922852 136.14526367 C-108.20946289 136.79495117 -108.95969727 137.44463867 -109.73266602 138.11401367 C-111.01450525 139.22865649 -112.29213025 140.34817152 -113.56469727 141.47338867 C-114.93351524 142.68133525 -116.31243889 143.87786316 -117.69750977 145.06713867 C-122.74946996 149.44833441 -127.17057697 154.02487365 -131.45922852 159.14526367 C-132.71026367 160.58192383 -132.71026367 160.58192383 -133.98657227 162.04760742 C-161.73308488 194.0077172 -179.8720636 232.35150914 -189.08422852 273.52026367 C-189.29063965 274.42873047 -189.49705078 275.33719727 -189.7097168 276.27319336 C-192.79135647 290.47727421 -193.78996517 304.33817529 -193.7199707 318.82568359 C-193.70928135 321.44481777 -193.71991975 324.06325987 -193.73266602 326.68237305 C-193.74904884 343.32624531 -192.32158204 359.48431515 -188.45922852 375.70776367 C-188.15871582 376.97789307 -187.85820312 378.24802246 -187.54858398 379.55664062 C-184.37737342 392.54319968 -179.75009 404.8828166 -174.45922852 417.14526367 C-174.08008301 418.02778809 -173.7009375 418.9103125 -173.31030273 419.81958008 C-166.01405482 436.54323801 -156.55362057 451.67636246 -145.69848633 466.30957031 C-145.17480469 467.015896 -144.65112305 467.72222168 -144.11157227 468.44995117 C-143.6474292 469.06854004 -143.18328613 469.68712891 -142.70507812 470.32446289 C-141.42431654 472.19628729 -140.42560534 474.09599049 -139.45922852 476.14526367 C-141.26327148 476.53004883 -141.26327148 476.53004883 -143.10375977 476.92260742 C-168.6110447 482.5623452 -193.30454953 491.14609942 -216.28295898 503.6862793 C-217.60577881 504.40074219 -217.60577881 504.40074219 -218.95532227 505.12963867 C-219.72932373 505.56501953 -220.5033252 506.00040039 -221.30078125 506.44897461 C-223.45922852 507.14526367 -223.45922852 507.14526367 -225.57861328 506.46972656 C-227.52043598 505.10215703 -228.67782373 503.89639346 -230.05297852 501.96948242 C-230.51994141 501.31705566 -230.9869043 500.66462891 -231.46801758 499.99243164 C-231.96011719 499.27974121 -232.4522168 498.56705078 -232.95922852 497.83276367 C-233.73991699 496.71345459 -233.73991699 496.71345459 -234.53637695 495.5715332 C-240.24797227 487.22711541 -245.22358757 478.48081562 -250.09155273 469.62524414 C-251.38541521 467.27910794 -252.70232929 464.94753741 -254.02563477 462.61791992 C-254.77555576 461.27354937 -255.52433581 459.92854145 -256.27172852 458.58276367 C-256.61558594 457.98189941 -256.95944336 457.38103516 -257.3137207 456.76196289 C-259.50824482 452.72539692 -259.50824482 452.72539692 -259.29150391 450.16015625 C-258.17853205 447.46571308 -256.78024991 446.5976918 -254.37329102 444.97338867 C-253.52927734 444.39476074 -252.68526367 443.81613281 -251.81567383 443.2199707 C-250.91429687 442.61781738 -250.01291992 442.01566406 -249.08422852 441.39526367 C-247.25820897 440.148598 -245.43268491 438.90120626 -243.60766602 437.65307617 C-242.72304688 437.05269531 -241.83842773 436.45231445 -240.92700195 435.83374023 C-236.36102971 432.70965397 -231.90928912 429.43177632 -227.45922852 426.14526367 C-228.67085217 420.16227132 -230.25439229 414.46498095 -232.27172852 408.70776367 C-234.43401109 402.37888789 -236.42448309 396.02862057 -238.20922852 389.58276367 C-238.40750244 388.86999268 -238.60577637 388.15722168 -238.81005859 387.42285156 C-242.81902793 372.72215467 -242.81902793 372.72215467 -242.45922852 367.14526367 C-243.2984082 367.1684668 -244.13758789 367.19166992 -245.00219727 367.21557617 C-252.92634518 367.33448086 -260.69372892 366.97049593 -268.58422852 366.20776367 C-269.48423584 366.12091309 -270.38424316 366.0340625 -271.31152344 365.94458008 C-275.4202538 365.52600873 -279.41422314 364.99714876 -283.45922852 364.14526367 C-285.68068942 350.18467197 -285.735269 336.32332759 -285.66503906 322.21166992 C-285.64656577 318.36134333 -285.64453145 314.51125537 -285.64477539 310.66088867 C-285.63986656 308.20255326 -285.63404103 305.74421946 -285.62719727 303.28588867 C-285.62608444 302.14009338 -285.62497162 300.9942981 -285.62382507 299.81378174 C-285.61744522 298.74786804 -285.61106537 297.68195435 -285.60449219 296.58374023 C-285.59877449 295.18505707 -285.59877449 295.18505707 -285.59294128 293.75811768 C-285.45850949 291.13121325 -285.04143865 288.70703893 -284.45922852 286.14526367 C-275.03778693 284.51898497 -265.68525856 283.60888313 -256.14672852 283.02026367 C-254.80880384 282.93354784 -253.47091285 282.84631064 -252.13305664 282.75854492 C-248.9087385 282.54902244 -245.68418476 282.3446794 -242.45922852 282.14526367 C-242.36943726 280.86159912 -242.36943726 280.86159912 -242.27783203 279.55200195 C-240.98508175 261.80891042 -236.48757297 245.78465175 -231.25952148 228.82397461 C-230.59713679 226.60686514 -229.99536465 224.39556288 -229.45922852 222.14526367 C-231.03897461 221.12819336 -231.03897461 221.12819336 -232.65063477 220.09057617 C-242.31156657 213.86058739 -251.91371039 207.55062591 -261.45922852 201.14526367 C-255.92183688 176.85073756 -239.19824811 153.45958564 -225.45922852 133.14526367 C-224.14672852 133.39526367 -222.83422852 133.64526367 -221.52172852 133.89526367 C-220.79083008 134.03448242 -220.05993164 134.17370117 -219.30688477 134.31713867 C-216.03282782 135.26926497 -213.07893221 136.61813119 -209.98095703 138.03100586 C-205.52397641 140.00037943 -200.95676363 141.68168054 -196.39672852 143.39526367 C-195.43573242 143.7587793 -194.47473633 144.12229492 -193.48461914 144.49682617 C-191.14368536 145.38195536 -188.80189104 146.26472248 -186.45922852 147.14526367 C-186.15919922 146.52756104 -185.85916992 145.9098584 -185.55004883 145.2734375 C-178.73376273 131.97496706 -159.98442886 110.90786384 -146.45922852 104.14526367 C-147.08178946 99.67809726 -148.84062789 96.01978637 -150.87329102 92.05151367 C-151.5586416 90.67804258 -152.24352338 89.30433747 -152.92797852 87.93041992 C-154.00663385 85.78147474 -155.08949399 83.6349273 -156.1809082 81.49243164 C-157.23658707 79.41391514 -158.2747013 77.32734812 -159.31079102 75.23901367 C-159.64092194 74.60241821 -159.97105286 73.96582275 -160.31118774 73.30993652 C-161.69358693 70.49950637 -162.47650693 68.49596047 -162.32104492 65.34057617 C-160.97515486 61.9121786 -158.22551638 60.4988744 -155.20922852 58.64526367 C-154.54737549 58.22293457 -153.88552246 57.80060547 -153.20361328 57.36547852 C-151.74482277 56.43929946 -150.28109025 55.52087138 -148.81323242 54.60913086 C-146.38565071 53.09950838 -143.97487104 51.56531469 -141.56469727 50.02807617 C-132.39973328 44.22575902 -123.10322978 38.7226295 -113.58422852 33.52026367 C-112.67535889 33.02349121 -111.76648926 32.52671875 -110.83007812 32.01489258 C-106.1201796 29.4757807 -101.4174241 27.15826406 -96.45922852 25.14526367 C-91.04119167 32.33005167 -85.97310943 39.73767724 -80.95922852 47.20776367 C-80.32355957 48.14837646 -79.68789063 49.08898926 -79.03295898 50.05810547 C-78.44144043 50.94409424 -77.84992188 51.83008301 -77.24047852 52.74291992 C-76.70487305 53.54221924 -76.16926758 54.34151855 -75.61743164 55.16503906 C-74.45922852 57.14526367 -74.45922852 57.14526367 -74.45922852 59.14526367 C-73.82122314 58.929104 -73.18321777 58.71294434 -72.52587891 58.49023438 C-65.18158869 56.00740662 -57.82503972 53.56346897 -50.45922852 51.14526367 C-49.63986816 50.87423828 -48.82050781 50.60321289 -47.97631836 50.32397461 C-36.00489616 46.40547302 -23.12856761 43.14526367 -10.45922852 43.14526367 C-10.34329346 41.8781958 -10.2273584 40.61112793 -10.10791016 39.30566406 C-9.67817311 34.62197231 -9.24257835 29.93884096 -8.80517578 25.25585938 C-8.61639129 23.22573501 -8.42921361 21.19546058 -8.24365234 19.16503906 C-7.97725085 16.2530931 -7.70514825 13.34172891 -7.43188477 10.43041992 C-7.34955093 9.51688248 -7.2672171 8.60334503 -7.18238831 7.66212463 C-6.45555126 0.02381704 -6.45555126 0.02381704 0 0 Z " fill="#AA6929" transform="translate(588.459228515625,197.854736328125)"/>
<path d="M0 0 C1.84440606 0.00056541 3.68881258 0.00024503 5.53321838 -0.00088501 C10.49714738 -0.00145447 15.46097801 0.01023337 20.42488432 0.02426291 C25.62851673 0.03683866 30.83215186 0.03794613 36.03579712 0.04031372 C45.87036654 0.04650849 55.70489104 0.06289198 65.53944075 0.0830127 C76.74389901 0.10543433 87.94835951 0.11638083 99.15283465 0.12640357 C122.18345756 0.14726015 145.21404071 0.18239685 168.24462891 0.22705078 C166.94853697 3.57571851 165.6507167 6.30290284 163.47900391 9.16845703 C162.64937134 10.2755603 162.64937134 10.2755603 161.80297852 11.4050293 C160.90784546 12.58536743 160.90784546 12.58536743 159.99462891 13.78955078 C154.94061134 20.54591913 149.99574009 27.35976841 145.18212891 34.28955078 C138.64898021 43.6833136 132.01058166 52.99926336 125.24462891 62.22705078 C124.84372827 62.91394013 124.44282763 63.60082949 124.02977848 64.30853367 C122.24462891 66.22705078 122.24462891 66.22705078 119.60766506 66.72089291 C118.00525259 66.71668252 118.00525259 66.71668252 116.37046814 66.71238708 C115.1439151 66.7190741 113.91736206 66.72576111 112.65364075 66.73265076 C111.29195858 66.7199627 109.93027953 66.70693551 108.56860352 66.69360352 C107.13612695 66.69415218 105.7036501 66.69652645 104.2711792 66.70059204 C101.1837516 66.70577422 98.0966786 66.69867929 95.0092907 66.68234062 C90.12087974 66.65723826 85.23281952 66.66350318 80.34437561 66.67481995 C68.19621971 66.69803436 56.0481636 66.67966212 43.90002441 66.65332031 C34.47037192 66.63334134 25.04100031 66.62486781 15.61134726 66.65025669 C10.75917431 66.66203255 5.90780187 66.65050763 1.05571258 66.62100399 C-1.97568381 66.60767353 -5.00677567 66.61521768 -8.03816223 66.62828445 C-9.43529266 66.63012887 -10.83246611 66.62353297 -12.22950554 66.607481 C-20.73580127 66.51515028 -27.69624728 67.12455487 -34.75537109 72.22705078 C-40.64383069 78.43837341 -41.1626002 84.4577258 -41.10302734 92.69580078 C-40.62155084 97.58630367 -39.13431599 100.69958083 -35.75537109 104.22705078 C-29.78873687 108.96976004 -22.38052132 108.3732027 -15.12011719 108.36889648 C-14.16625626 108.37237091 -13.21239532 108.37584534 -12.22962952 108.37942505 C-10.16226149 108.38676126 -8.09488569 108.39211798 -6.02750778 108.39571571 C-2.73658774 108.40292452 0.5541869 108.41862856 3.84506226 108.4370575 C13.20121129 108.48928606 22.55728288 108.53736979 31.91357422 108.55297852 C37.64599673 108.56316568 43.37805508 108.59276479 49.11033249 108.63429832 C51.27640377 108.64646963 53.44252683 108.65175549 55.60863113 108.64949989 C80.34146903 108.63010139 103.72912487 111.83797656 123.24462891 128.22705078 C123.87498047 128.74525391 124.50533203 129.26345703 125.15478516 129.79736328 C137.92184953 141.37205946 145.11405583 159.10797558 146.46606445 175.99243164 C147.00599294 188.92423685 146.1966157 200.88655562 142.24462891 213.22705078 C142.03563965 213.89784668 141.82665039 214.56864258 141.61132812 215.25976562 C136.47822299 231.33580499 128.199797 244.39143437 116.24462891 256.22705078 C115.46603516 257.02755859 114.68744141 257.82806641 113.88525391 258.65283203 C98.1218433 273.96661515 73.39822179 283.38379057 51.57495117 283.34057617 C50.29415176 283.34050064 49.01335236 283.34042511 47.69374084 283.34034729 C46.31617188 283.33524223 44.93860331 283.33002626 43.56103516 283.32470703 C42.13614451 283.32283938 40.71125322 283.32141712 39.28636169 283.32041931 C35.55622551 283.31662144 31.82612895 283.3068148 28.0960083 283.29571533 C24.28162166 283.28544219 20.46722855 283.2809091 16.65283203 283.27587891 C9.18341303 283.2651898 1.71402654 283.24814659 -5.75537109 283.22705078 C-3.63016038 279.44451093 -1.54190853 275.74425517 1.02197266 272.23876953 C1.52849365 271.54211182 2.03501465 270.8454541 2.55688477 270.12768555 C3.36138062 269.03218384 3.36138062 269.03218384 4.18212891 267.91455078 C5.34892171 266.31308018 6.51558479 264.71151504 7.68212891 263.10986328 C8.27509766 262.29807617 8.86806641 261.48628906 9.47900391 260.64990234 C11.6951517 257.60882786 13.89333166 254.55505801 16.09082031 251.50048828 C21.29037292 244.276317 26.53240118 237.08400988 31.80712891 229.91455078 C32.39099365 229.11992432 32.9748584 228.32529785 33.57641602 227.5065918 C34.65645642 226.0417801 35.74263432 224.58146493 36.83618164 223.12670898 C38.01818122 221.53247451 39.14262102 219.89578621 40.25244141 218.25048828 C42.92963203 215.53130251 44.79964021 215.47804279 48.55712891 215.16455078 C55.47509658 214.32694931 59.53684031 213.01005573 64.49462891 207.91455078 C68.960403 201.05639771 70.29353841 195.40131106 69.24462891 187.22705078 C67.58578025 181.65582323 64.04093505 179.00917066 59.14697266 176.17236328 C55.95565049 174.58653173 53.3884172 174.1005907 49.87797546 174.08901978 C48.98535507 174.08356644 48.09273468 174.0781131 47.17306519 174.07249451 C46.19596588 174.07145218 45.21886658 174.07040985 44.2121582 174.06933594 C43.1808226 174.06425522 42.149487 174.0591745 41.0868988 174.05393982 C38.84267213 174.04322735 36.59843471 174.03461062 34.35419273 174.02782059 C30.79212777 174.0160248 27.23018368 173.99656588 23.66816711 173.97470093 C13.5383411 173.91313729 3.40852504 173.85921203 -6.72143555 173.82568359 C-12.91715357 173.80462502 -19.11265502 173.7692236 -25.30824852 173.72492599 C-27.6607017 173.71084412 -30.01319325 173.70206139 -32.36568642 173.69887161 C-47.84262209 173.67568229 -62.06848277 173.19248866 -76.50537109 166.97705078 C-77.21999512 166.67549072 -77.93461914 166.37393066 -78.67089844 166.06323242 C-84.58521246 163.47865173 -89.7306796 160.2905797 -94.75537109 156.22705078 C-95.37412109 155.76943359 -95.99287109 155.31181641 -96.63037109 154.84033203 C-110.45341155 144.07193668 -117.38505746 126.12873416 -119.75537109 109.22705078 C-122.62746572 82.41699709 -112.36746248 57.54307371 -95.88037109 36.91455078 C-81.81902049 20.60338408 -62.85584765 10.03882822 -42.25537109 4.47705078 C-41.5210083 4.27821289 -40.78664551 4.079375 -40.0300293 3.87451172 C-26.69118868 0.48935813 -13.66571682 -0.05931506 0 0 Z " fill="#AA6929" transform="translate(693.75537109375,366.77294921875)"/>
<path d="M0 0 C4.02348918 16.92547783 5.44195169 33.5872315 5.4375 50.9375 C5.4385675 51.82953125 5.43963501 52.7215625 5.44073486 53.640625 C5.38116426 88.29988581 -3.36524264 122.50064394 -27.75 148.1875 C-39.52892463 159.52949388 -53.14511203 166.62826344 -68.875 170.875 C-69.67180176 171.0905957 -70.46860352 171.30619141 -71.28955078 171.52832031 C-75.99316657 172.71828478 -80.15052975 173.21984265 -85 173 C-85.25797363 173.84046875 -85.51594727 174.6809375 -85.78173828 175.546875 C-87.09324655 179.26430446 -88.7243688 182.73604722 -90.4921875 186.25 C-90.83455948 186.93738251 -91.17693146 187.62476501 -91.52967834 188.33297729 C-92.64012458 190.55768599 -93.75710641 192.7790253 -94.875 195 C-95.44324997 196.13384125 -95.44324997 196.13384125 -96.02297974 197.29058838 C-102.07413841 209.3596497 -108.33270167 221.29074219 -114.94116211 233.06591797 C-116.01150809 235.02102077 -117.01579871 237.00034408 -118 239 C-117.20980469 238.63648438 -116.41960938 238.27296875 -115.60546875 237.8984375 C-100.35114353 231.09936683 -84.38233111 226.23107982 -68 223 C-67.24654297 222.84901855 -66.49308594 222.69803711 -65.71679688 222.54248047 C-49.22003008 219.37501924 -32.71926077 219.68319348 -16 220 C-19.0091524 221.65214377 -21.80777159 222.53051428 -25.15625 223.26171875 C-26.16953369 223.49004395 -27.18281738 223.71836914 -28.22680664 223.95361328 C-29.84703735 224.31688721 -29.84703735 224.31688721 -31.5 224.6875 C-39.83522226 226.6214796 -47.98977468 228.77930251 -56.0625 231.625 C-56.85140625 231.90174561 -57.6403125 232.17849121 -58.453125 232.46362305 C-62.87503656 234.07189359 -67.07098306 235.93476537 -71.24682617 238.10327148 C-74.8566304 239.94964538 -78.61337433 241.47466052 -82.40234375 242.91015625 C-115.69944991 255.93945866 -143.63587801 280.01927997 -169.375 304.234375 C-186.03317905 319.65444615 -205.02622478 332.32046549 -225 343 C-225.62422852 343.33741211 -226.24845703 343.67482422 -226.89160156 344.02246094 C-238.82560731 350.42348443 -251.32551277 355.2746763 -264 360 C-264.84965332 360.31807617 -265.69930664 360.63615234 -266.57470703 360.96386719 C-268.87913135 361.82078879 -271.18776362 362.66441419 -273.5 363.5 C-274.49471313 363.86472412 -274.49471313 363.86472412 -275.50952148 364.23681641 C-279.69611415 365.71443735 -283.61462749 366.50268972 -288 367 C-285.97011095 362.71931358 -283.28000016 359.14563653 -280.4375 355.375 C-279.9010083 354.66150391 -279.3645166 353.94800781 -278.81176758 353.21289062 C-275.16003142 348.40697315 -271.35467154 343.81857075 -267.23046875 339.40625 C-265.34735416 337.37472883 -263.52977716 335.30998361 -261.71875 333.21484375 C-247.53845223 316.96607334 -232.25201247 305.14237948 -213.6953125 294.34375 C-201.42421942 287.18179544 -189.24024243 279.71253241 -178 271 C-177.16082031 270.35289062 -176.32164062 269.70578125 -175.45703125 269.0390625 C-161.70185132 258.10806279 -149.31961776 245.49286238 -137 233 C-153.48461945 227.30783752 -170.22882861 224.12398055 -187.44433594 221.54443359 C-191.3449614 220.94718045 -195.23908376 220.31615696 -199.1328125 219.67578125 C-199.82322128 219.56257538 -200.51363007 219.44936951 -201.22496033 219.33273315 C-204.60649133 218.77812619 -207.98765916 218.22147311 -211.3684082 217.66210938 C-217.61572006 216.64439622 -223.81669268 215.72755934 -230.12915039 215.23510742 C-232 215 -232 215 -234 214 C-251.61394344 211.28734126 -269.75252152 211.62419945 -287.53271484 211.62939453 C-290.49683215 211.62955637 -293.46032658 211.61573906 -296.42431641 211.58837891 C-323.79049926 211.34024431 -350.35668674 213.71278216 -377.1875 219.375 C-377.91205383 219.52406799 -378.63660767 219.67313599 -379.38311768 219.82672119 C-390.47847881 222.11085648 -401.4145884 224.73569776 -412.22607422 228.1328125 C-415.45768492 229.14308192 -418.69916742 230.11813924 -421.94140625 231.09375 C-439.94664846 236.54959735 -457.87835181 242.31631341 -475.16674805 249.78564453 C-477.88543696 250.95089732 -480.61993707 252.0681819 -483.359375 253.18359375 C-490.90447582 256.32748206 -498.2698626 259.81417103 -505.625 263.375 C-506.34010742 263.72082123 -507.05521484 264.06664246 -507.79199219 264.42294312 C-529.27148923 274.84956814 -550.51706228 286.52499066 -569.74609375 300.74609375 C-570.3393042 301.17873535 -570.93251465 301.61137695 -571.54370117 302.05712891 C-573.13083886 303.22482986 -574.69908738 304.4180861 -576.265625 305.61328125 C-579 307 -579 307 -581.37109375 306.5625 C-584.97089945 304.42294238 -588.40614334 302.12238688 -591.8125 299.6875 C-592.55733643 299.15842041 -593.30217285 298.62934082 -594.06958008 298.08422852 C-600.63940295 293.36297006 -606.91264093 288.32270407 -613.14453125 283.16796875 C-616.83110467 280.11979516 -620.59423424 277.17984776 -624.375 274.25 C-636.22108012 265.01015794 -636.22108012 265.01015794 -641 260 C-641 259.34 -641 258.68 -641 258 C-610.2737475 243.53264066 -610.2737475 243.53264066 -598 239 C-597.14003418 238.67612305 -596.28006836 238.35224609 -595.39404297 238.01855469 C-561.82595107 225.40577542 -527.52717063 216.09722775 -491.94433594 211.41943359 C-489.18554055 211.02643107 -486.465049 210.53281041 -483.7265625 210.01953125 C-464.28490291 206.77293832 -444.53054479 206.63402592 -424.875 206.6875 C-422.99441391 206.6882402 -422.99441391 206.6882402 -421.07583618 206.68899536 C-372.96670039 206.7466953 -372.96670039 206.7466953 -354.38671875 210.5324707 C-345.14512196 212.34278759 -336.21848699 210.21624021 -327.1875 208.25 C-281.33625769 198.86495343 -233.37434773 197.89811214 -187 204 C-186.14148438 204.11214844 -185.28296875 204.22429687 -184.3984375 204.33984375 C-179.22775784 205.04971672 -174.12044038 205.9958446 -169 207 C-167.14460782 207.35441777 -165.28920318 207.70877125 -163.43362427 208.06221008 C-151.61085851 210.3158033 -139.79892536 212.6245987 -128 215 C-128.45728972 208.2549766 -129.98795284 202.41628131 -132.16015625 196.015625 C-132.95341338 193.16727846 -133.16842615 190.93387492 -133 188 C-133.60585938 187.98582031 -134.21171875 187.97164062 -134.8359375 187.95703125 C-146.8271711 187.27445334 -154.77557349 181.42642997 -163 173 C-175.94565689 157.67084672 -177.24781446 137.22300581 -176 118 C-173.95230803 101.90461606 -173.95230803 101.90461606 -171 96 C-153.33731751 101.09710127 -136.95080456 115.81364497 -127.83984375 131.5 C-121.82915525 142.93434585 -117.60398122 155.38185825 -120.82421875 168.30859375 C-123.45489805 176.45489805 -123.45489805 176.45489805 -126 179 C-126.268125 178.51273438 -126.53625 178.02546875 -126.8125 177.5234375 C-127.66797525 175.97570266 -128.52789602 174.43042201 -129.390625 172.88671875 C-130.53596955 170.83232645 -131.67022703 168.77173612 -132.796875 166.70703125 C-137.26898223 158.60360932 -142.25368119 151.26270849 -148 144 C-148 147.90962265 -146.40623255 150.64768111 -144.703125 154.0703125 C-144.18518623 155.12908348 -144.18518623 155.12908348 -143.65678406 156.20924377 C-142.52648249 158.51713518 -141.38821173 160.82100102 -140.25 163.125 C-139.47402547 164.70646085 -138.69871935 166.28824983 -137.92407227 167.87036133 C-136.75131855 170.26538554 -135.5781709 172.66020606 -134.40284729 175.05397034 C-130.87252956 182.24530014 -127.39572775 189.46124046 -123.9375 196.6875 C-123.43186523 197.74275879 -122.92623047 198.79801758 -122.40527344 199.88525391 C-121.26938321 202.25645495 -120.13422999 204.62800449 -119 207 C-114.57212782 202.95785897 -111.56841408 198.52809965 -108.4375 193.4375 C-107.65487793 192.18175171 -107.65487793 192.18175171 -106.85644531 190.90063477 C-102.76190376 184.30448817 -98.761434 177.6521482 -94.78735352 170.98291016 C-90.55179646 163.88334878 -86.21966139 156.84569952 -81.875 149.8125 C-72.30567588 134.28140623 -63.20448362 118.7361603 -54.859375 102.5078125 C-51.99793607 96.95454573 -49.01470891 91.47128569 -46 86 C-65.99881344 102.73370104 -80.76974766 124.49964538 -92.5 147.625 C-92.83854004 148.28806152 -93.17708008 148.95112305 -93.52587891 149.63427734 C-95.22355099 153.06390903 -96.47578943 156.19947339 -97 160 C-97.99 159.67 -98.98 159.34 -100 159 C-108.18661535 141.840155 -108.00338024 119.24040124 -104 101 C-103.79375 100.04996094 -103.5875 99.09992188 -103.375 98.12109375 C-102.00089408 92.50755875 -100.0177719 87.57149905 -97.28125 82.484375 C-95.89809964 79.882376 -95.89809964 79.882376 -94.5703125 76.59375 C-78.85773933 40.63462733 -41.59051577 16.85698988 -7.1875 1.2109375 C-4 0 -4 0 0 0 Z " fill="#E10615" transform="translate(1033,470)"/>
<path d="M0 0 C0.23518427 7.34665439 -0.67424118 14.4470704 -1.609375 21.7265625 C-1.77955438 23.07810522 -1.94932474 24.4296995 -2.11871338 25.78134155 C-2.56648023 29.34434325 -3.02033482 32.90654465 -3.4753418 36.46862793 C-3.83412034 39.28543812 -4.18853956 42.10278776 -4.54271126 44.92018032 C-6.36645548 59.42601141 -8.23872446 73.92527081 -10.1640625 88.41796875 C-10.32477234 89.63026154 -10.48548218 90.84255432 -10.65106201 92.09158325 C-11.57051328 98.96886863 -12.55655091 105.83182859 -13.625 112.6875 C-14.71674917 119.76471082 -15.53623474 126.83536573 -16.23535156 133.96142578 C-16.76586031 139.20100505 -17.49965737 144.37033606 -18.375 149.5625 C-20.14290779 160.08793038 -21.29871628 170.68776285 -22.46630859 181.29321289 C-23.26628468 188.44591256 -24.21969959 195.53089988 -25.4609375 202.62109375 C-27.3294289 213.35804929 -28.46085793 224.16810578 -29.625 235 C-29.94861413 237.99728326 -30.27374977 240.99436388 -30.60360718 243.9909668 C-30.80659256 245.83577328 -31.00598254 247.68097985 -31.20132446 249.52661133 C-31.29166962 250.3492749 -31.38201477 251.17193848 -31.47509766 252.01953125 C-31.55265289 252.74245361 -31.63020813 253.46537598 -31.71011353 254.21020508 C-32 256 -32 256 -33 258 C-33.99 265.92 -33.99 265.92 -35 274 C21.1 274 77.2 274 135 274 C130.50814237 281.86075085 130.50814237 281.86075085 128.00390625 285.171875 C127.45186523 285.90905762 126.89982422 286.64624023 126.33105469 287.40576172 C125.74743164 288.17936035 125.16380859 288.95295898 124.5625 289.75 C119.62977599 296.35591022 114.86174747 303.04127269 110.25 309.875 C105.80036485 316.46513607 101.18185241 322.83059228 96.21875 329.04296875 C94.05223319 331.74861777 94.05223319 331.74861777 92.99232846 334.004951 C90.13549034 339.54658409 90.13549034 339.54658409 87.15734708 340.73579502 C84.86714736 341.01111232 82.6943472 341.0286709 80.38835144 340.96203613 C79.08949893 340.97228923 79.08949893 340.97228923 77.76440698 340.98274946 C74.86266813 340.99592858 71.96463005 340.95193848 69.06323242 340.90820312 C66.9837045 340.90594654 64.90417021 340.90721319 62.824646 340.91174316 C57.17787065 340.91404088 51.5324516 340.86697047 45.88599181 340.8111515 C39.98569453 340.76117937 34.08536699 340.75644469 28.18489075 340.74694824 C17.0110193 340.72207194 5.83777318 340.65640707 -5.33582276 340.57615232 C-18.05628542 340.48676826 -30.77677776 340.44275594 -43.49747622 340.40258884 C-69.66533099 340.31894247 -95.83263048 340.17820659 -122 340 C-122.00988466 338.41254931 -122.01690579 336.82508063 -122.0227356 335.23760986 C-122.02695589 334.35359119 -122.03117619 333.46957253 -122.03552437 332.55876541 C-121.98851531 329.17277537 -121.59355547 325.89803178 -121.1171875 322.546875 C-121.02252197 321.86477463 -120.92785645 321.18267426 -120.83032227 320.47990417 C-120.62514979 319.00644433 -120.41695865 317.53340215 -120.20599365 316.0607605 C-119.62387381 311.99681687 -119.06398812 307.92977339 -118.5 303.86328125 C-118.37938202 302.99848648 -118.25876404 302.13369171 -118.13449097 301.24269104 C-117.19915433 294.51404854 -116.30895532 287.780163 -115.4375 281.04296875 C-115.24198044 279.5320314 -115.24198044 279.5320314 -115.04251099 277.99057007 C-114.52863646 274.01333185 -114.01585238 270.03595762 -113.50579834 266.05822754 C-112.25676362 256.32515554 -110.96528568 246.60584587 -109.4765625 236.90625 C-107.93097168 226.81657242 -106.69433493 216.69891125 -105.5 206.5625 C-104.30893659 196.47502035 -103.08756064 186.39928016 -101.62109375 176.34765625 C-100.2841836 167.17799843 -99.06757093 157.99447031 -97.87890625 148.8046875 C-97.78535732 148.08240149 -97.6918084 147.36011547 -97.59542465 146.615942 C-96.72129205 139.86544802 -95.85043885 133.11453285 -94.98217773 126.36328125 C-94.40865257 121.9059163 -93.83222532 117.44893288 -93.25390625 112.9921875 C-93.16012695 112.26814728 -93.06634766 111.54410706 -92.96972656 110.79812622 C-91.53726623 99.76592606 -89.98047846 88.7591174 -88.24501038 77.76974487 C-87.36155688 72.04833449 -86.74968625 66.40798303 -86.49507141 60.62284851 C-86.02575331 51.34819475 -86.02575331 51.34819475 -83.1484375 47.56640625 C-80.53229496 45.65329876 -77.94797877 44.34279661 -75 43 C-72.99132879 41.86943642 -70.99207084 40.72206362 -69 39.5625 C-68.43168457 39.244021 -67.86336914 38.92554199 -67.27783203 38.59741211 C-60.94501245 35.04435316 -54.79538216 31.20099002 -48.625 27.375 C-36.21328832 19.69185961 -23.67253969 12.2466188 -11 5 C-9.70860107 4.2562915 -9.70860107 4.2562915 -8.39111328 3.49755859 C-7.58270996 3.03816895 -6.77430664 2.5787793 -5.94140625 2.10546875 C-5.22799072 1.6983667 -4.5145752 1.29126465 -3.77954102 0.87182617 C-2 0 -2 0 0 0 Z " fill="#E10313" transform="translate(572,310)"/>
<path d="M0 0 C1.74915393 -0.00524714 3.49830503 -0.01152757 5.24745178 -0.01878357 C8.89777017 -0.02913991 12.54769757 -0.02469547 16.19799805 -0.01000977 C20.84575684 0.00717065 25.49227835 -0.01633278 30.13989925 -0.05149937 C33.74764494 -0.07359661 37.35510016 -0.0720023 40.96289253 -0.06373405 C42.6750887 -0.06292126 44.38730767 -0.06965427 46.09943962 -0.08450508 C58.944169 -0.1788659 69.72676246 1.46659188 80.09765625 9.828125 C86.10901998 15.79923406 90.06503995 22.92982157 90.15405273 31.45141602 C90.17004013 32.61355118 90.18602753 33.77568634 90.20249939 34.97303772 C90.20786209 36.2220134 90.21322479 37.47098907 90.21875 38.7578125 C90.22777847 40.05404037 90.23680695 41.35026825 90.24610901 42.68577576 C90.26257316 45.43027222 90.27029331 48.17464717 90.27319336 50.91918945 C90.27854849 54.40356289 90.31611708 57.88676108 90.36193752 61.37080479 C90.39920686 64.7289637 90.40024072 68.08695442 90.40625 71.4453125 C90.42578232 72.68011856 90.44531464 73.91492462 90.46543884 75.18714905 C90.41317731 85.36992041 88.13880247 94.13065827 81.34765625 101.94140625 C72.90380247 109.6307712 62.43996579 112.67399317 51.25415039 112.71166992 C49.96162857 112.71804977 48.66910675 112.72442963 47.3374176 112.73100281 C45.93588295 112.73253291 44.5343478 112.73364611 43.1328125 112.734375 C41.67516549 112.73759471 40.2175188 112.7409593 38.75987244 112.74446106 C35.70440932 112.75043841 32.64897441 112.75230267 29.59350586 112.75170898 C25.72089377 112.75160807 21.84846794 112.76519311 17.9758997 112.78248119 C14.96171783 112.79373198 11.94757891 112.79562415 8.93337822 112.79509926 C7.50835981 112.79626239 6.08333966 112.80058767 4.65834236 112.80843163 C-10.84852491 112.88572407 -26.44812055 112.93518503 -38.46484375 101.87890625 C-50.04651161 89.45323021 -48.42215589 74.35446139 -48.50244141 58.48071289 C-48.51898176 56.0883612 -48.54624605 53.69605853 -48.58447266 51.30395508 C-48.63965583 47.82477619 -48.661178 44.34674694 -48.67578125 40.8671875 C-48.69845062 39.81364578 -48.72112 38.76010406 -48.74447632 37.67463684 C-48.71956605 28.7806572 -46.30800204 20.39698653 -40.90234375 13.19140625 C-28.79091653 1.63049845 -15.9958874 -0.05881154 0 0 Z " fill="#E10515" transform="translate(306.15234375,894.43359375)"/>
<path d="M0 0 C2.6852896 0.00008143 5.3704092 -0.00690849 8.05566406 -0.02050781 C33.66221264 -0.14796446 33.66221264 -0.14796446 46.30908203 1.07202148 C47.1291272 1.14975296 47.94917236 1.22748444 48.79406738 1.30757141 C54.26563319 1.92310389 54.26563319 1.92310389 56.52783203 4.18530273 C55.8053125 4.28029053 55.08279297 4.37527832 54.33837891 4.47314453 C38.44089296 6.58837383 22.76506458 9.15013689 7.1081543 12.62817383 C4.59401962 13.17101188 2.07418217 13.65862361 -0.45263672 14.13842773 C-5.94553695 15.22858044 -11.29023949 16.72888351 -16.65966797 18.31030273 C-17.68979004 18.61234619 -18.71991211 18.91438965 -19.78125 19.22558594 C-33.45801423 23.29741346 -46.98517768 27.89815354 -60.20654297 33.2734375 C-62.49199161 34.19328132 -64.79143987 35.06774734 -67.09716797 35.93530273 C-72.36591084 38.02950337 -77.38389489 40.5824789 -82.41210938 43.19213867 C-85.97574021 45.02116343 -89.53728827 46.63261718 -93.27685547 48.07202148 C-98.95127589 50.29917201 -104.2519396 53.07837956 -109.59716797 55.99780273 C-110.6297876 56.56039795 -111.66240723 57.12299316 -112.72631836 57.70263672 C-130.33725772 67.41630581 -147.29375268 78.23803258 -163.47216797 90.18530273 C-164.04435059 90.60585938 -164.6165332 91.02641602 -165.20605469 91.4597168 C-176.77994389 100.01565596 -187.55445731 109.53115403 -198.15966797 119.24780273 C-198.68786133 119.72862305 -199.21605469 120.20944336 -199.76025391 120.70483398 C-202.52285735 123.25440508 -205.12805958 125.86859057 -207.63232422 128.67358398 C-215.02588694 136.87266202 -215.02588694 136.87266202 -218.69482422 137.66577148 C-221.1747046 137.16979541 -223.17940924 136.25405326 -225.47216797 135.18530273 C-227.63714948 134.53384267 -229.80405605 133.88876751 -231.97216797 133.24780273 C-248.01639703 127.92952647 -263.41825755 120.42429793 -278.40966797 112.68530273 C-279.39257812 112.18119873 -280.37548828 111.67709473 -281.38818359 111.15771484 C-282.29117187 110.68213135 -283.19416016 110.20654785 -284.12451172 109.71655273 C-284.91849365 109.29954102 -285.71247559 108.8825293 -286.53051758 108.45288086 C-288.47216797 107.18530273 -288.47216797 107.18530273 -290.47216797 104.18530273 C-284.54936238 98.77571863 -278.46955608 93.72283384 -272.03466797 88.93530273 C-271.17139893 88.29125488 -270.30812988 87.64720703 -269.41870117 86.98364258 C-206.5907439 40.49244614 -206.5907439 40.49244614 -179.47216797 37.18530273 C-179.47216797 36.52530273 -179.47216797 35.86530273 -179.47216797 35.18530273 C-147.66409788 22.77793169 -115.07753523 11.71062195 -81.17138672 6.79077148 C-77.92905361 6.26008338 -74.8261666 5.50985039 -71.64916992 4.68701172 C-67.38664477 3.70467582 -63.05649926 3.18466049 -58.72216797 2.62280273 C-57.82884766 2.49711914 -56.93552734 2.37143555 -56.01513672 2.24194336 C-37.46255951 -0.19515585 -18.67441654 -0.00290064 0 0 Z " fill="#E10414" transform="translate(777.47216796875,692.814697265625)"/>
<path d="M0 0 C-2.11265291 2.11265291 -3.33969391 2.63681833 -6.10546875 3.62109375 C-6.92466797 3.91693359 -7.74386719 4.21277344 -8.58789062 4.51757812 C-9.44576172 4.82115234 -10.30363281 5.12472656 -11.1875 5.4375 C-16.87230888 7.46934945 -22.47538014 9.55569866 -28 12 C-28.69037354 12.30236572 -29.38074707 12.60473145 -30.09204102 12.91625977 C-58.312054 25.30798373 -84.01639004 39.91277049 -109 58 C-109.72590332 58.52480957 -110.45180664 59.04961914 -111.19970703 59.59033203 C-120.8641769 66.6151866 -130.08380535 74.04793129 -139 82 C-139.52625977 82.46841309 -140.05251953 82.93682617 -140.59472656 83.41943359 C-153.93197557 95.35822183 -167.07059962 107.78976673 -178 122 C-178.94479846 123.19154646 -179.89154 124.38155387 -180.83984375 125.5703125 C-181.83118665 126.81734479 -182.82207691 128.06473705 -183.8125 129.3125 C-184.26931152 129.88766357 -184.72612305 130.46282715 -185.19677734 131.05541992 C-187.32054361 133.75736176 -189.33597035 136.46635796 -191.19921875 139.35546875 C-193 142 -193 142 -195 143 C-196.54797484 143.1001573 -198.10017103 143.13833166 -199.65136719 143.14526367 C-200.62128601 143.15164352 -201.59120483 143.15802338 -202.59051514 143.16459656 C-203.64861389 143.16570938 -204.70671265 143.1668222 -205.796875 143.16796875 C-206.89606262 143.17129715 -207.99525024 143.17462555 -209.12774658 143.17805481 C-211.47155336 143.1831326 -213.81536741 143.18546287 -216.15917969 143.18530273 C-219.66614683 143.18744869 -223.17277784 143.20547987 -226.6796875 143.22460938 C-245.20990172 143.27080258 -264.81795388 143.11668969 -283 139 C-283.66 138.34 -284.32 137.68 -285 137 C-279.37672789 129.8878237 -273.51481829 123.3008279 -267 117 C-264.25736494 114.27558843 -261.53812192 111.53003077 -258.8359375 108.765625 C-251.8925827 101.69007305 -244.85894284 95.06726675 -237 89 C-235.72377537 87.99502397 -234.44774772 86.98979776 -233.171875 85.984375 C-207.92710733 66.23559128 -179.63270456 48.36640426 -150 36 C-148.60176522 35.37484893 -147.20471177 34.74705164 -145.80859375 34.1171875 C-110.97245925 18.60335809 -75.15203559 8.48423561 -37.54858398 2.43310547 C-35.83937714 2.14264346 -34.13540662 1.81963262 -32.43823242 1.46557617 C-30.17823965 1.03403455 -28.0370438 0.80380554 -25.7421875 0.68359375 C-24.56329956 0.6206311 -24.56329956 0.6206311 -23.3605957 0.55639648 C-22.54034912 0.51716064 -21.72010254 0.4779248 -20.875 0.4375 C-20.03348389 0.3950415 -19.19196777 0.35258301 -18.32495117 0.30883789 C-12.21395193 0.01688685 -6.11817499 -0.12373837 0 0 Z " fill="#E10414" transform="translate(888,703)"/>
<path d="M0 0 C11.22 0 22.44 0 34 0 C41.74452555 7.74452555 41.74452555 7.74452555 45.125 12.0625 C48.74056561 16.56036234 52.54282092 20.80085984 56.5 25 C61.18781945 29.97920251 65.61234266 35.08182915 69.890625 40.421875 C72.01985146 43.0242629 74.23449357 45.51575502 76.5 48 C80.35477722 52.230199 83.99076641 56.59859896 87.56640625 61.06640625 C90.93997412 65.13309882 94.48960881 69.05080991 98 73 C98.33 48.91 98.66 24.82 99 0 C108.24 0 117.48 0 127 0 C127 36.63 127 73.26 127 111 C115.78 111 104.56 111 93 111 C82.97524752 99.86138614 82.97524752 99.86138614 79.6875 95.75 C74.75726906 89.66424618 69.66036666 83.73111227 64.54833984 77.79833984 C62.02707037 74.86997797 59.51397889 71.9346201 57 69 C56.26112549 68.13846313 56.26112549 68.13846313 55.50732422 67.25952148 C52.965833 64.29610787 50.42754147 61.33004236 47.89453125 58.359375 C46.86733456 57.15612444 45.83999253 55.95299794 44.8125 54.75 C44.3184668 54.17088867 43.82443359 53.59177734 43.31542969 52.99511719 C39.49251657 48.5312366 35.55831069 44.18655968 31.546875 39.890625 C30 38 30 38 30 36 C29.34 36 28.68 36 28 36 C28 61.08 28 86.16 28 112 C18.76 112 9.52 112 0 112 C0 75.04 0 38.08 0 0 Z " fill="#E10514" transform="translate(884,896)"/>
<path d="M0 0 C2.02451766 0.00560421 4.04903942 0.0098704 6.07356262 0.01286316 C11.36882006 0.02424698 16.66382558 0.05365774 21.95898438 0.0869751 C27.37561639 0.11781619 32.79228962 0.13139835 38.20898438 0.14648438 C48.81262776 0.17853433 59.41601902 0.23124866 70.01953125 0.29296875 C70.01953125 7.88296875 70.01953125 15.47296875 70.01953125 23.29296875 C67.47081299 23.30231445 64.92209473 23.31166016 62.29614258 23.32128906 C53.87418826 23.35505966 45.45247895 23.41060904 37.03072071 23.47687149 C31.92468291 23.51637689 26.81881836 23.54855037 21.71264648 23.56396484 C16.78466431 23.57911121 11.85715833 23.6135209 6.92938805 23.66127777 C5.04957913 23.67611241 3.16970224 23.68401096 1.28983498 23.6848526 C-1.34399532 23.68721776 -3.97650475 23.71426015 -6.61010742 23.74707031 C-7.38694382 23.74203995 -8.16378021 23.73700958 -8.9641571 23.73182678 C-13.91543754 23.82722698 -16.5131169 24.73800628 -19.98046875 28.29296875 C-21.20435795 30.74074714 -20.99683275 32.02687416 -20.73046875 34.73046875 C-20.62992188 35.90416016 -20.62992188 35.90416016 -20.52734375 37.1015625 C-19.87616485 39.71092937 -19.08540787 40.65412329 -16.98046875 42.29296875 C-13.83433632 43.34167956 -11.59408749 43.42983249 -8.29077148 43.45068359 C-6.53765907 43.46607681 -6.53765907 43.46607681 -4.74913025 43.48178101 C-2.85077171 43.492733 -2.85077171 43.492733 -0.9140625 43.50390625 C1.07858357 43.52479261 3.07122962 43.54569661 5.06386471 43.56760597 C9.97422941 43.6206346 14.88460287 43.66480837 19.79516602 43.69433594 C22.54766093 43.71132909 25.29988224 43.73611964 28.05223083 43.76919556 C30.63989663 43.79995837 33.22772712 43.81953665 35.81556702 43.82626343 C47.81801058 43.99324106 58.40227123 46.58829001 67.6171875 54.69921875 C74.35712424 62.11933259 75.62740016 69.86742835 75.34375 79.62890625 C74.50450198 89.11341998 71.41675439 96.20100501 64.51953125 102.85546875 C52.62149654 112.4655215 40.65230557 111.97175986 26.06640625 111.78125 C23.95364219 111.77190867 21.8408672 111.76479881 19.72808838 111.7598114 C14.20413591 111.7408456 8.68085512 111.69183564 3.15716553 111.6362915 C-2.49408893 111.58487296 -8.14545336 111.56224932 -13.796875 111.53710938 C-24.85841344 111.48370573 -35.9192798 111.39585617 -46.98046875 111.29296875 C-46.98046875 103.70296875 -46.98046875 96.11296875 -46.98046875 88.29296875 C-44.43175049 88.27838623 -41.88303223 88.26380371 -39.25708008 88.2487793 C-30.83515061 88.19843734 -22.4134061 88.13184291 -13.99165821 88.05725384 C-8.88564953 88.01253055 -3.779721 87.97327866 1.32641602 87.9465332 C6.25433508 87.92051988 11.18194603 87.88013128 16.10967445 87.82978249 C17.98948649 87.81310046 19.86935183 87.80159451 21.74922752 87.79535484 C24.38287006 87.78572831 27.01572196 87.75768659 29.64916992 87.7253418 C30.81442451 87.72749443 30.81442451 87.72749443 32.0032196 87.72969055 C36.51320493 87.65137909 39.41676992 87.05502969 43.01953125 84.29296875 C45.82770248 80.68246288 45.36583347 76.65637672 45.01953125 72.29296875 C43.20789858 69.61865386 42.14192048 69.33376516 39.01953125 68.29296875 C37.16617764 68.19144803 35.30946241 68.14724724 33.45336914 68.13525391 C32.31110367 68.12499176 31.1688382 68.11472961 29.99195862 68.10415649 C28.13582191 68.0932045 28.13582191 68.0932045 26.2421875 68.08203125 C24.29044193 68.06114198 22.33869639 68.04023494 20.38696194 68.01833153 C15.58055506 67.96536162 10.77413774 67.92120665 5.9675293 67.89160156 C3.2740639 67.87456951 0.58087507 67.84973941 -2.11244202 67.81674194 C-4.64230617 67.78608077 -7.17233638 67.76642428 -9.70237732 67.75967407 C-21.20843594 67.59684385 -32.08208565 66.13202053 -40.98046875 58.29296875 C-47.73192307 51.00850487 -50.55593825 43.80816567 -50.48046875 33.98046875 C-50.47619873 33.14104736 -50.47192871 32.30162598 -50.4675293 31.43676758 C-50.28396684 24.74484596 -48.97713368 19.76906213 -44.98046875 14.29296875 C-44.59632813 13.71546875 -44.2121875 13.13796875 -43.81640625 12.54296875 C-33.54278712 -1.43474435 -15.41503662 -0.12594378 0 0 Z " fill="#E10615" transform="translate(645.98046875,895.70703125)"/>
<path d="M0 0 C1.24533257 -0.00043808 1.24533257 -0.00043808 2.51582336 -0.00088501 C5.23201323 0.00049693 7.94792116 0.01600407 10.6640625 0.03173828 C12.55834809 0.03547246 14.45263561 0.03831752 16.34692383 0.04031372 C21.31172092 0.04791832 26.27639939 0.06753933 31.2411499 0.08972168 C36.3156982 0.11024872 41.39026582 0.11933006 46.46484375 0.12939453 C56.40631027 0.15078842 66.34765792 0.18594446 76.2890625 0.22705078 C76.2890625 7.81705078 76.2890625 15.40705078 76.2890625 23.22705078 C73.92733887 23.23639648 71.56561523 23.24574219 69.13232422 23.25537109 C61.32104893 23.28916866 53.51003705 23.34473304 45.6989727 23.41095352 C40.96401476 23.45042896 36.22924282 23.4826171 31.49414062 23.49804688 C26.92274888 23.51321305 22.35186846 23.54765779 17.7807045 23.5953598 C16.03848851 23.61017403 14.29619951 23.61809182 12.55392075 23.61893463 C10.10945145 23.62130598 7.66639331 23.64839717 5.22216797 23.68115234 C4.50503128 23.67612198 3.78789459 23.67109161 3.04902649 23.66590881 C-1.97778896 23.76983252 -4.8170571 25.10715203 -8.7109375 28.22705078 C-12.58396691 32.68834317 -12.14653711 37.51277012 -12.109375 43.12939453 C-12.11224518 44.08471573 -12.11511536 45.04003693 -12.11807251 46.02430725 C-12.12011008 48.04070632 -12.11460175 50.05712529 -12.10205078 52.07348633 C-12.08601065 55.15051778 -12.10190101 58.22623224 -12.12109375 61.30322266 C-12.11911092 63.26611617 -12.11526642 65.22900886 -12.109375 67.19189453 C-12.11544769 68.10768784 -12.12152039 69.02348114 -12.1277771 69.96702576 C-12.07201465 75.06370803 -11.88301304 79.01473835 -8.7109375 83.22705078 C-2.74819868 87.92478055 3.93823728 87.82809018 11.2265625 87.83642578 C12.90758057 87.86123016 12.90758057 87.86123016 14.62255859 87.88653564 C18.17811654 87.93485699 21.73324723 87.95635225 25.2890625 87.97705078 C27.70965673 88.00522358 30.13023119 88.03515283 32.55078125 88.06689453 C38.46350648 88.14061232 44.37599672 88.19028429 50.2890625 88.22705078 C50.2890625 81.29705078 50.2890625 74.36705078 50.2890625 67.22705078 C41.3790625 67.22705078 32.4690625 67.22705078 23.2890625 67.22705078 C23.2890625 59.63705078 23.2890625 52.04705078 23.2890625 44.22705078 C41.1090625 44.22705078 58.9290625 44.22705078 77.2890625 44.22705078 C77.2890625 65.01705078 77.2890625 85.80705078 77.2890625 107.22705078 C70.17138002 109.89618171 65.53098236 111.34752585 58.15649414 111.40405273 C57.089664 111.41390953 57.089664 111.41390953 56.00128174 111.42396545 C53.65059284 111.44364907 51.29996795 111.45535522 48.94921875 111.46533203 C47.73789685 111.47144532 47.73789685 111.47144532 46.50210381 111.47768211 C42.22072483 111.49853027 37.9393777 111.51283266 33.65795898 111.5222168 C29.26703405 111.53322795 24.87662334 111.56756935 20.48587894 111.6073885 C17.08403176 111.63373324 13.68230326 111.64192472 10.28036308 111.64549828 C8.6638692 111.65032493 7.04737919 111.66182478 5.4309864 111.68053627 C-8.07137974 111.82701972 -21.06964958 110.48971031 -31.7109375 101.22705078 C-39.51853641 93.41945187 -42.13460792 82.81400656 -42.26672363 72.04330444 C-42.25862671 70.97730011 -42.25052979 69.91129578 -42.2421875 68.81298828 C-42.2460144 67.67729401 -42.24984131 66.54159973 -42.25378418 65.37149048 C-42.25648602 62.99000147 -42.2492472 60.60848189 -42.23242188 58.22705078 C-42.21094892 54.60397712 -42.23230523 50.98287717 -42.2578125 47.35986328 C-42.2551697 45.03173396 -42.25004571 42.70360585 -42.2421875 40.37548828 C-42.25433289 38.77040909 -42.25433289 38.77040909 -42.26672363 37.13290405 C-42.13261527 26.2668063 -38.84126152 18.35248089 -31.33984375 10.49267578 C-22.40112725 2.78917568 -11.5516115 -0.10842947 0 0 Z " fill="#E10616" transform="translate(1067.7109375,895.77294921875)"/>
<path d="M0 0 C1.47583955 0.0001591 2.95168467 0.00585225 4.42749023 0.01586914 C5.20293686 0.01728409 5.97838348 0.01869904 6.77732849 0.02015686 C9.26361893 0.02577194 11.74982059 0.03832693 14.23608398 0.05102539 C15.91772331 0.05603845 17.59936405 0.06060169 19.28100586 0.06469727 C23.41189965 0.07574626 27.54272674 0.09302094 31.67358398 0.11352539 C37.2887688 9.85199446 42.53665323 19.70363628 47.5234375 29.77978516 C50.41696029 35.61936746 53.37086694 41.41812169 56.42358398 47.17602539 C65.55455118 64.4302128 74.65823146 81.70202644 83.11108398 99.30102539 C83.81092407 100.7526709 83.81092407 100.7526709 84.52490234 102.23364258 C84.94392822 103.11568359 85.3629541 103.99772461 85.79467773 104.90649414 C86.16004639 105.67501709 86.52541504 106.44354004 86.90185547 107.23535156 C87.67358398 109.11352539 87.67358398 109.11352539 87.67358398 111.11352539 C77.11358398 111.11352539 66.55358398 111.11352539 55.67358398 111.11352539 C54.02358398 107.85477539 52.37358398 104.59602539 50.67358398 101.23852539 C50.15151367 100.21259277 49.62944336 99.18666016 49.09155273 98.12963867 C48.68549805 97.32252441 48.27944336 96.51541016 47.86108398 95.68383789 C47.44213867 94.8564209 47.02319336 94.02900391 46.59155273 93.17651367 C45.67358398 91.11352539 45.67358398 91.11352539 45.67358398 89.11352539 C24.55358398 89.44352539 3.43358398 89.77352539 -18.32641602 90.11352539 C-21.62641602 97.04352539 -24.92641602 103.97352539 -28.32641602 111.11352539 C-38.55641602 111.11352539 -48.78641602 111.11352539 -59.32641602 111.11352539 C-58.20113841 104.36185977 -58.20113841 104.36185977 -56.39282227 100.82055664 C-55.99659668 100.03575928 -55.60037109 99.25096191 -55.19213867 98.44238281 C-54.7620752 97.61198486 -54.33201172 96.78158691 -53.88891602 95.92602539 C-53.44080566 95.04599854 -52.99269531 94.16597168 -52.53100586 93.25927734 C-48.73814934 85.83740404 -44.8613244 78.45890714 -40.95922852 71.09399414 C-38.05667973 65.61348031 -35.19119714 60.11385045 -32.32641602 54.61352539 C-28.28125898 46.85121437 -24.22029269 39.09759665 -20.13525391 31.35620117 C-17.76663868 26.86342366 -15.41363886 22.36288226 -13.07250977 17.85571289 C-12.52272461 16.79803711 -11.97293945 15.74036133 -11.40649414 14.65063477 C-10.32675694 12.57204436 -9.24858487 10.49264005 -8.17211914 8.41235352 C-7.68549805 7.47584961 -7.19887695 6.5393457 -6.69750977 5.57446289 C-6.26365967 4.73705566 -5.82980957 3.89964844 -5.3828125 3.03686523 C-3.78577567 0.12920262 -3.78577567 0.12920262 0 0 Z " fill="#E20515" transform="translate(785.326416015625,895.886474609375)"/>
<path d="M0 0 C1.66436724 0.00186952 3.32873504 0.00329089 4.99310303 0.00428772 C9.33308483 0.0080709 13.67303214 0.01786435 18.01300049 0.0289917 C22.457881 0.03929707 26.90276719 0.04380472 31.34765625 0.04882812 C40.03907994 0.0594912 48.73046918 0.07705299 57.421875 0.09765625 C57.421875 7.35765625 57.421875 14.61765625 57.421875 22.09765625 C55.3380249 22.11223877 53.2541748 22.12682129 51.10717773 22.1418457 C44.20595754 22.1922847 37.30496078 22.25889601 30.40396023 22.33337116 C26.22171917 22.37801262 22.03957413 22.41728222 17.85717773 22.4440918 C13.81750355 22.47018723 9.77820007 22.5106331 5.73875618 22.56084251 C4.20111785 22.5774692 2.66341547 22.58900956 1.1257 22.59527016 C-1.03581312 22.60495747 -3.1963868 22.63306925 -5.35766602 22.6652832 C-7.19966331 22.68193779 -7.19966331 22.68193779 -9.07887268 22.69892883 C-14.33754303 23.29813571 -18.27178207 24.68818098 -21.953125 28.66015625 C-24.95024388 33.15583456 -24.77225174 36.9195192 -24.81640625 42.19921875 C-24.824478 43.10964935 -24.83254974 44.02007996 -24.84086609 44.95809937 C-24.85471404 46.88985283 -24.86543301 48.82163085 -24.87329102 50.75341797 C-24.89043588 53.69026081 -24.93430696 56.62595789 -24.97851562 59.5625 C-24.9886487 61.44139799 -24.99716287 63.32030554 -25.00390625 65.19921875 C-25.02141434 66.07035309 -25.03892242 66.94148743 -25.05696106 67.83901978 C-25.03721696 73.46625713 -24.3450347 78.68205244 -20.578125 83.09765625 C-16.06753127 85.96483077 -12.14909047 86.54091856 -6.92041016 86.5300293 C-6.17826263 86.54022095 -5.43611511 86.5504126 -4.67147827 86.56091309 C-2.23663674 86.59092758 0.19781064 86.60029104 2.6328125 86.609375 C4.32818904 86.6262303 6.02355315 86.64438169 7.71890259 86.66377258 C12.1674206 86.71118645 16.6158882 86.74105139 21.0645752 86.76721191 C25.60955764 86.79706101 30.15436653 86.84357637 34.69921875 86.88867188 C43.6066998 86.9746071 52.51416304 87.04045424 61.421875 87.09765625 C61.421875 95.01765625 61.421875 102.93765625 61.421875 111.09765625 C50.67689689 111.18834883 39.93217674 111.26159714 29.18690109 111.30490494 C24.19639512 111.3256999 19.20616664 111.35386823 14.21582031 111.39941406 C9.39174964 111.4431623 4.56794437 111.46685406 -0.25630951 111.47716522 C-2.08855105 111.48450493 -3.92077954 111.49883642 -5.7529068 111.52057648 C-21.33242812 111.69794013 -34.42162589 109.74726325 -46.328125 98.84765625 C-52.48620141 92.40838913 -54.6377352 84.4050318 -54.78686523 75.67163086 C-54.80615585 74.60959946 -54.82544647 73.54756805 -54.84532166 72.45335388 C-54.90354949 67.59597606 -54.95235661 62.73873825 -54.9831543 57.88110352 C-55.00469679 55.32953323 -55.03875427 52.77803609 -55.08569336 50.22680664 C-55.15307899 46.52587255 -55.18021989 42.82646311 -55.19921875 39.125 C-55.22704941 37.99956284 -55.25488007 36.87412567 -55.28355408 35.71458435 C-55.25822079 25.81598326 -51.96827708 17.71557609 -45.453125 10.22265625 C-32.39711194 -1.4847137 -16.40111456 -0.05472623 0 0 Z " fill="#E10413" transform="translate(466.578125,895.90234375)"/>
<path d="M0 0 C10.23 0 20.46 0 31 0 C31 28.71 31 57.42 31 87 C57.73 87 84.46 87 112 87 C112 94.92 112 102.84 112 111 C75.04 111 38.08 111 0 111 C0 74.37 0 37.74 0 0 Z " fill="#E10312" transform="translate(131,896)"/>
<path d="M0 0 C1.68227188 -0.01913956 1.68227188 -0.01913956 3.39852905 -0.03866577 C4.605867 -0.04089142 5.81320496 -0.04311707 7.05712891 -0.04541016 C8.30241364 -0.05206696 9.54769836 -0.05872375 10.83071899 -0.06558228 C13.46525363 -0.07570883 16.0993756 -0.08126448 18.73388672 -0.08007812 C21.43044809 -0.07991539 24.12633153 -0.09382665 26.82275391 -0.12109375 C30.71359014 -0.1577369 34.60363734 -0.16755105 38.49462891 -0.17041016 C39.6979184 -0.18478119 40.90120789 -0.19915222 42.14096069 -0.21395874 C52.65987776 -0.15656865 52.65987776 -0.15656865 57.40869141 4.29052734 C58.34519531 5.16128906 59.28169922 6.03205078 60.24658203 6.92919922 C63.15021688 11.44334156 63.09919036 14.81524292 63.00244141 20.07177734 C63.00248169 21.00348755 63.00252197 21.93519775 63.00256348 22.8951416 C62.99721897 24.8585487 62.97968212 26.82195603 62.95068359 28.78515625 C62.90882306 31.7811052 62.9096195 34.77480384 62.91650391 37.77099609 C62.90601043 39.68377205 62.89307148 41.59653647 62.87744141 43.50927734 C62.87713928 44.84545105 62.87713928 44.84545105 62.87683105 46.20861816 C62.78040829 51.30535484 62.23351441 54.87780625 59.40869141 59.29052734 C54.70465964 63.74697849 50.33390268 65.5338507 43.88745117 65.56518555 C42.80605362 65.57471756 41.72465607 65.58424957 40.61048889 65.59407043 C39.45205978 65.59315903 38.29363068 65.59224762 37.10009766 65.59130859 C35.90061996 65.59559372 34.70114227 65.59987885 33.46531677 65.60429382 C30.93106721 65.61003159 28.39680117 65.61054147 25.86254883 65.60620117 C21.98897159 65.60304185 18.1161586 65.62650642 14.24267578 65.65185547 C11.77848404 65.65412859 9.31429024 65.6548319 6.85009766 65.65380859 C5.69369278 65.66301834 4.5372879 65.67222809 3.34584045 65.68171692 C-6.7733358 65.62360043 -6.7733358 65.62360043 -11.59130859 62.29052734 C-16.47861519 56.87486328 -16.75034816 53.26633065 -16.75927734 46.15380859 C-16.76260574 45.24100632 -16.76593414 44.32820404 -16.7693634 43.38774109 C-16.77443329 41.45177719 -16.77677171 39.51580452 -16.77661133 37.57983398 C-16.77878696 34.63233776 -16.79691185 31.68522238 -16.81591797 28.73779297 C-16.81885413 26.85563279 -16.82083743 24.97347083 -16.82177734 23.09130859 C-16.82896286 22.21501297 -16.83614838 21.33871735 -16.84355164 20.43586731 C-16.82474373 15.33818612 -16.38423141 11.08413518 -14.59130859 6.29052734 C-10.09376308 1.91133829 -6.24209043 0.0482815 0 0 Z " fill="#FDFAFA" transform="translate(304.59130859375,917.70947265625)"/>
<path d="M0 0 C0.74122101 0.0047937 1.48244202 0.0095874 2.24612427 0.01452637 C16.01003817 0.20658706 16.01003817 0.20658706 21.44921875 4.51953125 C24.33615774 7.53481452 26.48961569 10.89900115 28.53222656 14.52636719 C30.49945093 17.81559158 33.03188177 20.57499015 35.5625 23.4375 C39.75 28.43054452 39.75 28.43054452 39.75 29.5625 C14.6808642 31.64891975 14.6808642 31.64891975 8.28515625 26.890625 C5.30204173 24.08984006 2.94756339 21.00483706 0.75 17.5625 C-2.03161663 18.62858214 -3.18211851 19.46529881 -4.9140625 21.9453125 C-7.32462216 25.3162545 -9.44626908 27.88194252 -13.25 29.5625 C-21.81108585 30.8855769 -30.64377527 30.17547897 -39.25 29.5625 C-37.3405935 25.47399368 -34.63810452 22.31278477 -31.6875 18.9375 C-31.19958984 18.37160156 -30.71167969 17.80570313 -30.20898438 17.22265625 C-29.16104784 16.01236335 -28.09774196 14.815261 -27.02197266 13.62963867 C-25.16106121 11.5280688 -25.16106121 11.5280688 -23.41162109 8.92700195 C-16.90373353 0.26041938 -10.10931082 -0.23861891 0 0 Z " fill="#E20918" transform="translate(327.25,856.4375)"/>
<path d="M0 0 C2.27180179 2.85046051 3.91540239 5.66393598 5.453125 8.96484375 C5.90453857 9.92430908 6.35595215 10.88377441 6.82104492 11.87231445 C7.2926001 12.88382568 7.76415527 13.89533691 8.25 14.9375 C11.89991247 22.68894174 15.64504731 30.30515413 19.85546875 37.76953125 C21 40 21 40 21 42 C7.47 42 -6.06 42 -20 42 C-18.49605726 37.48817179 -16.93536791 33.56237871 -14.8828125 29.31640625 C-14.58438446 28.69781235 -14.28595642 28.07921844 -13.97848511 27.44187927 C-13.3498736 26.14098873 -12.71948432 24.84095588 -12.08740234 23.54174805 C-11.13043121 21.57366967 -10.18003287 19.60252034 -9.23046875 17.63085938 C-6.32931428 11.63679905 -3.34929579 5.75634497 0 0 Z " fill="#FCF1F2" transform="translate(799,921)"/>
<path d="M0 0 C8.58 0 17.16 0 26 0 C26.020625 3.444375 26.04125 6.88875 26.0625 10.4375 C26.071604 11.52474365 26.08070801 12.6119873 26.09008789 13.73217773 C26.09258545 14.58239502 26.09508301 15.4326123 26.09765625 16.30859375 C26.10551147 17.62041626 26.10551147 17.62041626 26.11352539 18.95874023 C26 21 26 21 25 22 C23.14630389 22.08737645 21.28932459 22.10698153 19.43359375 22.09765625 C18.30888672 22.09443359 17.18417969 22.09121094 16.02539062 22.08789062 C14.84138672 22.07951172 13.65738281 22.07113281 12.4375 22.0625 C11.24962891 22.05798828 10.06175781 22.05347656 8.83789062 22.04882812 C5.89190588 22.03699686 2.94594684 22.01906076 0 22 C0 14.74 0 7.48 0 0 Z " fill="#E21723" transform="translate(314,1015)"/>
<path d="M0 0 C-0.99 1.32 -1.98 2.64 -3 4 C8.88 4.33 20.76 4.66 33 5 C33 5.33 33 5.66 33 6 C31.97786911 6.00879936 31.97786911 6.00879936 30.93508911 6.01777649 C24.37958846 6.07670104 17.82438092 6.14929946 11.26918221 6.23571491 C7.90242802 6.27965698 4.53588094 6.31755354 1.16894531 6.34643555 C-13.86639357 6.47876905 -28.6439152 6.93542835 -43.54782104 9.05574036 C-49.65526267 9.89568636 -54.89824908 9.94932792 -61 9 C-60.67 8.34 -60.34 7.68 -60 7 C-62.64 7 -65.28 7 -68 7 C-68 6.67 -68 6.34 -68 6 C-70.97 5.67 -73.94 5.34 -77 5 C-77 4.67 -77 4.34 -77 4 C-69.38374014 3.74891451 -62.22431849 4.25175532 -54.71484375 5.5625 C-44.20046919 6.80078596 -34.64307963 5.19189665 -24.375 3 C-8.20131585 -0.4345068 -8.20131585 -0.4345068 0 0 Z " fill="#EA4146" transform="translate(732,675)"/>
<path d="M0 0 C55.44 0 110.88 0 168 0 C168 0.99 168 1.98 168 3 C167.01 3 166.02 3 165 3 C165 2.34 165 1.68 165 1 C110.55 1 56.1 1 0 1 C0 0.67 0 0.34 0 0 Z " fill="#E60C1E" transform="translate(537,585)"/>
<path d="M0 0 C8.16449799 5.95477446 16.69794942 18.35156928 20 28 C18.97618768 31.34684847 17.99825651 32.00116233 15 34 C13.0170673 29.9651 11.04181914 25.92655619 9.07348633 21.88452148 C8.40336686 20.51110831 7.73118894 19.13869744 7.05688477 17.76733398 C6.08582239 15.79152664 5.12231554 13.81218643 4.16015625 11.83203125 C3.85908463 11.22349808 3.558013 10.6149649 3.24781799 9.98799133 C1.64973573 6.67893958 0.53134919 3.64139304 0 0 Z " fill="#FCEBEC" transform="translate(883,612)"/>
<path d="M0 0 C1.43879577 0.01006151 2.87759845 0.01918169 4.31640625 0.02734375 C7.79441753 0.0490794 11.27216245 0.08342967 14.75 0.125 C11.91738317 1.6658855 9.35214433 2.5584594 6.1953125 3.1953125 C5.33292969 3.36933594 4.47054687 3.54335938 3.58203125 3.72265625 C2.68871094 3.89667969 1.79539062 4.07070313 0.875 4.25 C-0.45337891 4.52263672 -0.45337891 4.52263672 -1.80859375 4.80078125 C-6.35654769 5.70223859 -10.58764783 6.35580951 -15.25 6.125 C-14.92 5.135 -14.59 4.145 -14.25 3.125 C-15.44625 3.310625 -16.6425 3.49625 -17.875 3.6875 C-21.53283707 4.1561197 -24.62862166 3.93981013 -28.25 3.125 C-28.25 2.795 -28.25 2.465 -28.25 2.125 C-18.78666536 0.12928487 -9.61154612 -0.11844035 0 0 Z " fill="#EA3A44" transform="translate(1002.25,689.875)"/>
<path d="M0 0 C7.60796537 -0.04694172 15.2159152 -0.08217582 22.82399368 -0.10362434 C26.35911529 -0.11393357 29.89413579 -0.12784783 33.42919922 -0.15087891 C60.45831569 -0.3220842 60.45831569 -0.3220842 72.859375 0.8828125 C73.67448547 0.96079071 74.48959595 1.03876892 75.32940674 1.11911011 C80.7348196 1.7348196 80.7348196 1.7348196 83 4 C79.04 4.33 75.08 4.66 71 5 C70.505 4.01 70.505 4.01 70 3 C62.27191047 1.25977948 53.77277367 1.78797061 45.8984375 1.68359375 C44.58082428 1.66281265 43.26321106 1.64203156 41.90567017 1.62062073 C38.43703931 1.56596119 34.96835501 1.51630946 31.49963379 1.46777344 C27.94632323 1.4171431 24.39308833 1.36167597 20.83984375 1.30664062 C13.89329499 1.19974774 6.94667757 1.09815593 0 1 C0 0.67 0 0.34 0 0 Z " fill="#E4343A" transform="translate(751,693)"/>
<path d="M0 0 C3.88185804 2.85530714 6.54737608 5.8132134 9.3125 9.75 C10.00988281 10.73484375 10.70726562 11.7196875 11.42578125 12.734375 C11.94527344 13.48203125 12.46476563 14.2296875 13 15 C12.1875 16.9375 12.1875 16.9375 11 19 C10.01 19.33 9.02 19.66 8 20 C6.66065284 17.04435292 5.32955753 14.0850622 4 11.125 C3.6184375 10.28324219 3.236875 9.44148437 2.84375 8.57421875 C2.4828125 7.76855469 2.121875 6.96289062 1.75 6.1328125 C1.41484375 5.38918457 1.0796875 4.64555664 0.734375 3.87939453 C0 2 0 2 0 0 Z " fill="#FBE7E9" transform="translate(883,612)"/>
<path d="M0 0 C-2.6072902 2.6072902 -5.5359257 3.48026787 -8.9375 4.6875 C-9.57107422 4.92533203 -10.20464844 5.16316406 -10.85742188 5.40820312 C-15.63553144 7.12148952 -15.63553144 7.12148952 -19 6 C-17.68 5.34 -16.36 4.68 -15 4 C-17.70716242 3.09761253 -19.23776768 2.88148698 -22.01171875 2.90234375 C-22.76904297 2.90556641 -23.52636719 2.90878906 -24.30664062 2.91210938 C-25.48516602 2.92467773 -25.48516602 2.92467773 -26.6875 2.9375 C-27.48478516 2.94201172 -28.28207031 2.94652344 -29.10351562 2.95117188 C-31.06904257 2.9629415 -33.03453085 2.98087652 -35 3 C-35 2.67 -35 2.34 -35 2 C-30.31778131 0.87209712 -25.66587689 0.66666777 -20.875 0.4375 C-20.03348389 0.3950415 -19.19196777 0.35258301 -18.32495117 0.30883789 C-12.21395193 0.01688685 -6.11817499 -0.12373837 0 0 Z " fill="#E73238" transform="translate(888,703)"/>
<path d="M0 0 C2.31 0 4.62 0 7 0 C7.33 0.99 7.66 1.98 8 3 C9.32 3 10.64 3 12 3 C15 8.625 15 8.625 15 12 C13.35 12.33 11.7 12.66 10 13 C9.67 13.99 9.34 14.98 9 16 C8.491217 14.44033782 7.99336531 12.87710759 7.5 11.3125 C7.2215625 10.44238281 6.943125 9.57226562 6.65625 8.67578125 C6.00149195 6.00608323 5.88168505 3.73603316 6 1 C4.02 1 2.04 1 0 1 C0 0.67 0 0.34 0 0 Z " fill="#E41D24" transform="translate(894,657)"/>
<path d="M0 0 C4.66308199 -0.02468646 9.32612608 -0.04285349 13.98925781 -0.05493164 C15.57617861 -0.05996588 17.16309477 -0.06679369 18.75 -0.07543945 C21.02865749 -0.08754482 23.30725376 -0.09323733 25.5859375 -0.09765625 C26.65320572 -0.10539818 26.65320572 -0.10539818 27.74203491 -0.11329651 C32.77225659 -0.11387171 32.77225659 -0.11387171 35 1 C35 1.66 35 2.32 35 3 C23.78 3 12.56 3 1 3 C0.67 2.01 0.34 1.02 0 0 Z " fill="#B98550" transform="translate(634,268)"/>
<path d="M0 0 C0.66 0.33 1.32 0.66 2 1 C-0.31 3.64 -2.62 6.28 -5 9 C-5.66 8.34 -6.32 7.68 -7 7 C-4.69 4.69 -2.38 2.38 0 0 Z M-9 8 C-8.34 8.33 -7.68 8.66 -7 9 C-7 11 -7 11 -8.50390625 12.515625 C-9.18324219 13.08796875 -9.86257813 13.6603125 -10.5625 14.25 C-11.28566406 14.86488281 -12.00882812 15.47976563 -12.75390625 16.11328125 C-13.49511719 16.73589844 -14.23632812 17.35851562 -15 18 C-16.33427675 19.14473463 -17.66769833 20.29046728 -19 21.4375 C-19.99 22.283125 -20.98 23.12875 -22 24 C-22 21 -22 21 -20.80664062 19.46606445 C-20.26201172 18.937146 -19.71738281 18.40822754 -19.15625 17.86328125 C-18.56972656 17.28642578 -17.98320312 16.70957031 -17.37890625 16.11523438 C-16.75886719 15.52033203 -16.13882812 14.92542969 -15.5 14.3125 C-14.87996094 13.70599609 -14.25992187 13.09949219 -13.62109375 12.47460938 C-12.08735293 10.97626257 -10.54451802 9.48723507 -9 8 Z " fill="#B07639" transform="translate(440,303)"/>
<path d="M0 0 C4.27170766 0.50373911 6.46464324 2.99808219 9.5 5.875 C12.56741754 8.76545114 15.56437122 11.55292479 19 14 C18.67 14.66 18.34 15.32 18 16 C16.26847042 14.92044741 14.53988316 13.83617488 12.8125 12.75 C11.84957031 12.14671875 10.88664063 11.5434375 9.89453125 10.921875 C1.69957082 5.4806867 1.69957082 5.4806867 0 1 C0 0.67 0 0.34 0 0 Z " fill="#B2783D" transform="translate(758,292)"/>
<path d="M0 0 C4.96916636 0.51405169 9.29026351 1.23384882 14 3 C12.35 4.98 10.7 6.96 9 9 C4.99819288 7.22141906 2.23540288 5.84986051 0 2 C0 1.34 0 0.68 0 0 Z " fill="#FDF2F2" transform="translate(883,699)"/>
<path d="M0 0 C0.66 0.33 1.32 0.66 2 1 C-1.465 7.435 -1.465 7.435 -5 14 C-5.99 13.34 -6.98 12.68 -8 12 C-9.32 12.99 -10.64 13.98 -12 15 C-12.66 14.67 -13.32 14.34 -14 14 C-9.33333333 9.33333333 -4.66666667 4.66666667 0 0 Z " fill="#FAE0E3" transform="translate(986,555)"/>
<path d="M0 0 C0.33 0 0.66 0 1 0 C1.02505615 1.06959961 1.0501123 2.13919922 1.07592773 3.24121094 C1.17019528 7.21463727 1.27036858 11.18789668 1.37231445 15.16113281 C1.41559016 16.87984305 1.45727041 18.59859424 1.49731445 20.31738281 C1.55519565 22.789839 1.61883836 25.26209047 1.68359375 27.734375 C1.70866249 28.88459137 1.70866249 28.88459137 1.73423767 30.05804443 C1.83012865 33.52173984 2.07915862 36.66366251 3 40 C1.68 40.66 0.36 41.32 -1 42 C-0.67 28.14 -0.34 14.28 0 0 Z " fill="#DF1823" transform="translate(367,932)"/>
<path d="M0 0 C7.09727428 -0.10808032 13.96094956 0.06145994 21 1 C21 1.66 21 2.32 21 3 C23.31 3.33 25.62 3.66 28 4 C24.64672361 6.23551759 24.09256343 6.17283528 20.3125 5.625 C19.10013672 5.45871094 19.10013672 5.45871094 17.86328125 5.2890625 C16.94095703 5.14597656 16.94095703 5.14597656 16 5 C16.33 4.34 16.66 3.68 17 3 C14.36 3 11.72 3 9 3 C9 2.67 9 2.34 9 2 C6.03 1.67 3.06 1.34 0 1 C0 0.67 0 0.34 0 0 Z " fill="#E8282F" transform="translate(655,679)"/>
<path d="M0 0 C-10 4 -10 4 -12.640625 5.0546875 C-14.4505723 5.77986506 -16.25726525 6.51316949 -18.0625 7.25 C-21.456437 8.11653711 -22.09448004 7.67457925 -25 6 C-21.58915232 4.79530432 -18.17056267 3.61429908 -14.75 2.4375 C-13.29787109 1.92413086 -13.29787109 1.92413086 -11.81640625 1.40039062 C-10.88183594 1.08134766 -9.94726562 0.76230469 -8.984375 0.43359375 C-8.12553711 0.13509521 -7.26669922 -0.16340332 -6.38183594 -0.47094727 C-3.83413072 -1.03684284 -2.43684546 -0.85092276 0 0 Z " fill="#F9CCCF" transform="translate(761,712)"/>
<path d="M0 0 C2 3.75 2 3.75 2 6 C2.66 6 3.32 6 4 6 C4 6.66 4 7.32 4 8 C0.7 8.66 -2.6 9.32 -6 10 C-4.21739173 6.43478346 -2.24007711 3.28544643 0 0 Z " fill="#E5252E" transform="translate(751,827)"/>
<path d="M0 0 C0.99 0 1.98 0 3 0 C1.87548273 2.9719385 0.77706209 5.33440687 -1 8 C-1.2165625 9.2375 -1.2165625 9.2375 -1.4375 10.5 C-2.06637661 13.29500716 -2.74430059 14.28566845 -5 16 C-5.66 16 -6.32 16 -7 16 C-5.35433477 10.31497465 -2.70967216 5.23318364 0 0 Z " fill="#E51925" transform="translate(985,559)"/>
<path d="M0 0 C0.66 1.98 1.32 3.96 2 6 C1.34 6.66 0.68 7.32 0 8 C-0.66 7.34 -1.32 6.68 -2 6 C-4.10820797 6.3185177 -4.10820797 6.3185177 -6 7 C-6 5.02 -6 3.04 -6 1 C-4 0 -4 0 0 0 Z " fill="#E9141C" transform="translate(910,669)"/>
<path d="M0 0 C0 0.33 0 0.66 0 1 C-1.07121094 1.06058594 -2.14242187 1.12117187 -3.24609375 1.18359375 C-4.64324391 1.26798537 -6.04037857 1.35263406 -7.4375 1.4375 C-8.49807617 1.49647461 -8.49807617 1.49647461 -9.58007812 1.55664062 C-13.08690419 1.47624438 -13.08690419 1.47624438 -16 3 C-18.19050021 2.90982004 -20.378466 2.75333792 -22.5625 2.5625 C-23.76003906 2.46066406 -24.95757813 2.35882812 -26.19140625 2.25390625 C-27.58166016 2.12822266 -27.58166016 2.12822266 -29 2 C-29 1.67 -29 1.34 -29 1 C-19.31337984 -0.04518445 -9.72654773 -0.10371911 0 0 Z " fill="#E6373E" transform="translate(778,671)"/>
<path d="M0 0 C0.33 0 0.66 0 1 0 C0.98839844 0.97582031 0.97679687 1.95164062 0.96484375 2.95703125 C0.95582031 4.22933594 0.94679688 5.50164062 0.9375 6.8125 C0.92589844 8.07707031 0.91429687 9.34164063 0.90234375 10.64453125 C0.83840884 13.99605237 0.83840884 13.99605237 2 17 C1.34 17.66 0.68 18.32 0 19 C-0.69748583 20.31747324 -1.36959957 21.64914193 -2 23 C-1.85823579 20.29139876 -1.71171784 17.58319248 -1.5625 14.875 C-1.50352539 13.73417969 -1.50352539 13.73417969 -1.44335938 12.5703125 C-1.20490998 8.31490797 -0.79769763 4.19629174 0 0 Z " fill="#E74C54" transform="translate(483,391)"/>
<path d="M0 0 C4.29 0 8.58 0 13 0 C12.01 0.66 11.02 1.32 10 2 C9.3503125 2.7425 9.3503125 2.7425 8.6875 3.5 C6.37686954 5.55389374 3.9372138 6.15147157 1 7 C1 6.01 1 5.02 1 4 C2.32 3.67 3.64 3.34 5 3 C5 2.34 5 1.68 5 1 C3.35 1 1.7 1 0 1 C0 0.67 0 0.34 0 0 Z " fill="#E9111D" transform="translate(863,706)"/>
<path d="M0 0 C5.28 0 10.56 0 16 0 C12.83759418 2.10827055 11.49342531 2.33817465 7.8125 2.625 C6.46091797 2.73714844 6.46091797 2.73714844 5.08203125 2.8515625 C4.05142578 2.92503906 4.05142578 2.92503906 3 3 C3 2.34 3 1.68 3 1 C2.01 0.67 1.02 0.34 0 0 Z " fill="#E80D12" transform="translate(995,691)"/>
<path d="M0 0 C2.64465038 3.1254959 3.84414715 6.08788267 5 10 C4.01 10 3.02 10 2 10 C1.67 10.66 1.34 11.32 1 12 C0.87625 11.21625 0.7525 10.4325 0.625 9.625 C0.20882007 6.85942178 0.20882007 6.85942178 -2 5 C-1.34 5 -0.68 5 0 5 C0 3.35 0 1.7 0 0 Z " fill="#DD101A" transform="translate(900,650)"/>
<path d="M0 0 C2.64 0.33 5.28 0.66 8 1 C7.67 2.65 7.34 4.3 7 6 C3.75728494 5.4409112 2.06942576 4.5867822 0 2 C0 1.34 0 0.68 0 0 Z " fill="#FBD5D7" transform="translate(883,699)"/>
<path d="M0 0 C3.63094642 2.64960955 5.89851796 5.01824456 8 9 C7.01 9 6.02 9 5 9 C4.67 9.66 4.34 10.32 4 11 C3.32880451 9.5437455 2.66318193 8.08492133 2 6.625 C1.62875 5.81289063 1.2575 5.00078125 0.875 4.1640625 C0 2 0 2 0 0 Z " fill="#FBDCDC" transform="translate(883,612)"/>
<path d="M0 0 C-2.53645881 3.10011632 -5.15184135 4.0575938 -9 5 C-11.19140625 4.546875 -11.19140625 4.546875 -13 4 C-11.40233897 3.13372601 -9.79660056 2.28233535 -8.1875 1.4375 C-7.29417969 0.96183594 -6.40085937 0.48617187 -5.48046875 -0.00390625 C-3 -1 -3 -1 0 0 Z " fill="#E82A31" transform="translate(576,741)"/>
<path d="M0 0 C0.66 0 1.32 0 2 0 C2.33 1.32 2.66 2.64 3 4 C2.01 4.33 1.02 4.66 0 5 C0 5.66 0 6.32 0 7 C-0.66 7 -1.32 7 -2 7 C-2 7.66 -2 8.32 -2 9 C-2.99 9.33 -3.98 9.66 -5 10 C-3.66749209 6.4124787 -2.169283 3.1635377 0 0 Z " fill="#DB1E28" transform="translate(949,623)"/>
<path d="M0 0 C0.66 1.32 1.32 2.64 2 4 C-5.26 4 -12.52 4 -20 4 C-20 3.67 -20 3.34 -20 3 C-13.73 3 -7.46 3 -1 3 C-0.67 2.01 -0.34 1.02 0 0 Z " fill="#E6121A" transform="translate(871,1003)"/>
<path d="M0 0 C2.31 0 4.62 0 7 0 C7.33 0.99 7.66 1.98 8 3 C9.32 3 10.64 3 12 3 C11.67 4.32 11.34 5.64 11 7 C9.68 7.33 8.36 7.66 7 8 C6.67 5.69 6.34 3.38 6 1 C4.02 1 2.04 1 0 1 C0 0.67 0 0.34 0 0 Z " fill="#DD2731" transform="translate(894,657)"/>
<path d="M0 0 C1.62463842 -0.05395478 3.24978541 -0.09277195 4.875 -0.125 C5.77992188 -0.14820313 6.68484375 -0.17140625 7.6171875 -0.1953125 C10 0 10 0 12 2 C6.06 2.495 6.06 2.495 0 3 C0 2.01 0 1.02 0 0 Z " fill="#E32227" transform="translate(822,695)"/>
<path d="M0 0 C0 0.66 0 1.32 0 2 C1.98 2 3.96 2 6 2 C6 2.66 6 3.32 6 4 C0.6496441 3.42978066 -4.67787852 2.79265639 -10 2 C-10 1.67 -10 1.34 -10 1 C-3.375 0 -3.375 0 0 0 Z " fill="#E51E22" transform="translate(841,687)"/>
<path d="M0 0 C1.45839897 3.95705456 0.67906093 7.69831388 0.0625 11.75 C-0.03740234 12.44738281 -0.13730469 13.14476562 -0.24023438 13.86328125 C-0.48665873 15.57651726 -0.74240955 17.28840725 -1 19 C-1.33 19 -1.66 19 -2 19 C-2.33 15.37 -2.66 11.74 -3 8 C-2.34 8 -1.68 8 -1 8 C-0.67 5.36 -0.34 2.72 0 0 Z " fill="#EB5059" transform="translate(563,378)"/>
<path d="M0 0 C0 0.66 0 1.32 0 2 C-2.1171875 3.7265625 -2.1171875 3.7265625 -4.875 5.625 C-6.23238281 6.57246094 -6.23238281 6.57246094 -7.6171875 7.5390625 C-10 9 -10 9 -12 9 C-10.79216249 5.37648747 -9.70346858 4.84784764 -6.5625 2.8125 C-5.75941406 2.28269531 -4.95632813 1.75289062 -4.12890625 1.20703125 C-2 0 -2 0 0 0 Z " fill="#E2181E" transform="translate(795,748)"/>
<path d="M0 0 C1.51400391 0.01740234 1.51400391 0.01740234 3.05859375 0.03515625 C4.07050781 0.04417969 5.08242188 0.05320312 6.125 0.0625 C7.29869141 0.07990234 7.29869141 0.07990234 8.49609375 0.09765625 C5.68746485 2.90628515 3.38475081 2.82476804 -0.50390625 3.09765625 C-1.49390625 2.43765625 -2.48390625 1.77765625 -3.50390625 1.09765625 C-2.50390625 0.09765625 -2.50390625 0.09765625 0 0 Z " fill="#DF292E" transform="translate(879.50390625,702.90234375)"/>
<path d="M0 0 C0 0.33 0 0.66 0 1 C-0.84304688 1.13277344 -1.68609375 1.26554688 -2.5546875 1.40234375 C-3.65039062 1.57894531 -4.74609375 1.75554688 -5.875 1.9375 C-6.96554687 2.11152344 -8.05609375 2.28554688 -9.1796875 2.46484375 C-11.93821546 2.85551159 -11.93821546 2.85551159 -14 4 C-16.00800456 3.71887936 -18.01014051 3.38932033 -20 3 C-20 2.67 -20 2.34 -20 2 C-13.25846717 0.74158054 -6.86515862 -0.26404456 0 0 Z " fill="#F4B4B6" transform="translate(826,698)"/>
<path d="M0 0 C2.86453858 3.41016497 4.34703566 6.90694544 6 11 C5.01 11.495 5.01 11.495 4 12 C4 11.01 4 10.02 4 9 C3.34 9 2.68 9 2 9 C0.4375 6.1875 0.4375 6.1875 -1 3 C-0.67 2.01 -0.34 1.02 0 0 Z " fill="#E4131D" transform="translate(894,638)"/>
<path d="M0 0 C0 0.66 0 1.32 0 2 C1.32 2.33 2.64 2.66 4 3 C-1.94 2.67 -7.88 2.34 -14 2 C-14 1.67 -14 1.34 -14 1 C-12.22932584 0.83165067 -10.45845388 0.66538091 -8.6875 0.5 C-7.70136719 0.4071875 -6.71523438 0.314375 -5.69921875 0.21875 C-3 0 -3 0 0 0 Z " fill="#C18F5D" transform="translate(335,562)"/>
<path d="M0 0 C0.66 0.33 1.32 0.66 2 1 C0.68 3.31 -0.64 5.62 -2 8 C-2.99 8 -3.98 8 -5 8 C-7.15028304 8.94978897 -7.15028304 8.94978897 -9 10 C-6.1310659 6.49352499 -3.2682346 3.14718888 0 0 Z " fill="#F9CBCC" transform="translate(986,555)"/>
<path d="M0 0 C0.66 0.99 1.32 1.98 2 3 C1.67 3.66 1.34 4.32 1 5 C0.34 5 -0.32 5 -1 5 C-1.33 5.99 -1.66 6.98 -2 8 C-3.32 7.67 -4.64 7.34 -6 7 C-4.02 4.69 -2.04 2.38 0 0 Z " fill="#E62129" transform="translate(299,871)"/>
<path d="M0 0 C0.33 0 0.66 0 1 0 C1 2.97 1 5.94 1 9 C1.66 9 2.32 9 3 9 C2.0022242 11.99332739 1.2477975 12.94766315 -1 15 C-1.09038099 9.84828377 -0.84681133 5.08086796 0 0 Z " fill="#E5454B" transform="translate(487,360)"/>
<path d="M0 0 C1.32 0.33 2.64 0.66 4 1 C2.35 2.98 0.7 4.96 -1 7 C-1.99 6.67 -2.98 6.34 -4 6 C-2.68 4.02 -1.36 2.04 0 0 Z " fill="#AE7033" transform="translate(363,331)"/>
<path d="M0 0 C3.94139078 1.66751148 6.7892812 4.22710649 10 7 C9.67 7.66 9.34 8.32 9 9 C7.491987 8.07544441 5.99375083 7.1349253 4.5 6.1875 C3.6646875 5.66542969 2.829375 5.14335937 1.96875 4.60546875 C0.99421875 3.81076172 0.99421875 3.81076172 0 3 C0 2.01 0 1.02 0 0 Z " fill="#BC8B57" transform="translate(767,299)"/>
<path d="M0 0 C3.3 0.33 6.6 0.66 10 1 C9.67 1.66 9.34 2.32 9 3 C5.7 3 2.4 3 -1 3 C-0.67 2.01 -0.34 1.02 0 0 Z " fill="#D60A19" transform="translate(1095,958)"/>
<path d="M0 0 C-1.49041773 3.79379058 -3.69062512 5.68343758 -7 8 C-7.66 8 -8.32 8 -9 8 C-7.47364599 4.11473526 -4.49771687 0 0 0 Z " fill="#E31720" transform="translate(654,791)"/>
<path d="M0 0 C2 1 2 1 3 3 C-1.12168689 4.62950412 -3.70700357 5.26264601 -8 4 C-5.31143836 2.20762558 -3.0466145 1.01553817 0 0 Z " fill="#EC4147" transform="translate(769,726)"/>
<path d="M0 0 C-1.5625 2.0625 -1.5625 2.0625 -4 4 C-7.75 3.75 -7.75 3.75 -11 3 C-3.71428571 -1.85714286 -3.71428571 -1.85714286 0 0 Z M-9 4 C-7 5 -7 5 -7 5 Z " fill="#E73D44" transform="translate(624,720)"/>
<path d="M0 0 C-0.99 0 -1.98 0 -3 0 C-3 0.66 -3 1.32 -3 2 C-5.375 3.6875 -5.375 3.6875 -8 5 C-10 4 -10 4 -11 2 C-3.57142857 -1.57142857 -3.57142857 -1.57142857 0 0 Z " fill="#E82D34" transform="translate(431,713)"/>
<path d="M0 0 C0.66 0.33 1.32 0.66 2 1 C-0.85276137 3.93200474 -3.65079784 6.64315404 -7 9 C-5.64978174 4.58110387 -3.73884332 2.65654657 0 0 Z " fill="#F9D8DB" transform="translate(1063,920)"/>
<path d="M0 0 C0.33 0.99 0.66 1.98 1 3 C-1.35968744 5.09749995 -2.54616994 5.96905704 -5.75 6.1875 C-6.86375 6.0946875 -6.86375 6.0946875 -8 6 C-5.38485683 3.87961365 -2.80362384 1.86908256 0 0 Z " fill="#E51E29" transform="translate(844,749)"/>
<path d="M0 0 C0.66 0.33 1.32 0.66 2 1 C-0.31 3.64 -2.62 6.28 -5 9 C-5.66 8.34 -6.32 7.68 -7 7 C-4.69 4.69 -2.38 2.38 0 0 Z " fill="#E31922" transform="translate(871,727)"/>
<path d="M0 0 C-2.52788007 2.79872437 -4.20411134 4.45773019 -8 5 C-8.66 4.01 -9.32 3.02 -10 2 C-8.71211992 1.46987262 -7.41953322 0.9511671 -6.125 0.4375 C-5.40570312 0.14746094 -4.68640625 -0.14257812 -3.9453125 -0.44140625 C-2 -1 -2 -1 0 0 Z " fill="#E73B41" transform="translate(613,724)"/>
<path d="M0 0 C1.32 0.33 2.64 0.66 4 1 C3.401875 1.556875 2.80375 2.11375 2.1875 2.6875 C0.0136554 4.98556429 -1.46898083 7.24416549 -3 10 C-3.33 9.34 -3.66 8.68 -4 8 C-3.22265625 6.0546875 -3.22265625 6.0546875 -2.0625 3.875 C-1.49208984 2.78832031 -1.49208984 2.78832031 -0.91015625 1.6796875 C-0.60980469 1.12539063 -0.30945313 0.57109375 0 0 Z " fill="#F8DEE2" transform="translate(948,643)"/>
<path d="M0 0 C0.99 0.33 1.98 0.66 3 1 C0.69 3.31 -1.62 5.62 -4 8 C-4.33 7.01 -4.66 6.02 -5 5 C-3.35 3.35 -1.7 1.7 0 0 Z " fill="#E1141F" transform="translate(640,801)"/>
<path d="M0 0 C0.33 0.99 0.66 1.98 1 3 C-3.39453125 7.00390625 -3.39453125 7.00390625 -5 8 C-5.99 7.67 -6.98 7.34 -8 7 C-5.36 4.69 -2.72 2.38 0 0 Z " fill="#E21A21" transform="translate(796,779)"/>
<path d="M0 0 C0.33 0.99 0.66 1.98 1 3 C-4.5 6.125 -4.5 6.125 -9 5 C-6.03 3.35 -3.06 1.7 0 0 Z " fill="#E72127" transform="translate(830,758)"/>
<path d="M0 0 C0.66 0.33 1.32 0.66 2 1 C-0.51830747 4.12270126 -1.7261549 4.94523098 -5.75 5.75 C-7.35875 5.87375 -7.35875 5.87375 -9 6 C-6.12050853 3.76039553 -3.23257974 1.70135776 0 0 Z " fill="#FAD7DA" transform="translate(503,745)"/>
<path d="M0 0 C2.17282078 3.25923117 2.76261647 5.12273569 3 9 C2.01 10.32 1.02 11.64 0 13 C0 8.71 0 4.42 0 0 Z " fill="#A56321" transform="translate(764,554)"/>
<path d="M0 0 C3.96 1.98 3.96 1.98 8 4 C8 4.99 8 5.98 8 7 C5.525 6.01 5.525 6.01 3 5 C3 4.34 3 3.68 3 3 C2.01 2.67 1.02 2.34 0 2 C0 1.34 0 0.68 0 0 Z " fill="#E7161D" transform="translate(703,944)"/>
<path d="M0 0 C0.66 0 1.32 0 2 0 C2 3 2 3 0 5.1875 C-0.66 5.785625 -1.32 6.38375 -2 7 C-2.99 6.67 -3.98 6.34 -5 6 C-3.38405168 3.95880212 -1.7143618 1.95927063 0 0 Z " fill="#E31E26" transform="translate(760,816)"/>
<path d="M0 0 C0.66 0.66 1.32 1.32 2 2 C-0.31 3.65 -2.62 5.3 -5 7 C-5.66 6.34 -6.32 5.68 -7 5 C-4.69 3.35 -2.38 1.7 0 0 Z " fill="#E1121E" transform="translate(508,780)"/>
<path d="M0 0 C0.66 0.33 1.32 0.66 2 1 C0 4 0 4 -1.9453125 4.51171875 C-2.66460937 4.56972656 -3.38390625 4.62773438 -4.125 4.6875 C-6.043125 4.8421875 -6.043125 4.8421875 -8 5 C-5.45378681 2.99940392 -3.01962385 1.20784954 0 0 Z " fill="#E73239" transform="translate(409,720)"/>
<path d="M0 0 C0.66 0.66 1.32 1.32 2 2 C1.875 4.5 1.875 4.5 1 7 C-0.98 7.99 -0.98 7.99 -3 9 C-2.01 6.03 -1.02 3.06 0 0 Z " fill="#B17538" transform="translate(763,565)"/>
<path d="M0 0 C0.33 0 0.66 0 1 0 C2.45295405 8.19256018 2.45295405 8.19256018 0.5625 11.5625 C0.046875 12.036875 -0.46875 12.51125 -1 13 C-1.07654536 8.48382401 -1.10228696 4.40914783 0 0 Z " fill="#E6333C" transform="translate(462,552)"/>
<path d="M0 0 C0.6875 1.625 0.6875 1.625 1 4 C-0.4375 7.25 -0.4375 7.25 -2 10 C-2.66 10 -3.32 10 -4 10 C-3.52449439 8.51965236 -3.04448784 7.04074979 -2.5625 5.5625 C-2.29566406 4.73878906 -2.02882813 3.91507813 -1.75390625 3.06640625 C-1 1 -1 1 0 0 Z " fill="#E32931" transform="translate(940,543)"/>
<path d="M0 0 C1.1875 1.6875 1.1875 1.6875 2 4 C0.625 6.75 0.625 6.75 -1 9 C-1.66 8.67 -2.32 8.34 -3 8 C-2.690625 7.236875 -2.38125 6.47375 -2.0625 5.6875 C-1.32106407 3.81210323 -0.63771783 1.91315348 0 0 Z " fill="#E51621" transform="translate(716,985)"/>
<path d="M0 0 C1.125 1.75 1.125 1.75 2 4 C1.125 6.25 1.125 6.25 0 8 C-0.99 8 -1.98 8 -3 8 C-1.125 2.25 -1.125 2.25 0 0 Z " fill="#E52731" transform="translate(747,962)"/>
<path d="M0 0 C0.8353125 0.37125 0.8353125 0.37125 1.6875 0.75 C-0.67218744 2.84749995 -1.85866994 3.71905704 -5.0625 3.9375 C-6.17625 3.8446875 -6.17625 3.8446875 -7.3125 3.75 C-2.88173077 -0.31153846 -2.88173077 -0.31153846 0 0 Z " fill="#E51B25" transform="translate(813.3125,769.25)"/>
<path d="M0 0 C-4.75 4 -4.75 4 -7 4 C-6.625 2.0625 -6.625 2.0625 -6 0 C-3.50907189 -1.24546405 -2.58919267 -0.7767578 0 0 Z " fill="#E31E25" transform="translate(744,739)"/>
<path d="M0 0 C-1.32 0.33 -2.64 0.66 -4 1 C-4 1.66 -4 2.32 -4 3 C-6.31 3.33 -8.62 3.66 -11 4 C-3.77464789 -1.88732394 -3.77464789 -1.88732394 0 0 Z " fill="#E84447" transform="translate(756,733)"/>
<path d="M0 0 C0 1.98 0 3.96 0 6 C-2.64 5.67 -5.28 5.34 -8 5 C-7.360625 4.896875 -6.72125 4.79375 -6.0625 4.6875 C-5.381875 4.460625 -4.70125 4.23375 -4 4 C-3.67 3.01 -3.34 2.02 -3 1 C-1 0 -1 0 0 0 Z " fill="#F7C9C9" transform="translate(906,680)"/>
<path d="M0 0 C0.99 0.33 1.98 0.66 3 1 C2.25 6.75 2.25 6.75 0 9 C0 6.03 0 3.06 0 0 Z " fill="#FCECED" transform="translate(913,625)"/>
<path d="M0 0 C0.33 0 0.66 0 1 0 C1.05447047 1.41623216 1.09300508 2.83308191 1.125 4.25 C1.14820313 5.03890625 1.17140625 5.8278125 1.1953125 6.640625 C0.9828378 9.20731941 0.28654105 10.7916067 -1 13 C-2.0070238 7.96488101 -1.97387813 4.76052962 0 0 Z " fill="#E73942" transform="translate(547,495)"/>
<path d="M0 0 C0.99 0.33 1.98 0.66 3 1 C-0.465 3.97 -0.465 3.97 -4 7 C-4 4 -4 4 -2 1.8125 C-1.34 1.214375 -0.68 0.61625 0 0 Z " fill="#B57B3F" transform="translate(422,320)"/>
<path d="M0 0 C0.33 0 0.66 0 1 0 C1 1.65 1 3.3 1 5 C1.66 5 2.32 5 3 5 C2.67 6.32 2.34 7.64 2 9 C1.01 9 0.02 9 -1 9 C-0.67 6.03 -0.34 3.06 0 0 Z " fill="#E5242D" transform="translate(692,970)"/>
<path d="M0 0 C0.66 0.99 1.32 1.98 2 3 C0.35 4.32 -1.3 5.64 -3 7 C-3 5.68 -3 4.36 -3 3 C-2.34 3 -1.68 3 -1 3 C-0.67 2.01 -0.34 1.02 0 0 Z " fill="#FCE9E9" transform="translate(303,863)"/>
<path d="M0 0 C0.33 0 0.66 0 1 0 C1.33 2.97 1.66 5.94 2 9 C1.01 9 0.02 9 -1 9 C-0.67 6.03 -0.34 3.06 0 0 Z " fill="#DC2733" transform="translate(861,568)"/>
<path d="M0 0 C0.33 0.99 0.66 1.98 1 3 C-2.22791555 5.1519437 -3.28400809 5.20086443 -7 5 C-2.25 1.125 -2.25 1.125 0 0 Z " fill="#E61C24" transform="translate(496,354)"/>
<path d="M0 0 C0 2.64 0 5.28 0 8 C-0.2475 7.38125 -0.495 6.7625 -0.75 6.125 C-2.20628639 3.64931313 -3.37812506 3.04874998 -6 2 C-2.25 0 -2.25 0 0 0 Z " fill="#E32C34" transform="translate(572,310)"/>
<path d="M0 0 C2.5 2.3125 2.5 2.3125 5 5 C5 5.99 5 6.98 5 8 C2.5 6.25 2.5 6.25 0 4 C0 2.68 0 1.36 0 0 Z " fill="#E11A24" transform="translate(602,947)"/>
<path d="M0 0 C0.66 0.66 1.32 1.32 2 2 C0.35 3.32 -1.3 4.64 -3 6 C-3.66 5.34 -4.32 4.68 -5 4 C-3.35 2.68 -1.7 1.36 0 0 Z " fill="#E41C28" transform="translate(271,903)"/>
<path d="M0 0 C0.6875 1.8125 0.6875 1.8125 1 4 C-0.4375 5.75 -0.4375 5.75 -2 7 C-2.99 6.67 -3.98 6.34 -5 6 C-3.35 4.02 -1.7 2.04 0 0 Z " fill="#E71A23" transform="translate(770,804)"/>
<path d="M0 0 C0.66 0.33 1.32 0.66 2 1 C1.01 2.485 1.01 2.485 0 4 C-3.625 4.6875 -3.625 4.6875 -7 5 C-4.702779 3.25728062 -2.40133271 1.60088848 0 0 Z " fill="#E5272E" transform="translate(552,751)"/>
<path d="M0 0 C-1.28610235 2.5722047 -2.33393981 3.00974907 -5 4 C-7.25 3.625 -7.25 3.625 -9 3 C-3.375 0 -3.375 0 0 0 Z " fill="#F8C7CB" transform="translate(537,729)"/>
<path d="M0 0 C-0.33 0.99 -0.66 1.98 -1 3 C-3.5625 4.1875 -3.5625 4.1875 -6 5 C-6.66 4.34 -7.32 3.68 -8 3 C-2.25 0 -2.25 0 0 0 Z " fill="#B16F2E" transform="translate(380,695)"/>
</svg>
