<?xml version="1.0" encoding="UTF-8"?>
<svg version="1.1" xmlns="http://www.w3.org/2000/svg" width="1254" height="1254">
<path d="M0 0 C413.82 0 827.64 0 1254 0 C1254 413.82 1254 827.64 1254 1254 C840.18 1254 426.36 1254 0 1254 C0 840.18 0 426.36 0 0 Z " fill="#FDFDFD" transform="translate(0,0)"/>
<path d="M0 0 C1.20477242 0.00607269 1.20477242 0.00607269 2.43388367 0.01226807 C3.70234383 0.00701111 3.70234383 0.00701111 4.99642944 0.00164795 C7.80053337 -0.00717733 10.6043864 -0.00131743 13.40849304 0.00543213 C15.35140532 0.00408571 17.29431727 0.00214537 19.23722839 -0.00036621 C23.31274111 -0.00331855 27.38816627 0.00098371 31.46366882 0.01031494 C36.69632689 0.02170953 41.92877982 0.01515064 47.16143036 0.00317001 C51.17447973 -0.00404561 55.18748019 -0.00176203 59.20053101 0.0034256 C61.1303103 0.00476292 63.06009399 0.00311151 64.98986816 -0.00153351 C67.68356646 -0.00659387 70.37692921 0.00110451 73.07060242 0.01226807 C74.27537483 0.00619537 74.27537483 0.00619537 75.50448608 0 C81.02371483 0.04252892 81.02371483 0.04252892 83.25224304 2.27105713 C84.10160314 4.92233272 84.432495 7.50179991 84.64115906 10.27008057 C84.73113914 11.4321402 84.73113914 11.4321402 84.82293701 12.61767578 C84.88339706 13.44688538 84.94385712 14.27609497 85.00614929 15.13043213 C85.07132248 15.99364075 85.13649567 16.85684937 85.2036438 17.74621582 C85.34059718 19.57175275 85.47581499 21.39742059 85.60942078 23.22320557 C85.81300352 25.99735328 86.02341781 28.77092123 86.23466492 31.54449463 C86.36723842 33.3231098 86.49941263 35.10175478 86.63114929 36.88043213 C86.69363358 37.7015448 86.75611786 38.52265747 86.82049561 39.36865234 C87.18016193 44.35102032 87.30905814 49.275616 87.25224304 54.27105713 C88.76624695 54.56496338 88.76624695 54.56496338 90.31083679 54.86480713 C109.40361247 58.74728244 127.81947408 64.55467265 145.25224304 73.27105713 C146.37888367 73.75058838 147.50552429 74.23011963 148.66630554 74.72418213 C175.41489599 86.26278977 202.23188009 104.08358782 222.25224304 125.27105713 C222.25224304 125.93105713 222.25224304 126.59105713 222.25224304 127.27105713 C218.81754701 125.94167059 215.52227713 124.4651008 212.23271179 122.81011963 C211.2923407 122.33832275 210.3519696 121.86652588 209.38310242 121.38043213 C208.41179382 120.89058838 207.44048523 120.40074463 206.43974304 119.89605713 C205.48003601 119.41394775 204.52032898 118.93183838 203.53153992 118.43511963 C202.58730164 117.96074463 201.64306335 117.48636963 200.67021179 116.99761963 C199.74442322 116.5326709 198.81863464 116.06772217 197.86479187 115.58868408 C196.25226384 114.77541301 194.64217778 113.95725359 193.03617859 113.13116455 C188.67682363 110.90199106 184.28765625 109.01365319 179.68974304 107.33355713 C179.00138367 107.07977295 178.31302429 106.82598877 177.60380554 106.56451416 C175.48972757 105.79105922 173.37213839 105.02841125 171.25224304 104.27105713 C170.61302917 104.04240967 169.97381531 103.81376221 169.31523132 103.57818604 C160.40202478 100.42263652 151.435763 97.94296366 142.2507782 95.75933838 C139.64015554 95.12151217 137.04821128 94.41614993 134.45219421 93.72174072 C127.68774705 91.94148932 120.91914411 90.62630276 114.00224304 89.58355713 C113.21108093 89.46423828 112.41991882 89.34491943 111.6047821 89.22198486 C97.91547277 87.27019983 84.30630308 87.02938652 70.50224304 87.02105713 C69.49746918 87.02038239 68.49269531 87.01970764 67.45747375 87.01901245 C52.49526479 87.03497142 37.99415047 87.49900519 23.25224304 90.27105713 C22.29269714 90.44266357 21.33315125 90.61427002 20.3445282 90.79107666 C-5.27946908 95.44205037 -30.27692143 102.91000082 -53.74775696 114.27105713 C-54.32670715 114.55030029 -54.90565735 114.82954346 -55.50215149 115.11724854 C-60.2856226 117.434836 -65.02874327 119.82498849 -69.74775696 122.27105713 C-70.3937384 122.60589111 -71.03971985 122.9407251 -71.70527649 123.28570557 C-100.1604721 138.22558718 -128.93365124 160.30401321 -149.12275696 185.52105713 C-149.79049133 186.35121338 -150.45822571 187.18136963 -151.14619446 188.03668213 C-151.52832092 188.51556885 -151.91044739 188.99445557 -152.30415344 189.487854 C-153.44758405 190.90027023 -154.60677271 192.29992772 -155.7714386 193.69488525 C-175.1902227 217.04971311 -189.8448459 243.98260882 -200.74775696 272.27105713 C-201.4477179 274.05576416 -201.4477179 274.05576416 -202.16181946 275.87652588 C-205.76471484 285.48056295 -208.30023233 295.32445279 -210.74775696 305.27105713 C-210.96464172 306.13263428 -211.18152649 306.99421143 -211.40498352 307.88189697 C-216.94930253 330.04692489 -219.02318657 351.35000815 -219.12275696 374.14605713 C-219.13467575 375.58442429 -219.13467575 375.58442429 -219.14683533 377.05184937 C-219.21954968 388.48168967 -218.61568403 399.37215441 -216.43354797 410.60479736 C-215.87565929 413.58728735 -215.49584931 416.43642923 -215.31025696 419.45855713 C-214.77379989 425.46080316 -213.07076985 431.16358905 -211.41181946 436.9331665 C-210.67874565 439.51401752 -209.97928221 442.1029966 -209.27900696 444.69293213 C-199.18578768 481.38190668 -182.47417172 515.05915264 -158.63838196 544.77496338 C-157.01694092 546.91566756 -155.89727217 548.8673228 -154.74775696 551.27105713 C-156.56920227 551.78152588 -156.56920227 551.78152588 -158.42744446 552.30230713 C-168.77051188 555.21813922 -179.08607673 558.22456192 -189.37275696 561.33355713 C-190.43736145 561.64937744 -191.50196594 561.96519775 -192.59883118 562.29058838 C-198.61318835 564.12468074 -204.24278155 566.29971669 -209.92329407 568.99053955 C-212.93626144 570.35651879 -215.98507999 571.51451393 -219.08760071 572.66168213 C-226.08348191 575.30726171 -232.66763465 578.59781807 -239.31025696 582.02105713 C-241.58053084 583.18614996 -243.85259079 584.34777092 -246.12666321 585.50543213 C-247.60501648 586.26678467 -247.60501648 586.26678467 -249.11323547 587.04351807 C-251.35650459 588.0887555 -253.33190236 588.79167831 -255.74775696 589.27105713 C-260.86626153 582.20937147 -265.46446471 574.95550047 -269.81025696 567.39605713 C-270.4478595 566.28851074 -271.08546204 565.18096436 -271.74238586 564.03985596 C-276.63034147 555.47823821 -281.2005703 546.76870951 -285.62275696 537.95855713 C-286.07970444 537.05378632 -286.07970444 537.05378632 -286.54588318 536.1307373 C-287.40977303 534.41435588 -288.26258917 532.69241448 -289.11494446 530.97027588 C-289.60075989 529.98889648 -290.08657532 529.00751709 -290.58711243 527.99639893 C-291.69328769 525.39895794 -292.31260672 523.05202821 -292.74775696 520.27105713 C-284.39142118 513.92788973 -275.98915497 507.65866875 -267.43525696 501.58355713 C-266.35159851 500.80866943 -266.35159851 500.80866943 -265.24604797 500.01812744 C-264.56985413 499.54085205 -263.89366028 499.06357666 -263.19697571 498.57183838 C-262.60231506 498.15071777 -262.00765442 497.72959717 -261.39497375 497.29571533 C-259.74775696 496.27105713 -259.74775696 496.27105713 -256.74775696 495.27105713 C-257.32694286 493.47804544 -257.91138951 491.6867331 -258.49775696 489.89605713 C-258.82260071 488.89832275 -259.14744446 487.90058838 -259.48213196 486.87261963 C-260.46156458 484.08546878 -261.52116773 481.40919026 -262.66181946 478.68902588 C-265.12629711 472.59220243 -266.73836226 466.31895598 -268.37275696 459.95855713 C-268.96630602 457.67006734 -269.56255895 455.38227672 -270.16181946 453.09527588 C-270.41914856 452.09584961 -270.67647766 451.09642334 -270.94160461 450.06671143 C-271.67112609 447.30510343 -271.67112609 447.30510343 -272.77656555 444.92657471 C-274.09555647 441.32007291 -274.45817602 437.76114789 -274.87275696 433.95855713 C-275.00230774 432.84770752 -275.00230774 432.84770752 -275.13447571 431.7144165 C-275.34510401 429.90067278 -275.54728682 428.0859517 -275.74775696 426.27105713 C-276.92805481 426.19065186 -278.10835266 426.11024658 -279.32441711 426.02740479 C-283.7195232 425.72590924 -288.11384626 425.41407833 -292.50801086 425.09918213 C-294.40690259 424.96454109 -296.30599307 424.83267236 -298.20527649 424.70367432 C-300.94136601 424.51735078 -303.67657658 424.32094095 -306.41181946 424.12261963 C-307.25580292 424.06732086 -308.09978638 424.01202209 -308.96934509 423.95504761 C-319.88050767 423.13830642 -319.88050767 423.13830642 -322.74775696 420.27105713 C-324.03188466 412.0034244 -323.89354674 403.70507243 -323.88056946 395.36090088 C-323.88124448 393.8235116 -323.88221616 392.28612243 -323.88346863 390.74873352 C-323.88493582 387.54058812 -323.88282239 384.33247073 -323.87812805 381.12432861 C-323.87242653 377.03032932 -323.87571869 372.93639555 -323.88170052 368.84239864 C-323.88532852 365.67238377 -323.88415736 362.50238421 -323.88157272 359.33236885 C-323.8809099 357.82342076 -323.88170913 356.31447124 -323.88405228 354.80552483 C-323.90303506 339.15126719 -323.90303506 339.15126719 -322.74775696 333.27105713 C-317.20201424 327.72531441 -303.52046741 328.92677272 -295.92939758 328.61260986 C-292.0954369 328.44722167 -288.49624106 328.06916369 -284.74775696 327.27105713 C-283.31147239 327.20839201 -281.87270146 327.18419366 -280.43525696 327.20855713 C-278.60994446 327.23949463 -278.60994446 327.23949463 -276.74775696 327.27105713 C-276.77611633 326.113479 -276.80447571 324.95590088 -276.83369446 323.76324463 C-276.83183574 319.53836786 -276.2234105 315.52663441 -275.37275696 311.39605713 C-275.18326477 310.43119385 -275.18326477 310.43119385 -274.98994446 309.44683838 C-274.72508435 308.10399765 -274.45522744 306.76213461 -274.18086243 305.42120361 C-273.88120183 303.93354244 -273.59461022 302.44321103 -273.31855774 300.95098877 C-272.07007007 294.32343492 -270.30077155 287.91794774 -268.37275696 281.45855713 C-268.06330139 280.40990479 -267.75384583 279.36125244 -267.43501282 278.28082275 C-265.25929525 270.92788762 -263.04799524 263.5861006 -260.74775696 256.27105713 C-261.42282288 256.03983154 -262.09788879 255.80860596 -262.79341125 255.57037354 C-266.51535382 253.93346928 -269.67631622 251.78190304 -273.01728821 249.48199463 C-274.03879219 248.78706406 -274.03879219 248.78706406 -275.08093262 248.07809448 C-277.24378623 246.60520479 -279.40205266 245.12574874 -281.56025696 243.64605713 C-283.03066171 242.64301542 -284.50136172 241.64040641 -285.97236633 240.63824463 C-289.5676019 238.18751321 -293.15873961 235.73088492 -296.74775696 233.27105713 C-296.23043563 228.03040357 -294.92622881 223.86944071 -292.57197571 219.14215088 C-292.25079269 218.47896851 -291.92960968 217.81578613 -291.59869385 217.13250732 C-290.55472976 214.98586076 -289.49595125 212.84698054 -288.43525696 210.70855713 C-287.70446336 209.22043685 -286.97383312 207.73223633 -286.24336243 206.24395752 C-280.40723026 194.40404108 -274.33819956 182.71107071 -267.74775696 171.27105713 C-267.28611145 170.46217041 -266.82446594 169.65328369 -266.34883118 168.81988525 C-265.02439838 166.51903898 -263.67442461 164.23602346 -262.31025696 161.95855713 C-261.92112122 161.28751953 -261.53198547 160.61648193 -261.13105774 159.92510986 C-258.39772949 155.49659814 -258.39772949 155.49659814 -255.41963196 154.4631958 C-252.17739175 154.23004128 -250.63239066 154.91446112 -247.74385071 156.37261963 C-241.52693026 159.38669446 -235.21037886 162.04636497 -228.81025696 164.64605713 C-227.14639954 165.34021729 -227.14639954 165.34021729 -225.44892883 166.04840088 C-224.38351868 166.48023682 -223.31810852 166.91207275 -222.22041321 167.35699463 C-221.2640094 167.74935303 -220.30760559 168.14171143 -219.32221985 168.54595947 C-216.57258429 169.32039452 -215.35418775 169.37185897 -212.74775696 168.27105713 C-210.60320675 166.08567717 -210.60320675 166.08567717 -208.56025696 163.33355713 C-204.81589235 158.58700627 -200.92633102 154.06096966 -196.85322571 149.59527588 C-195.00798141 147.55831788 -193.21694026 145.48834866 -191.43525696 143.39605713 C-188.35723549 139.86706973 -185.11192383 136.52658914 -181.81025696 133.20855713 C-181.29527649 132.68970947 -180.78029602 132.17086182 -180.24971008 131.6362915 C-176.70757396 128.11211298 -173.01889336 124.91823462 -168.97822571 121.96636963 C-167.46679655 120.26570172 -167.46679655 120.26570172 -167.93013 117.65557861 C-168.92852423 113.52278103 -170.61598581 110.16158758 -172.59931946 106.42340088 C-173.37566504 104.91639595 -174.15169739 103.40922962 -174.92744446 101.9019165 C-176.1515892 99.54693974 -177.38016956 97.19445309 -178.61494446 94.84503174 C-179.80941785 92.56473829 -180.98644923 90.27608491 -182.16181946 87.98590088 C-182.53569794 87.28682114 -182.90957642 86.58774139 -183.29478455 85.86747742 C-184.75451215 83.00620118 -185.74408983 80.7526022 -185.76875305 77.51397705 C-184.39346932 74.49275954 -182.78183487 73.46134246 -179.99775696 71.66949463 C-179.00590393 71.02029053 -178.0140509 70.37108643 -176.99214172 69.70220947 C-175.92149475 69.0236792 -174.85084778 68.34514893 -173.74775696 67.64605713 C-172.6506842 66.93530029 -171.55361145 66.22454346 -170.42329407 65.49224854 C-168.21356429 64.0622236 -165.9999743 62.63814464 -163.78242493 61.22027588 C-161.25347312 59.5958872 -158.74613777 57.94758553 -156.25166321 56.27105713 C-144.18451469 48.20029629 -131.50858836 41.17829614 -118.74775696 34.27105713 C-117.96158997 33.83132568 -117.17542297 33.39159424 -116.36543274 32.9385376 C-111.30076604 30.20672962 -111.30076604 30.20672962 -108.66572571 30.51324463 C-105.49113585 31.76756323 -104.02248642 34.59490576 -102.18525696 37.33355713 C-101.54705017 38.25672729 -101.54705017 38.25672729 -100.89595032 39.19854736 C-99.98331663 40.52147648 -99.07568556 41.84786782 -98.17256165 43.17730713 C-96.71314483 45.32191964 -95.23658683 47.45381378 -93.75556946 49.58355713 C-85.68950019 61.21281217 -85.68950019 61.21281217 -82.74775696 66.27105713 C-77.8322387 65.98746954 -74.05889552 65.0972949 -69.56025696 63.08355713 C-57.29005592 57.74331869 -44.07220737 54.59315627 -30.99775696 51.89605713 C-30.20111633 51.72839844 -29.40447571 51.56073975 -28.58369446 51.38800049 C-23.22484967 50.34205593 -18.20688278 50.12968534 -12.74775696 50.27105713 C-12.69877258 49.32488525 -12.64978821 48.37871338 -12.59931946 47.40386963 C-12.0238416 36.97583704 -11.02286017 26.63565758 -9.74775696 16.27105713 C-9.66380676 15.57012939 -9.57985657 14.86920166 -9.49336243 14.14703369 C-9.2554647 12.18705438 -9.00200696 10.22898235 -8.74775696 8.27105713 C-8.60338196 7.15730713 -8.45900696 6.04355713 -8.31025696 4.89605713 C-7.21939035 -0.19465372 -4.69362394 0.03616715 0 0 Z " fill="#424242" transform="translate(565.7477569580078,209.72894287109375)"/>
<path d="M0 0 C2.24834183 0.00056508 4.49668402 0.00024568 6.74502563 -0.00088501 C12.8101517 -0.00145576 18.87519768 0.01025341 24.94030523 0.02426291 C31.29305452 0.03681675 37.6458059 0.03794442 43.99856567 0.04031372 C54.648799 0.04581155 65.29900093 0.05828005 75.94921875 0.07617188 C86.91210791 0.09456966 97.87498912 0.10870701 108.83789062 0.1171875 C109.85392592 0.11797567 109.85392592 0.11797567 110.89048718 0.11877976 C114.28906649 0.12139011 117.68764586 0.12391746 121.08622527 0.12640357 C149.21782278 0.14708936 177.34938808 0.18242388 205.48095703 0.22705078 C206.08959961 2.05566406 206.08959961 2.05566406 206.48095703 4.22705078 C205.12313152 6.36905867 203.78623817 8.17349458 202.16845703 10.10205078 C201.23267391 11.26565804 200.29914706 12.43108277 199.36767578 13.59814453 C198.8860498 14.19739746 198.40442383 14.79665039 197.90820312 15.4140625 C195.6668391 18.26120059 193.57073959 21.20523895 191.48095703 24.16455078 C191.06789307 24.7472876 190.6548291 25.33002441 190.22924805 25.93041992 C189.39283883 27.11114687 188.55714346 28.29237982 187.72216797 29.47412109 C186.10059816 31.76422164 184.46675944 34.04541742 182.83276367 36.32666016 C179.22068186 41.36991707 175.63184908 46.42872072 172.0637207 51.50317383 C167.52800853 57.9516498 162.95457937 64.36845885 158.29345703 70.72705078 C157.82367432 71.36827881 157.3538916 72.00950684 156.86987305 72.67016602 C153.61355184 77.09445597 153.61355184 77.09445597 152.48095703 78.22705078 C150.29899305 78.327533 148.11371868 78.35615286 145.92944336 78.35835266 C144.89025568 78.36152623 144.89025568 78.36152623 143.83007431 78.36476392 C141.49103008 78.37079139 139.15203938 78.3697618 136.81298828 78.36889648 C135.14273486 78.37192631 133.47248227 78.37544728 131.80223083 78.37942505 C128.19542345 78.38733046 124.58862604 78.39246523 120.98181152 78.39571571 C115.27479005 78.40161613 109.56783127 78.41814912 103.86083984 78.4370575 C101.90805058 78.44339555 99.95526127 78.44972116 98.00247192 78.45603466 C96.53510275 78.46078338 96.53510275 78.46078338 95.03808975 78.46562803 C81.74675866 78.50771277 68.45545573 78.54065862 55.1640625 78.55297852 C46.20653742 78.56136678 37.24916647 78.58389013 28.29171848 78.62233418 C23.55123849 78.64207733 18.81098882 78.6545054 14.07046509 78.64949989 C9.60522882 78.64484302 5.14042813 78.65871549 0.67527962 78.68651199 C-0.95928454 78.69340765 -2.5938939 78.69356789 -4.2284565 78.68631172 C-15.92815727 78.63964152 -24.94570753 79.87854082 -33.78857422 88.19189453 C-39.02575187 94.35119376 -40.20033652 101.4883824 -39.90576172 109.39111328 C-39.15455107 114.89999137 -37.10711446 118.63897929 -33.20654297 122.53955078 C-25.85277137 127.15703527 -20.20163129 127.65947948 -11.62719727 127.61181641 C-9.85486977 127.61987556 -9.85486977 127.61987556 -8.04673767 127.62809753 C-4.81867749 127.64040889 -1.59091477 127.63980755 1.63715386 127.63436699 C5.03738408 127.63257189 8.43750775 127.6500418 11.83769226 127.6661377 C20.48959886 127.70391927 29.14148067 127.7167527 37.79345703 127.72705078 C47.09970081 127.73816324 56.40581394 127.75393151 65.71197003 127.79776335 C70.37987061 127.81877993 75.04744846 127.81730643 79.71540833 127.81164551 C110.50291949 127.87841388 136.75580815 133.25418269 159.48095703 155.22705078 C176.58007473 173.02290672 180.97552439 195.30804713 180.68798828 219.20361328 C179.98207624 246.54796067 169.8139285 271.31565939 152.48095703 292.22705078 C151.84673828 293.02626953 151.21251953 293.82548828 150.55908203 294.64892578 C141.33859728 305.76079201 129.15362171 313.60270334 116.48095703 320.22705078 C115.23572266 320.9328125 115.23572266 320.9328125 113.96533203 321.65283203 C97.09395005 330.4422778 76.1212982 331.39171851 57.50830078 331.32470703 C55.97416734 331.32283861 54.4400333 331.32141671 52.90589905 331.32041931 C48.8963146 331.31662754 44.88676722 331.30682633 40.87719727 331.29571533 C36.77441916 331.28542885 32.67163498 331.28090628 28.56884766 331.27587891 C20.5395339 331.2652006 12.5102501 331.248165 4.48095703 331.22705078 C4.48095703 327.22092714 4.48823584 326.71734395 6.64892578 323.75048828 C7.12322021 323.08927979 7.59751465 322.42807129 8.08618164 321.74682617 C8.60833252 321.03905029 9.1304834 320.33127441 9.66845703 319.60205078 C10.20801025 318.8549585 10.74756348 318.10786621 11.3034668 317.33813477 C12.44649924 315.7573382 13.59365978 314.1795195 14.74462891 312.60449219 C16.41112292 310.32267009 18.06552957 308.03267985 19.71533203 305.73876953 C21.87174365 302.74159449 24.03311888 299.74812814 26.19970703 296.75830078 C28.37109814 293.7616779 30.53782516 290.76179117 32.69970703 287.75830078 C38.46918952 279.74488765 44.26730313 271.75273113 50.10595703 263.78955078 C50.69820068 262.9781665 51.29044434 262.16678223 51.90063477 261.33081055 C52.45565674 260.57598389 53.01067871 259.82115723 53.58251953 259.04345703 C54.07059082 258.37773682 54.55866211 257.7120166 55.06152344 257.02612305 C58.72988144 252.37663386 58.72988144 252.37663386 62.26611328 251.67236328 C63.34763672 251.56666016 64.42916016 251.46095703 65.54345703 251.35205078 C72.94360347 250.31372288 79.56304479 248.90123824 84.39501953 242.81689453 C89.61589875 234.41647513 90.30607976 227.0826834 89.48095703 217.22705078 C87.05611787 212.01813702 83.36283894 208.57902751 78.15061665 206.13381863 C75.32557513 205.17427427 73.17849733 204.97414422 70.2039032 204.96876526 C69.15996902 204.96193726 68.11603485 204.95510925 67.04046631 204.94807434 C65.90538635 204.95062729 64.7703064 204.95318024 63.60083008 204.95581055 C62.39685074 204.9505838 61.1928714 204.94535706 59.95240784 204.93997192 C57.33707048 204.92973066 54.72199563 204.92301382 52.10666466 204.92209053 C47.95578613 204.92014151 43.80507276 204.90203782 39.6542511 204.8813324 C29.33520047 204.83223603 19.01610465 204.80139406 8.69696045 204.7800293 C0.6916197 204.7634218 -7.31357971 204.74034253 -15.31882638 204.69700855 C-18.76109852 204.67895973 -22.20317857 204.66659502 -25.64550209 204.66830635 C-43.10505246 204.66742743 -59.57609648 204.44556888 -76.08154297 198.10205078 C-76.87181885 197.80202148 -77.66209473 197.50199219 -78.47631836 197.19287109 C-99.72723882 188.79945269 -116.05720744 174.46827443 -125.27294922 153.28955078 C-129.98711848 141.70363008 -131.89862899 130.56130292 -131.83154297 118.03955078 C-131.82662842 116.94457275 -131.82171387 115.84959473 -131.81665039 114.72143555 C-131.68949701 105.86829964 -130.76214969 97.79827159 -128.51904297 89.22705078 C-128.20193359 87.95345703 -127.88482422 86.67986328 -127.55810547 85.36767578 C-120.09613759 57.61493495 -100.4097972 31.7080809 -75.51904297 17.22705078 C-51.04984527 3.7059271 -27.63834328 -0.09785543 0 0 Z " fill="#424241" transform="translate(684.51904296875,403.77294921875)"/>
<path d="M0 0 C0.27165245 9.0466973 -0.78362127 17.82331004 -1.8984375 26.77734375 C-2.0958593 28.39574523 -2.29284218 30.01420031 -2.4894104 31.63270569 C-2.90099495 35.01105929 -3.31659582 38.38888536 -3.73535156 41.76635742 C-4.26837663 46.066635 -4.79327297 50.36785479 -5.31537437 54.66947079 C-5.72117718 58.00805774 -6.13035346 61.34622439 -6.54060745 64.68426704 C-6.73513726 66.26878709 -6.92888015 67.85340398 -7.12177658 69.4381237 C-8.07578348 77.25501422 -9.10399206 85.02453275 -10.58392334 92.76335144 C-11.10125994 95.54432976 -11.45247589 98.32384489 -11.74609375 101.13671875 C-11.85961182 102.19689209 -11.97312988 103.25706543 -12.09008789 104.34936523 C-12.20473389 105.45094971 -12.31937988 106.55253418 -12.4375 107.6875 C-13.41735712 116.77899022 -14.43568118 125.86295846 -15.5625 134.9375 C-15.677146 135.8761792 -15.79179199 136.8148584 -15.90991211 137.78198242 C-16.48991526 142.41089328 -17.16106504 147.0028437 -17.96875 151.59765625 C-19.44554207 160.27040246 -20.26099737 169.02341049 -21.17456055 177.76953125 C-22.05061035 186.11046174 -23.01912437 194.4152364 -24.30859375 202.703125 C-26.64056113 217.74646439 -28.50585716 232.85706319 -30.44384766 247.95507812 C-31.01144498 252.37482647 -31.58581777 256.79366634 -32.16179085 261.21232986 C-32.61149396 264.67127327 -33.05642592 268.13081895 -33.50011826 271.59053802 C-33.70968951 273.21869574 -33.92092058 274.84664088 -34.1340065 276.47434235 C-35.3445315 285.73650667 -36.28003295 294.91498036 -36.66256714 304.25115967 C-37 308 -37 308 -39 317 C27 317 93 317 161 317 C161 321.19367102 160.81154129 321.75422639 158.47265625 324.90625 C157.93261963 325.64351318 157.39258301 326.38077637 156.83618164 327.14038086 C156.2508667 327.91905518 155.66555176 328.69772949 155.0625 329.5 C154.46493896 330.31025635 153.86737793 331.1205127 153.25170898 331.95532227 C151.5108192 334.31094691 149.75770948 336.65691048 148 339 C146.824375 340.57587891 146.824375 340.57587891 145.625 342.18359375 C144.22970557 344.04662893 142.83117412 345.90724347 141.4296875 347.765625 C133.15799159 358.75224242 125.01423013 369.83274319 117.1706543 381.12963867 C116.2964095 382.38245495 115.41149133 383.62792132 114.51384169 384.86407572 C113.48310794 386.31836863 112.49580768 387.80420595 111.54896301 389.31445926 C107.38528451 395.49036826 107.38528451 395.49036826 103.75635445 396.82541382 C101.09814423 397.13412813 98.57022549 397.15778209 95.89503479 397.08229065 C94.39148317 397.09382538 94.39148317 397.09382538 92.85755676 397.10559314 C89.50584949 397.12039376 86.15821682 397.07097223 82.80688477 397.02172852 C80.40194291 397.0191893 77.99699407 397.02061592 75.59205627 397.02571106 C70.4183332 397.02775902 65.24552784 397.00227379 60.07208443 396.95157051 C52.59234062 396.87831178 45.11309026 396.85497622 37.63302659 396.84367859 C25.49636284 396.82399854 13.36024463 396.76415318 1.22387695 396.67895508 C-10.5628792 396.5962975 -22.349487 396.53261481 -34.13647461 396.49438477 C-35.22695639 396.490838 -35.22695639 396.490838 -36.33946811 396.48721958 C-39.98668613 396.47547393 -43.63390519 396.46410063 -47.28112495 396.45291245 C-77.52114048 396.35966696 -107.76049441 396.20052711 -138 396 C-137.84616413 393.26901281 -137.69050536 390.53814995 -137.53379822 387.80732727 C-137.49063398 387.03770802 -137.44746974 386.26808877 -137.40299749 385.47514772 C-137.10566075 380.32596188 -136.63568035 375.27308977 -135.87890625 370.16796875 C-135.77408432 369.44039871 -135.66926239 368.71282867 -135.56126404 367.96321106 C-135.23502844 365.70360077 -134.89971554 363.44549525 -134.5625 361.1875 C-133.22586112 352.15703733 -131.97230805 343.14671342 -131.12133789 334.05615234 C-129.91428599 321.63264818 -128.35674543 309.25537352 -126.8046875 296.87109375 C-126.49028447 294.35060634 -126.17600734 291.83010323 -125.86184692 289.30958557 C-125.20282701 284.02706659 -124.54202966 278.74477409 -123.87988281 273.46264648 C-123.05591615 266.88929978 -122.23725606 260.31530162 -121.41981125 253.74114037 C-118.63377141 231.35221929 -115.83258075 208.96606327 -112.79394531 186.60986328 C-112.70285468 185.93956703 -112.61176405 185.26927078 -112.5179131 184.57866251 C-111.56077929 177.54196626 -110.5950153 170.50649517 -109.61984253 163.47227478 C-108.03310497 151.98023695 -106.56808105 140.49981094 -105.41052246 128.95652771 C-104.90078219 124.04375996 -104.23215369 119.16660229 -103.51171875 114.28125 C-102.42098337 106.60684322 -101.57510226 98.93990576 -100.89453125 91.21875 C-100.71356402 89.26686453 -100.53192491 87.31504124 -100.34960938 85.36328125 C-100.07279502 82.39985597 -99.80759675 79.43746211 -99.57495117 76.47021484 C-99.34027337 73.52806377 -99.05927261 70.59342242 -98.76953125 67.65625 C-98.68153008 66.32974426 -98.68153008 66.32974426 -98.5917511 64.97644043 C-98.20091975 61.36704049 -97.85112421 58.91092397 -95.32339478 56.20559692 C-93.2828184 54.64353788 -91.21385029 53.30270133 -89 52 C-87.95682617 51.32308105 -86.91365234 50.64616211 -85.83886719 49.94873047 C-84.83500977 49.34432129 -83.83115234 48.73991211 -82.796875 48.1171875 C-82.24138977 47.78115509 -81.68590454 47.44512268 -81.11358643 47.09890747 C-79.32814604 46.02019485 -77.53915578 44.9475367 -75.75 43.875 C-74.48936303 43.11494861 -73.22894905 42.35452725 -71.96875 41.59375 C-68.31583868 39.39025593 -64.65845767 37.19426937 -61 35 C-60.07509766 34.44473633 -59.15019531 33.88947266 -58.19726562 33.31738281 C-55.02622853 31.4140156 -51.85469793 29.51148695 -48.68115234 27.61230469 C-39.45791333 22.08852774 -30.27499538 16.49811623 -21.09014893 10.91082764 C-19.43323834 9.90396019 -17.77474092 8.89970553 -16.11621094 7.89550781 C-14.08671897 6.6610221 -12.06354447 5.41607057 -10.04785156 4.15917969 C-8.71318848 3.33401855 -8.71318848 3.33401855 -7.3515625 2.4921875 C-6.57893066 2.00862793 -5.80629883 1.52506836 -5.01025391 1.02685547 C-3 0 -3 0 0 0 Z " fill="#C11015" transform="translate(549,339)"/>
<path d="M0 0 C3.63296143 15.79436421 6.55131982 31.76751615 7 48 C7.02723145 48.90540527 7.05446289 49.81081055 7.08251953 50.74365234 C8.18001209 93.40781257 0.71831259 138.28030959 -29.50390625 170.59765625 C-42.20716175 182.82379417 -61.43598179 196.44673593 -79.65820312 197.35620117 C-88.20163449 197.64957164 -88.20163449 197.64957164 -95.59634399 201.3944397 C-98.97814899 205.76343016 -100.83275303 210.89217875 -102.8125 216 C-103.49449121 217.59106716 -104.18471388 219.17862933 -104.8828125 220.76269531 C-106.28840285 223.96401298 -107.66205798 227.17614381 -109.01416016 230.40039062 C-111.83109799 237.03006115 -115.13749972 243.38446596 -118.5 249.75 C-119.35356079 251.38835815 -119.35356079 251.38835815 -120.22436523 253.05981445 C-124.50946186 261.2319662 -129.06405693 269.20434388 -134 277 C-132.91847656 276.50371094 -131.83695313 276.00742187 -130.72265625 275.49609375 C-112.43813906 267.32598494 -93.47144129 262.49793928 -73.875 258.625 C-72.61977539 258.37411621 -71.36455078 258.12323242 -70.07128906 257.86474609 C-56.76495911 255.34766417 -43.5767161 254.83588935 -30.0625 254.9375 C-28.89009766 254.94201172 -27.71769531 254.94652344 -26.50976562 254.95117188 C-23.67311887 254.96275003 -20.83659028 254.97905029 -18 255 C-21.35732934 256.87998149 -24.66604368 257.76598332 -28.3984375 258.6640625 C-29.67178955 258.97730469 -30.9451416 259.29054688 -32.25708008 259.61328125 C-32.92897369 259.77779785 -33.60086731 259.94231445 -34.29312134 260.11181641 C-48.21849674 263.54442481 -61.69772767 267.58446108 -75 273 C-75.74894531 273.30341309 -76.49789063 273.60682617 -77.26953125 273.91943359 C-82.59602932 276.11081923 -87.81109108 278.50167432 -93 281 C-93.91555664 281.43876465 -94.83111328 281.8775293 -95.77441406 282.32958984 C-117.95099119 293.08776065 -138.89981168 306.39063362 -158 322 C-159.37865234 323.09441406 -159.37865234 323.09441406 -160.78515625 324.2109375 C-167.24793674 329.39206954 -173.37358996 334.89997523 -179.43212891 340.54101562 C-183.75947466 344.56783254 -188.11127672 348.56835593 -192.45800781 352.57421875 C-193.90136741 353.90880077 -195.33766979 355.25100386 -196.7734375 356.59375 C-219.09977169 377.28325617 -244.42610845 392.87044863 -271.41357422 406.66650391 C-273.57213511 407.77940362 -275.71357338 408.91541699 -277.84765625 410.07421875 C-287.0279471 414.94338374 -296.60583163 418.07004823 -306.48046875 421.19335938 C-308.81941618 421.94218518 -311.14553505 422.71951427 -313.46875 423.515625 C-314.14494385 423.74685059 -314.8211377 423.97807617 -315.51782227 424.21630859 C-317.30240293 424.82864468 -319.08675764 425.44163915 -320.87109375 426.0546875 C-323.91118189 426.97316606 -326.85887652 427.55465218 -330 428 C-328.5434961 423.68620157 -326.23947703 420.40160797 -323.4375 416.875 C-322.99132324 416.30587891 -322.54514648 415.73675781 -322.08544922 415.15039062 C-320.73038668 413.42812197 -319.36608515 411.71353169 -318 410 C-317.26136719 409.06414062 -316.52273438 408.12828125 -315.76171875 407.1640625 C-311.20431636 401.48188986 -306.40453922 396.07607464 -301.42431641 390.765625 C-298.79028582 387.95647135 -296.21887766 385.11124907 -293.703125 382.1953125 C-279.89870737 366.35594308 -265.62641539 354.05814048 -247.21679688 344.00292969 C-231.8884031 335.60880929 -217.41103266 326.31334592 -203.75537109 315.40136719 C-202.2180921 314.17410969 -200.66678901 312.96446129 -199.11328125 311.7578125 C-193.70827778 307.53223679 -188.62598624 303.01218522 -183.58203125 298.36328125 C-181.44178723 296.40435897 -179.27161391 294.504805 -177.0625 292.625 C-168.76247708 285.40090597 -161.0894362 277.40551367 -154 269 C-162.38554488 266.25182768 -170.93377316 264.41313091 -179.5625 262.625 C-181.040224 262.31675668 -182.51792552 262.0084056 -183.99560547 261.69995117 C-186.95468308 261.08321417 -189.91441509 260.46973545 -192.87451172 259.85791016 C-196.46323872 259.11455681 -200.04648963 258.34746201 -203.62890625 257.57421875 C-217.38464085 254.6505029 -231.16363988 252.67246539 -245.12109375 250.9765625 C-250.35185465 250.3407651 -255.56973601 249.64979488 -260.78515625 248.8984375 C-262.68249512 248.62592163 -262.68249512 248.62592163 -264.61816406 248.34790039 C-266.97382586 248.0065069 -269.32874032 247.65988727 -271.68261719 247.30639648 C-277.90563124 246.41338937 -284.09613956 245.79940002 -290.36987305 245.45629883 C-291.5456189 245.39199645 -291.5456189 245.39199645 -292.74511719 245.32639503 C-300.86280221 244.9124163 -308.96730031 244.85444692 -317.09375 244.8671875 C-318.66158056 244.86651021 -320.22941101 244.86553671 -321.79724121 244.86428833 C-325.050873 244.86283126 -328.30447697 244.86490066 -331.55810547 244.86962891 C-335.6721595 244.87532493 -339.78614823 244.87203507 -343.90019989 244.86605644 C-347.12807687 244.86239632 -350.35593904 244.86361405 -353.58381653 244.86618423 C-355.09845488 244.86683854 -356.61309469 244.86607932 -358.12773132 244.86370468 C-369.11665817 244.85024555 -380.03389831 245.29638895 -391 246 C-391 245.34 -391 244.68 -391 244 C-373.75761103 241.04610691 -356.51414155 238.10846688 -339.1875 235.6875 C-338.07157471 235.52862305 -336.95564941 235.36974609 -335.8059082 235.20605469 C-322.73544927 233.42616428 -309.71403018 232.84547343 -296.53515625 232.8671875 C-295.21817245 232.86623077 -293.90118866 232.86527405 -292.54429626 232.86428833 C-289.78220418 232.86283071 -287.02014486 232.86490216 -284.25805664 232.86962891 C-280.76753088 232.87532026 -277.27708132 232.87193092 -273.78655815 232.86621094 C-254.06018031 232.83834142 -234.79926763 233.53314624 -215.25 236.25 C-214.45074097 236.35948975 -213.65148193 236.46897949 -212.82800293 236.58178711 C-189.3782788 239.80267945 -166.1830903 244.24410219 -143 249 C-143.54688935 242.17426708 -144.97263975 236.13217508 -147.0625 229.625 C-147.61957847 227.86835439 -148.17312814 226.11058469 -148.72265625 224.3515625 C-148.96765869 223.58666504 -149.21266113 222.82176758 -149.46508789 222.03369141 C-150 220 -150 220 -150 217 C-151.0725 217.103125 -152.145 217.20625 -153.25 217.3125 C-163.45780971 217.29443308 -173.6353126 210.76179872 -181.05078125 204.1796875 C-195.75623779 189.16013383 -199.23440613 168.83053195 -199.3125 148.6875 C-199.31611542 147.97501099 -199.31973083 147.26252197 -199.32345581 146.52844238 C-199.34649813 135.23865882 -198.2895995 124.83321923 -195 114 C-194.65869174 112.66868578 -194.3206128 111.33644915 -194 110 C-182.13836857 113.63360727 -172.52766866 121.3317014 -163 129 C-162.32066406 129.52335938 -161.64132812 130.04671875 -160.94140625 130.5859375 C-147.13354285 141.61947269 -137.39748566 158.57132166 -135 176 C-134.27521083 187.46256161 -134.65259103 197.63067652 -140 208 C-140.66 208 -141.32 208 -142 208 C-142.28085449 207.38181396 -142.56170898 206.76362793 -142.85107422 206.12670898 C-149.83376577 190.86534967 -157.08554946 176.82351521 -168 164 C-167.58979123 165.31453266 -167.17131747 166.62648553 -166.75 167.9375 C-166.51796875 168.66839844 -166.2859375 169.39929688 -166.046875 170.15234375 C-163.34411529 177.50425355 -159.82629413 184.50916545 -156.3125 191.5 C-155.88042236 192.36439697 -155.44834473 193.22879395 -155.00317383 194.11938477 C-152.52229203 199.05808092 -149.96968237 203.94892456 -147.33911133 208.80932617 C-143.73211323 215.47504641 -140.60362061 222.00902767 -138.0703125 229.16796875 C-137.0203192 232.10797466 -137.0203192 232.10797466 -135.3671875 235.17578125 C-134 238 -134 238 -134 241 C-130.24390338 237.5916901 -127.69691359 233.74526848 -125 229.5 C-124.52578613 228.76023926 -124.05157227 228.02047852 -123.56298828 227.25830078 C-118.32979863 219.03960811 -113.3398388 210.67513534 -108.36523438 202.29833984 C-106.45951413 199.09010479 -104.5441467 195.88771737 -102.625 192.6875 C-102.27663086 192.10637451 -101.92826172 191.52524902 -101.56933594 190.92651367 C-98.11041043 185.16649731 -94.61798127 179.42690719 -91.125 173.6875 C-90.52494141 172.70023926 -89.92488281 171.71297852 -89.30664062 170.69580078 C-86.53810264 166.14567119 -83.7598993 161.60288756 -80.9375 157.0859375 C-75.54998373 148.44346349 -70.61570889 139.74760379 -66.22363281 130.55908203 C-64.69732015 127.36698121 -63.15695044 124.18171931 -61.6171875 120.99609375 C-58.40040716 114.33601844 -55.19715431 107.66952153 -52 101 C-62.2330038 109.11729264 -70.20236741 118.61693702 -78 129 C-78.90492188 130.17755859 -78.90492188 130.17755859 -79.828125 131.37890625 C-91.89148539 147.74642678 -100.47607276 166.64797551 -109 185 C-111.87810217 182.12189783 -112.45611981 178.64189829 -113.5 174.8125 C-113.72067139 174.00385498 -113.94134277 173.19520996 -114.16870117 172.36206055 C-122.44232694 140.97158544 -117.63189852 108.27437132 -102 80 C-99.51332384 75.85395485 -96.85529256 71.89991179 -94 68 C-93.44828125 67.236875 -92.8965625 66.47375 -92.328125 65.6875 C-76.96644786 45.20526381 -56.9772406 29.83274145 -35 17 C-33.90703613 16.35417969 -33.90703613 16.35417969 -32.79199219 15.6953125 C-6.22485756 0 -6.22485756 0 0 0 Z " fill="#C21115" transform="translate(1084,526)"/>
<path d="M0 0 C1.06506932 -0.00424107 1.06506932 -0.00424107 2.1516552 -0.00856781 C5.92101257 -0.02341916 9.69033317 -0.03273286 13.4597168 -0.03710938 C16.49890383 -0.04145797 19.53780119 -0.05522878 22.5769043 -0.078125 C43.09462918 -0.22970741 63.11854622 0.67935953 83.49609375 3.203125 C83.16609375 3.863125 82.83609375 4.523125 82.49609375 5.203125 C80.28149414 5.65795898 80.28149414 5.65795898 77.34375 5.94921875 C75.72702393 6.119375 75.72702393 6.119375 74.07763672 6.29296875 C72.91635254 6.40769531 71.75506836 6.52242187 70.55859375 6.640625 C60.47863855 7.71801898 50.51172765 9.01281651 40.54003906 10.83251953 C38.47277699 11.20735276 36.40291575 11.56375129 34.33203125 11.91796875 C26.77797555 13.23748578 19.4212474 14.9270436 12.0703125 17.140625 C9.16482638 18.00433235 6.25677818 18.82274705 3.33203125 19.6171875 C-66.81080873 38.67405677 -136.39431223 70.73270916 -191.609375 118.70703125 C-194.29704881 121.02474186 -197.0394813 123.24392693 -199.81640625 125.453125 C-210.26666255 133.9743369 -219.887696 143.51407332 -229.44140625 153.015625 C-230.03864502 153.60819092 -230.63588379 154.20075684 -231.2512207 154.8112793 C-234.24405767 157.72912268 -234.24405767 157.72912268 -236.50390625 161.203125 C-240.73373583 160.46715083 -244.75233748 159.2482045 -248.81640625 157.890625 C-249.48357666 157.66842285 -250.15074707 157.4462207 -250.83813477 157.21728516 C-255.01064284 155.79540596 -258.90233614 154.1757521 -262.77734375 152.08984375 C-265.12898982 150.88209792 -267.60526308 150.05831343 -270.0859375 149.15625 C-287.8293967 142.1620593 -305.1180015 132.91530033 -321.50390625 123.203125 C-321.50390625 120.203125 -321.50390625 120.203125 -319.36328125 118.03125 C-318.33608891 117.1608207 -317.29862777 116.30243544 -316.25390625 115.453125 C-315.67745361 114.97705811 -315.10100098 114.50099121 -314.50708008 114.01049805 C-294.14842128 97.39102238 -272.38669531 82.15186903 -249.50390625 69.203125 C-248.73530273 68.76613281 -247.96669922 68.32914063 -247.17480469 67.87890625 C-205.36625765 44.24728462 -161.08131297 26.74526921 -114.50390625 15.203125 C-113.46814453 14.94192871 -112.43238281 14.68073242 -111.36523438 14.41162109 C-75.07931655 5.3289215 -37.43179228 0.10373967 0 0 Z " fill="#C21115" transform="translate(776.50390625,783.796875)"/>
<path d="M0 0 C0 0.66 0 1.32 0 2 C-1.07668945 2.43755615 -2.15337891 2.8751123 -3.26269531 3.32592773 C-29.84691381 14.13888829 -55.99561181 24.81862 -81 39 C-81.76973145 39.4345752 -82.53946289 39.86915039 -83.33251953 40.31689453 C-105.17025649 52.70500557 -126.14153858 67.02868879 -145.10546875 83.50390625 C-147.79314256 85.82161686 -150.53557505 88.04080193 -153.3125 90.25 C-168.23963122 102.41767611 -182.56392986 116.2932249 -195 131 C-196.26650391 132.43279297 -196.26650391 132.43279297 -197.55859375 133.89453125 C-205.7296573 143.1799569 -213.13802659 152.97820824 -220.47290039 162.93212891 C-220.97684326 163.61452637 -221.48078613 164.29692383 -222 165 C-222.45689209 165.72751465 -222.91378418 166.4550293 -223.38452148 167.20458984 C-225.93124929 170.03497163 -228.94384844 169.94356334 -232.6282196 170.14044189 C-233.56905899 170.1472699 -234.50989838 170.1540979 -235.47924805 170.16113281 C-236.55615402 170.17074036 -237.63306 170.1803479 -238.74259949 170.19024658 C-239.90390884 170.19449646 -241.0652182 170.19874634 -242.26171875 170.203125 C-243.4803511 170.20882507 -244.69898346 170.21452515 -245.95454407 170.22039795 C-248.54610326 170.22984915 -251.13767448 170.2363824 -253.72924805 170.24023438 C-257.6003296 170.24978494 -261.47084349 170.28074037 -265.34179688 170.3125 C-287.99535937 170.40936208 -310.01131073 168.59660437 -332 163 C-330.49508808 159.54894544 -328.48416021 157.13275903 -325.9375 154.375 C-322.4731803 150.61329566 -322.4731803 150.61329566 -319.07421875 146.79296875 C-313.77104047 140.72460242 -308.12566108 135.01867195 -302.4375 129.3125 C-301.63393066 128.50433838 -300.83036133 127.69617676 -300.00244141 126.86352539 C-295.16270676 122.03619523 -290.19713374 117.4385 -285 113 C-283.55367187 111.7315625 -283.55367187 111.7315625 -282.078125 110.4375 C-211.14477461 49.3015737 -117.8152102 11.23632261 -25 1.3125 C-23.78304443 1.18085449 -22.56608887 1.04920898 -21.31225586 0.91357422 C-14.17937982 0.18713643 -7.16902337 -0.17282467 0 0 Z " fill="#C21115" transform="translate(920,795)"/>
<path d="M0 0 C0.66 0.66 1.32 1.32 2 2 C0.45119141 2.28496338 0.45119141 2.28496338 -1.12890625 2.57568359 C-37.34552359 9.27772009 -73.01463356 17.39026473 -108 29 C-108.99660645 29.32677734 -109.99321289 29.65355469 -111.02001953 29.99023438 C-135.34043014 38.00625472 -158.88850028 48.00378336 -182 59 C-182.90492188 59.42716309 -183.80984375 59.85432617 -184.7421875 60.29443359 C-200.75133308 67.89587754 -215.87663409 76.79835921 -231 86 C-232.5454981 86.92981187 -234.09106111 87.85951587 -235.63671875 88.7890625 C-243.73605522 93.70979513 -251.4445866 99.07675843 -259.06469727 104.71166992 C-259.78069092 105.23994385 -260.49668457 105.76821777 -261.234375 106.3125 C-261.86569336 106.78300781 -262.49701172 107.25351562 -263.14746094 107.73828125 C-265.03162973 109.02154223 -266.94015382 110.02878309 -269 111 C-270.0415625 110.20078125 -271.083125 109.4015625 -272.15625 108.578125 C-273.60408914 107.46864883 -275.05201245 106.35928248 -276.5 105.25 C-277.26812012 104.66089844 -278.03624023 104.07179688 -278.82763672 103.46484375 C-282.58575286 100.58831806 -286.35231382 97.72705801 -290.1640625 94.921875 C-298.2688464 88.95123506 -305.97719242 82.69723404 -313.52734375 76.0390625 C-316.583962 73.34614738 -319.708341 70.75077613 -322.875 68.1875 C-326.35518782 65.35952129 -329.80048789 62.50177334 -333.1875 59.5625 C-333.92355469 58.92441406 -334.65960938 58.28632812 -335.41796875 57.62890625 C-337 56 -337 56 -337 54 C-309.09730331 38.66848251 -279.11463795 25.86058924 -248.29345703 17.61865234 C-245.58410797 16.88781452 -242.88445925 16.12486377 -240.18359375 15.36328125 C-167.56444239 -4.9106776 -74.11712019 -20.05821437 0 0 Z " fill="#C21115" transform="translate(684,771)"/>
<path d="M0 0 C0.78552246 0.04890381 1.57104492 0.09780762 2.38037109 0.14819336 C8.3466256 0.53111686 14.30299261 1.00934064 20.25 1.625 C19.92 2.285 19.59 2.945 19.25 3.625 C16.89257812 4.11157227 16.89257812 4.11157227 13.78125 4.44140625 C12.65203125 4.56580078 11.5228125 4.69019531 10.359375 4.81835938 C8.57273437 5.00108398 8.57273437 5.00108398 6.75 5.1875 C5.00976562 5.37602539 5.00976562 5.37602539 3.234375 5.56835938 C0.96135112 5.81391795 -1.31208248 6.05571784 -3.5859375 6.29345703 C-7.64281265 6.71855244 -11.69635327 7.17026399 -15.75 7.625 C-15.42 6.635 -15.09 5.645 -14.75 4.625 C-12.77 4.625 -10.79 4.625 -8.75 4.625 C-8.42 3.965 -8.09 3.305 -7.75 2.625 C-10.39 2.295 -13.03 1.965 -15.75 1.625 C-15.75 1.295 -15.75 0.965 -15.75 0.625 C-10.36607576 -0.32929345 -5.44400873 -0.37542887 0 0 Z " fill="#CC181B" transform="translate(839.75,785.375)"/>
<path d="M0 0 C0 0.66 0 1.32 0 2 C24.255 2.495 24.255 2.495 49 3 C49 3.33 49 3.66 49 4 C48.30081451 4.01030746 47.60162903 4.02061493 46.8812561 4.03123474 C40.20567318 4.13030138 33.53015516 4.23294305 26.85468483 4.33933926 C23.42495852 4.39388445 19.99522344 4.44717339 16.56542969 4.49731445 C1.69014808 4.71565983 -13.15583237 4.96757155 -28 6 C-28 5.34 -28 4.68 -28 4 C-24.45995797 3.3245086 -20.91773831 2.66119202 -17.375 2 C-16.37597656 1.80921875 -15.37695312 1.6184375 -14.34765625 1.421875 C-9.50947407 0.52472864 -4.94607582 -0.27009288 0 0 Z " fill="#D14A4D" transform="translate(721,766)"/>
<path d="M0 0 C0 0.33 0 0.66 0 1 C14.85 1.33 29.7 1.66 45 2 C45 1.34 45 0.68 45 0 C48.96 0.33 52.92 0.66 57 1 C57 1.33 57 1.66 57 2 C53.37052106 2.83286811 50.01922403 3.12638343 46.29858398 3.12939453 C45.17649033 3.13254669 44.05439667 3.13569885 42.89830017 3.13894653 C41.69307205 3.1369223 40.48784393 3.13489807 39.24609375 3.1328125 C37.99425797 3.13376923 36.74242218 3.13472595 35.45265198 3.13571167 C32.8023025 3.13639198 30.15204527 3.13505232 27.50170898 3.13037109 C24.80474643 3.12583498 22.10785112 3.12578094 19.41088867 3.13037109 C15.5017703 3.13660076 11.59271494 3.13578418 7.68359375 3.1328125 C6.49253525 3.13483673 5.30147675 3.13686096 4.07432556 3.13894653 C-3.33170916 3.11854289 -10.63041187 2.73588357 -18 2 C-18 1.67 -18 1.34 -18 1 C-15.93769732 0.8309093 -13.8751477 0.66482867 -11.8125 0.5 C-10.08966797 0.36078125 -10.08966797 0.36078125 -8.33203125 0.21875 C-5.53927574 0.0354038 -2.79680188 -0.04213637 0 0 Z " fill="#C72626" transform="translate(638,962)"/>
<path d="M0 0 C0.556875 0.2475 1.11375 0.495 1.6875 0.75 C0.97464844 1.33007812 0.26179688 1.91015625 -0.47265625 2.5078125 C-5.80882259 6.86005584 -11.10880884 11.24013433 -16.3125 15.75 C-15.9825 17.07 -15.6525 18.39 -15.3125 19.75 C-17.7875 18.76 -17.7875 18.76 -20.3125 17.75 C-20.3125 16.76 -20.3125 15.77 -20.3125 14.75 C-18.29381411 12.81407136 -16.29553683 11.06157337 -14.125 9.3125 C-13.54685547 8.83490234 -12.96871094 8.35730469 -12.37304688 7.86523438 C-11.23116791 6.92463577 -10.08295615 5.99166687 -8.92822266 5.06689453 C-7.45957853 3.86987633 -6.04450358 2.60787767 -4.63671875 1.33984375 C-2.3125 -0.25 -2.3125 -0.25 0 0 Z " fill="#C51C20" transform="translate(475.3125,889.25)"/>
<path d="M0 0 C3.04640463 2.86720436 5.78043089 5.83935407 8.375 9.125 C8.89835938 9.78757812 9.42171875 10.45015625 9.9609375 11.1328125 C10.30382812 11.74898437 10.64671875 12.36515625 11 13 C10.67 13.99 10.34 14.98 10 16 C7.9375 16.6875 7.9375 16.6875 6 17 C5.18167278 15.10667466 4.37057732 13.21022267 3.5625 11.3125 C3.11003906 10.25675781 2.65757812 9.20101562 2.19140625 8.11328125 C1.14552545 5.38027471 0.46479252 2.87957663 0 0 Z " fill="#F7DEDE" transform="translate(915,689)"/>
<path d="M0 0 C-0.33 0.66 -0.66 1.32 -1 2 C-3.35742188 2.48657227 -3.35742188 2.48657227 -6.46875 2.81640625 C-7.59796875 2.94080078 -8.7271875 3.06519531 -9.890625 3.19335938 C-11.67726563 3.37608398 -11.67726563 3.37608398 -13.5 3.5625 C-14.66015625 3.68818359 -15.8203125 3.81386719 -17.015625 3.94335938 C-19.28864888 4.18891795 -21.56208248 4.43071784 -23.8359375 4.66845703 C-27.89281265 5.09355244 -31.94635327 5.54526399 -36 6 C-35.67 5.01 -35.34 4.02 -35 3 C-30.05 3 -25.1 3 -20 3 C-20 2.34 -20 1.68 -20 1 C-13.34362157 -0.23839599 -6.7528064 -0.09139136 0 0 Z " fill="#D14547" transform="translate(860,787)"/>
<path d="M0 0 C0.66 0 1.32 0 2 0 C5.15871979 5.22403658 5.15871979 5.22403658 4.4375 8.75 C2.84837816 11.23732114 1.73642291 11.99664493 -1 13 C-1.07654536 8.48382401 -1.10228696 4.40914783 0 0 Z " fill="#D1312E" transform="translate(937,739)"/>
<path d="M0 0 C0.33 0.99 0.66 1.98 1 3 C-2.96 6.96 -6.92 10.92 -11 15 C-11.66 14.67 -12.32 14.34 -13 14 C-8.83295817 9.14256071 -4.58155004 4.46980492 0 0 Z " fill="#C61E20" transform="translate(613,929)"/>
<path d="M0 0 C0.99 0.33 1.98 0.66 3 1 C-1.455 6.94 -1.455 6.94 -6 13 C-6.99 12.67 -7.98 12.34 -9 12 C-6.03 8.04 -3.06 4.08 0 0 Z " fill="#4D4E4E" transform="translate(725,681)"/>
<path d="M0 0 C0 0.33 0 0.66 0 1 C3.3 1.33 6.6 1.66 10 2 C10 2.33 10 2.66 10 3 C0.60394198 3.10731538 -8.64087671 2.99263429 -18 2 C-18 1.67 -18 1.34 -18 1 C-15.93769732 0.8309093 -13.8751477 0.66482867 -11.8125 0.5 C-10.08966797 0.36078125 -10.08966797 0.36078125 -8.33203125 0.21875 C-5.53927574 0.0354038 -2.79680188 -0.04213637 0 0 Z " fill="#D25151" transform="translate(638,962)"/>
<path d="M0 0 C0.556875 0.391875 1.11375 0.78375 1.6875 1.1875 C0.0375 3.1675 -1.6125 5.1475 -3.3125 7.1875 C-5.3125 5.8125 -5.3125 5.8125 -7.3125 4.1875 C-7.3125 3.5275 -7.3125 2.8675 -7.3125 2.1875 C-3.09973404 -1.08909574 -3.09973404 -1.08909574 0 0 Z " fill="#CC1C21" transform="translate(354.3125,822.8125)"/>
<path d="M0 0 C-0.33 0.99 -0.66 1.98 -1 3 C-5.71817304 4.85026394 -9.08471601 5.19884975 -14 4 C-11.36505677 2.24337118 -9.96001018 1.58136607 -7 0.875 C-6.319375 0.70742188 -5.63875 0.53984375 -4.9375 0.3671875 C-3 0 -3 0 0 0 Z " fill="#CA2427" transform="translate(455,784)"/>
<path d="M0 0 C0.66 0.66 1.32 1.32 2 2 C-1.3 4.97 -4.6 7.94 -8 11 C-8.99 10.34 -9.98 9.68 -11 9 C-9.93458984 8.15115234 -9.93458984 8.15115234 -8.84765625 7.28515625 C-7.92855469 6.55167969 -7.00945313 5.81820312 -6.0625 5.0625 C-5.14597656 4.33160156 -4.22945312 3.60070312 -3.28515625 2.84765625 C-1.59148731 1.48061289 -1.59148731 1.48061289 0 0 Z " fill="#C51B1E" transform="translate(893,831)"/>
<path d="M0 0 C4.75 1.875 4.75 1.875 7 3 C6.34 4.98 5.68 6.96 5 9 C4.34 9 3.68 9 3 9 C2.01 6.03 1.02 3.06 0 0 Z " fill="#C92928" transform="translate(939,725)"/>
<path d="M0 0 C-0.33 0.99 -0.66 1.98 -1 3 C-5.36228979 5.028972 -8.35656242 5.10558038 -13 4 C-13 3.67 -13 3.34 -13 3 C-11.39743892 2.49487756 -9.79288208 1.99608373 -8.1875 1.5 C-7.29417969 1.2215625 -6.40085937 0.943125 -5.48046875 0.65625 C-3 0 -3 0 0 0 Z " fill="#CB2225" transform="translate(434,790)"/>
<path d="M0 0 C0.928125 0.185625 1.85625 0.37125 2.8125 0.5625 C3.534375 0.706875 4.25625 0.85125 5 1 C5 1.33 5 1.66 5 2 C-2.26 1.67 -9.52 1.34 -17 1 C-17 0.67 -17 0.34 -17 0 C-15.10507254 -0.19644384 -13.20899097 -0.38177288 -11.3125 -0.5625 C-9.72888672 -0.71912109 -9.72888672 -0.71912109 -8.11328125 -0.87890625 C-5.16341792 -0.99364372 -2.85015507 -0.70277796 0 0 Z " fill="#CE3436" transform="translate(787,769)"/>
<path d="M0 0 C0.33 0.99 0.66 1.98 1 3 C-0.21484375 5.26171875 -0.21484375 5.26171875 -1.9375 7.6875 C-2.78634766 8.89986328 -2.78634766 8.89986328 -3.65234375 10.13671875 C-4.09707031 10.75160156 -4.54179688 11.36648438 -5 12 C-5.99 11.67 -6.98 11.34 -8 11 C-5.36 7.37 -2.72 3.74 0 0 Z " fill="#505151" transform="translate(706,707)"/>
<path d="M0 0 C-0.92232422 0.12955078 -0.92232422 0.12955078 -1.86328125 0.26171875 C-7.1897961 1.04103275 -7.1897961 1.04103275 -10.9375 4.625 C-11.288125 5.40875 -11.63875 6.1925 -12 7 C-12.66 7 -13.32 7 -14 7 C-12.125 1.125 -12.125 1.125 -11 0 C-6.97279717 -0.75984959 -3.92759816 -1.16180608 0 0 Z " fill="#EDB8BC" transform="translate(1001,725)"/>
<path d="M0 0 C3.96 0.33 7.92 0.66 12 1 C12 1.33 12 1.66 12 2 C8.16275828 2.90413673 4.62497726 3.10576898 0.6875 3.0625 C-0.38113281 3.05347656 -1.44976563 3.04445313 -2.55078125 3.03515625 C-3.35902344 3.02355469 -4.16726563 3.01195312 -5 3 C-5 2.67 -5 2.34 -5 2 C-3.35 2 -1.7 2 0 2 C0 1.34 0 0.68 0 0 Z " fill="#D65757" transform="translate(683,962)"/>
<path d="M0 0 C1.31534494 3.65857532 0.65468309 6.08026481 -0.4375 9.75 C-0.86869141 11.22726562 -0.86869141 11.22726562 -1.30859375 12.734375 C-1.53675781 13.48203125 -1.76492188 14.2296875 -2 15 C-3.44977894 12.65887549 -4.04314411 11.4203071 -3.7578125 8.640625 C-3.54898437 7.85171875 -3.34015625 7.0628125 -3.125 6.25 C-2.92132813 5.45078125 -2.71765625 4.6515625 -2.5078125 3.828125 C-2.34023438 3.22484375 -2.17265625 2.6215625 -2 2 C-1.34 2 -0.68 2 0 2 C0 1.34 0 0.68 0 0 Z " fill="#565757" transform="translate(353,517)"/>
<path d="M0 0 C0 0.33 0 0.66 0 1 C-1.24716797 1.19916016 -1.24716797 1.19916016 -2.51953125 1.40234375 C-3.60621094 1.57894531 -4.69289063 1.75554687 -5.8125 1.9375 C-6.89144531 2.11152344 -7.97039063 2.28554688 -9.08203125 2.46484375 C-12.04933356 2.93871921 -12.04933356 2.93871921 -15 4 C-17.1875 3.0625 -17.1875 3.0625 -19 2 C-12.56971459 0.67611771 -6.5705166 -0.24794402 0 0 Z " fill="#C4C4C5" transform="translate(603,298)"/>
<path d="M0 0 C0.99 0.33 1.98 0.66 3 1 C3 1.66 3 2.32 3 3 C3.99 3 4.98 3 6 3 C6 3.66 6 4.32 6 5 C3.36 4.67 0.72 4.34 -2 4 C-1.34 2.68 -0.68 1.36 0 0 Z " fill="#C91C1F" transform="translate(590,954)"/>
<path d="M0 0 C2 2 2 2 2.125 4.625 C2.08375 5.40875 2.0425 6.1925 2 7 C0.02 7.33 -1.96 7.66 -4 8 C-2.87548273 5.0280615 -1.77706209 2.66559313 0 0 Z " fill="#CA282B" transform="translate(758,946)"/>
<path d="M0 0 C0.66 0 1.32 0 2 0 C1.67 3.3 1.34 6.6 1 10 C0.01 10.33 -0.98 10.66 -2 11 C-1 3.57142857 -1 3.57142857 0 0 Z " fill="#C62F31" transform="translate(889,640)"/>
<path d="M0 0 C0.33 0 0.66 0 1 0 C1.42820102 3.63970867 0.97413512 5.04569463 -0.875 8.3125 C-1.926875 9.6428125 -1.926875 9.6428125 -3 11 C-3.66 11 -4.32 11 -5 11 C-3.77782954 6.95743617 -2.37245704 3.50711041 0 0 Z " fill="#575758" transform="translate(297,383)"/>
<path d="M0 0 C0.66 0.66 1.32 1.32 2 2 C-0.31 4.31 -2.62 6.62 -5 9 C-5.66 8.34 -6.32 7.68 -7 7 C-4.69 4.69 -2.38 2.38 0 0 Z " fill="#4D4D4E" transform="translate(381,346)"/>
<path d="M0 0 C0.33 0.99 0.66 1.98 1 3 C-1.31 4.98 -3.62 6.96 -6 9 C-6 6 -6 6 -4.6875 4.39453125 C-4.130625 3.87246094 -3.57375 3.35039063 -3 2.8125 C-2.443125 2.28269531 -1.88625 1.75289062 -1.3125 1.20703125 C-0.6628125 0.60955078 -0.6628125 0.60955078 0 0 Z " fill="#C71F21" transform="translate(811,887)"/>
<path d="M0 0 C-0.33 0.99 -0.66 1.98 -1 3 C-5.09724467 4.54613006 -7.81857651 5.29227216 -12 4 C-10.3767313 3.3291288 -8.75132422 2.66342971 -7.125 2 C-6.22007812 1.62875 -5.31515625 1.2575 -4.3828125 0.875 C-2 0 -2 0 0 0 Z " fill="#CD2628" transform="translate(966,797)"/>
<path d="M0 0 C-0.33 0.99 -0.66 1.98 -1 3 C-4.40562852 3.77842938 -7.50765756 4.09978121 -11 4 C-7.32740617 1.55160412 -4.45351799 0 0 0 Z " fill="#CB2A2C" transform="translate(418,795)"/>
<path d="M0 0 C-2.91708924 1.98362069 -4.12380904 1.9876191 -7.75 1.625 C-8.8225 1.41875 -9.895 1.2125 -11 1 C-7.2297564 -1.56376565 -4.32597804 -0.83191885 0 0 Z " fill="#CA2829" transform="translate(850,806)"/>
<path d="M0 0 C0 0.66 0 1.32 0 2 C1.65 2 3.3 2 5 2 C5 2.33 5 2.66 5 3 C0.48382401 3.07654536 -3.59085217 3.10228696 -8 2 C-4.91190305 0.23537317 -3.76687864 0 0 0 Z " fill="#D0373A" transform="translate(810,770)"/>
<path d="M0 0 C0.33 0.66 0.66 1.32 1 2 C0.06553465 4.03144641 -0.93224776 6.03533587 -2 8 C-2.99 8 -3.98 8 -5 8 C-5 5 -5 5 -2.5 2.3125 C-1.675 1.549375 -0.85 0.78625 0 0 Z " fill="#F7DCDC" transform="translate(1032,625)"/>
<path d="M0 0 C0.33 0 0.66 0 1 0 C2.6112798 5.71271928 1.08989546 9.68670645 -1 15 C-2.20220203 11.46905698 -1.79532349 8.87101018 -1.0625 5.25 C-0.86785156 4.26515625 -0.67320312 3.2803125 -0.47265625 2.265625 C-0.31667969 1.51796875 -0.16070312 0.7703125 0 0 Z " fill="#7C7E7C" transform="translate(291,518)"/>
<path d="M0 0 C0.66 0.33 1.32 0.66 2 1 C1.38461538 6.53846154 1.38461538 6.53846154 -0.5625 8.875 C-1.036875 9.24625 -1.51125 9.6175 -2 10 C-2.1953125 3.9453125 -2.1953125 3.9453125 -2 2 C-1.34 1.34 -0.68 0.68 0 0 Z " fill="#C52F32" transform="translate(454,395)"/>
<path d="M0 0 C1.32 1.65 2.64 3.3 4 5 C1.69 5.66 -0.62 6.32 -3 7 C-1.125 2.25 -1.125 2.25 0 0 Z " fill="#F4CECD" transform="translate(953,796)"/>
<path d="M0 0 C2.97 0.33 5.94 0.66 9 1 C4.82091936 3.08954032 4.19589427 3.16552619 0 2 C0 1.34 0 0.68 0 0 Z " fill="#CA2523" transform="translate(1048,782)"/>
<path d="M0 0 C1.32 0 2.64 0 4 0 C4 0.99 4 1.98 4 3 C2.35 3.66 0.7 4.32 -1 5 C-1 1 -1 1 0 0 Z " fill="#525353" transform="translate(309,364)"/>
<path d="M0 0 C4.75 1.875 4.75 1.875 7 3 C7 3.66 7 4.32 7 5 C3.31245243 4.50168276 1.39509338 3.89932357 -1 1 C-0.67 0.67 -0.34 0.34 0 0 Z " fill="#565656" transform="translate(754,318)"/>
<path d="M0 0 C0.66 0.99 1.32 1.98 2 3 C0.35 4.98 -1.3 6.96 -3 9 C-3.33 8.34 -3.66 7.68 -4 7 C-3.22265625 5.2734375 -3.22265625 5.2734375 -2.0625 3.375 C-1.381875 2.26125 -0.70125 1.1475 0 0 Z " fill="#F6D6D8" transform="translate(960,784)"/>
<path d="M0 0 C0.66 0 1.32 0 2 0 C2.33 1.98 2.66 3.96 3 6 C1.68 6.33 0.36 6.66 -1 7 C-0.67 4.69 -0.34 2.38 0 0 Z " fill="#CA2122" transform="translate(937,739)"/>
<path d="M0 0 C0.66 0.99 1.32 1.98 2 3 C0.02 5.97 0.02 5.97 -2 9 C-2.66 8.34 -3.32 7.68 -4 7 C-2.68 4.69 -1.36 2.38 0 0 Z " fill="#C92022" transform="translate(1003,683)"/>
<path d="M0 0 C0.33 0 0.66 0 1 0 C1.33 2.64 1.66 5.28 2 8 C1.34 8 0.68 8 0 8 C-0.33 9.32 -0.66 10.64 -1 12 C-1.14285714 3.42857143 -1.14285714 3.42857143 0 0 Z " fill="#CD474A" transform="translate(886,654)"/>
<path d="M0 0 C0.66 0.33 1.32 0.66 2 1 C1.67 1.99 1.34 2.98 1 4 C-1.64 4.33 -4.28 4.66 -7 5 C-4.702779 3.25728062 -2.40133271 1.60088848 0 0 Z " fill="#CC3235" transform="translate(1068,532)"/>
<path d="M0 0 C0.66 1.32 1.32 2.64 2 4 C0.68 5.32 -0.64 6.64 -2 8 C-2.33 7.34 -2.66 6.68 -3 6 C-2.06553465 3.96855359 -1.06775224 1.96466413 0 0 Z " fill="#5B5B5C" transform="translate(564,471)"/>
<path d="M0 0 C0.66 0.66 1.32 1.32 2 2 C0.68 3.32 -0.64 4.64 -2 6 C-2.66 5.34 -3.32 4.68 -4 4 C-2.68 2.68 -1.36 1.36 0 0 Z " fill="#C71A1E" transform="translate(598,945)"/>
<path d="M0 0 C0 3 0 3 -2.5 5.6875 C-3.325 6.450625 -4.15 7.21375 -5 8 C-5.66 7.67 -6.32 7.34 -7 7 C-4.69 4.69 -2.38 2.38 0 0 Z " fill="#FAE9EA" transform="translate(549,934)"/>
<path d="M0 0 C0 0.99 0 1.98 0 3 C-2.5 4.6875 -2.5 4.6875 -5 6 C-5.66 5.34 -6.32 4.68 -7 4 C-4.69 2.68 -2.38 1.36 0 0 Z " fill="#C61D20" transform="translate(862,855)"/>
<path d="M0 0 C0.99 0 1.98 0 3 0 C3.33 1.65 3.66 3.3 4 5 C3.34 5 2.68 5 2 5 C1.67 5.66 1.34 6.32 1 7 C0.67 4.69 0.34 2.38 0 0 Z " fill="#FAEDEE" transform="translate(920,697)"/>
<path d="M0 0 C0.33 0 0.66 0 1 0 C2.12029814 5.48946087 1.79217969 8.83430559 0 14 C-0.33 14 -0.66 14 -1 14 C-1.08333357 9.1666528 -0.95261487 4.76307437 0 0 Z " fill="#EDB0B0" transform="translate(533,468)"/>
<path d="M0 0 C3.465 1.485 3.465 1.485 7 3 C6.67 3.66 6.34 4.32 6 5 C4.02 4.34 2.04 3.68 0 3 C0 2.01 0 1.02 0 0 Z " fill="#4B4A4B" transform="translate(775,326)"/>
</svg>
