<svg xmlns="http://www.w3.org/2000/svg" width="620" height="720" viewBox="0 0 620 720" role="img" aria-label="Yanmar hydraulic oil">
  <defs>
    <linearGradient id="bottle" x1="120" x2="500" y1="90" y2="660" gradientUnits="userSpaceOnUse">
      <stop stop-color="#242424"/>
      <stop offset=".48" stop-color="#050505"/>
      <stop offset="1" stop-color="#3a3a3a"/>
    </linearGradient>
    <filter id="shadow" x="-20%" y="-20%" width="140%" height="140%">
      <feDropShadow dx="0" dy="14" stdDeviation="14" flood-color="#000" flood-opacity=".2"/>
    </filter>
  </defs>
  <rect width="620" height="720" fill="#fff"/>
  <g filter="url(#shadow)">
    <rect x="218" y="66" width="112" height="68" rx="16" fill="#121212"/>
    <path d="M160 128h250c40 0 64 24 64 64v365c0 55-35 90-90 90H158c-55 0-90-35-90-90V221c0-58 34-93 92-93Z" fill="url(#bottle)"/>
    <path d="M371 168h55c31 0 52 21 52 52v28c0 31-21 52-52 52h-53c-31 0-52-21-52-52v-28c0-31 20-52 50-52Zm8 39c-14 0-23 9-23 23v10c0 14 9 23 23 23h35c14 0 23-9 23-23v-10c0-14-9-23-23-23h-35Z" fill="#4b4b4b"/>
    <rect x="122" y="230" width="285" height="286" rx="26" fill="#f3f3f3"/>
    <text x="176" y="292" fill="#d90616" font-family="Arial Black, Arial, sans-serif" font-size="39" font-weight="900">YANMAR</text>
    <text x="160" y="356" fill="#111" font-family="Arial Black, Arial, sans-serif" font-size="36" font-weight="900">HYDRAULIC</text>
    <text x="206" y="398" fill="#111" font-family="Arial Black, Arial, sans-serif" font-size="36" font-weight="900">OIL</text>
    <text x="196" y="458" fill="#111" font-family="Arial Black, Arial, sans-serif" font-size="52" font-weight="900">HM 46</text>
    <path d="M122 486h285v30c0 16-10 26-26 26H148c-16 0-26-10-26-26v-30Z" fill="#d90616"/>
    <text x="318" y="530" fill="white" font-family="Arial Black, Arial, sans-serif" font-size="34" font-weight="900">4L</text>
  </g>
</svg>
